%TF.GenerationSoftware,KiCad,Pcbnew,6.0.2+dfsg-1*%
%TF.CreationDate,2023-07-31T10:29:00-05:00*%
%TF.ProjectId,DrumBrain,4472756d-4272-4616-996e-2e6b69636164,rev?*%
%TF.SameCoordinates,Original*%
%TF.FileFunction,Soldermask,Bot*%
%TF.FilePolarity,Negative*%
%FSLAX46Y46*%
G04 Gerber Fmt 4.6, Leading zero omitted, Abs format (unit mm)*
G04 Created by KiCad (PCBNEW 6.0.2+dfsg-1) date 2023-07-31 10:29:00*
%MOMM*%
%LPD*%
G01*
G04 APERTURE LIST*
%ADD10O,2.616000X1.308000*%
%ADD11O,1.008000X2.016000*%
%ADD12O,1.308000X2.616000*%
%ADD13C,5.600000*%
%ADD14R,1.600000X1.600000*%
%ADD15C,1.600000*%
%ADD16C,2.500000*%
%ADD17C,4.000000*%
%ADD18C,1.750000*%
%ADD19C,1.440000*%
G04 APERTURE END LIST*
D10*
%TO.C,YELLOW1*%
X129480000Y-60640000D03*
D11*
X134680000Y-68540000D03*
D12*
X132080000Y-67540000D03*
D10*
X125380000Y-71940000D03*
D11*
X124880000Y-64840000D03*
%TD*%
D10*
%TO.C,RED1*%
X115570000Y-60640000D03*
D11*
X120770000Y-68540000D03*
D12*
X118170000Y-67540000D03*
D10*
X111470000Y-71940000D03*
D11*
X110970000Y-64840000D03*
%TD*%
D10*
%TO.C,KICK1*%
X165100000Y-60640000D03*
D11*
X170300000Y-68540000D03*
D12*
X167700000Y-67540000D03*
D10*
X161000000Y-71940000D03*
D11*
X160500000Y-64840000D03*
%TD*%
D10*
%TO.C,GREEN1*%
X193040000Y-60640000D03*
D11*
X198240000Y-68540000D03*
D12*
X195640000Y-67540000D03*
D10*
X188940000Y-71940000D03*
D11*
X188440000Y-64840000D03*
%TD*%
D10*
%TO.C,BLUE1*%
X179070000Y-60640000D03*
D11*
X184270000Y-68540000D03*
D12*
X181670000Y-67540000D03*
D10*
X174970000Y-71940000D03*
D11*
X174470000Y-64840000D03*
%TD*%
D13*
%TO.C,*%
X147320000Y-137160000D03*
%TD*%
%TO.C,*%
X199390000Y-99060000D03*
%TD*%
%TO.C,M3*%
X92710000Y-99060000D03*
%TD*%
D14*
%TO.C,U1*%
X139700000Y-60960000D03*
D15*
X139700000Y-63500000D03*
X139700000Y-66040000D03*
X139700000Y-68580000D03*
X139700000Y-71120000D03*
X139700000Y-73660000D03*
X139700000Y-76200000D03*
X139700000Y-78740000D03*
X139700000Y-81280000D03*
X139700000Y-83820000D03*
X139700000Y-86360000D03*
X139700000Y-88900000D03*
X154940000Y-88900000D03*
X154940000Y-86360000D03*
X154940000Y-83820000D03*
X154940000Y-81280000D03*
X154940000Y-78740000D03*
X154940000Y-76200000D03*
X154940000Y-73660000D03*
X154940000Y-71120000D03*
X154940000Y-68580000D03*
X154940000Y-66040000D03*
X154940000Y-63500000D03*
X154940000Y-60960000D03*
%TD*%
D16*
%TO.C,SW-X1*%
X174579872Y-132978026D03*
X177273949Y-126691846D03*
D17*
X179070000Y-132080000D03*
D18*
X175477898Y-135672102D03*
X182662102Y-128487898D03*
%TD*%
D16*
%TO.C,SW-UP1*%
X111194872Y-105038026D03*
X113888949Y-98751846D03*
D17*
X115685000Y-104140000D03*
D18*
X112092898Y-107732102D03*
X119277102Y-100547898D03*
%TD*%
D16*
%TO.C,SW-TRI1*%
X174579872Y-105038026D03*
X177273949Y-98751846D03*
D17*
X179070000Y-104140000D03*
D18*
X175477898Y-107732102D03*
X182662102Y-100547898D03*
%TD*%
D16*
%TO.C,SW-START1*%
X95250000Y-80010000D03*
X101600000Y-77470000D03*
D17*
X99060000Y-82550000D03*
D18*
X93980000Y-82550000D03*
X104140000Y-82550000D03*
%TD*%
D16*
%TO.C,SW-SQR1*%
X160609872Y-119008026D03*
X163303949Y-112721846D03*
D17*
X165100000Y-118110000D03*
D18*
X161507898Y-121702102D03*
X168692102Y-114517898D03*
%TD*%
D16*
%TO.C,SW-RT1*%
X125049872Y-119008026D03*
X127743949Y-112721846D03*
D17*
X129540000Y-118110000D03*
D18*
X125947898Y-121702102D03*
X133132102Y-114517898D03*
%TD*%
D16*
%TO.C,SW-LT1*%
X97109872Y-119008026D03*
X99803949Y-112721846D03*
D17*
X101600000Y-118110000D03*
D18*
X98007898Y-121702102D03*
X105192102Y-114517898D03*
%TD*%
D16*
%TO.C,SW-HOME1*%
X143510000Y-99060000D03*
X149860000Y-96520000D03*
D17*
X147320000Y-101600000D03*
D18*
X142240000Y-101600000D03*
X152400000Y-101600000D03*
%TD*%
D16*
%TO.C,SW-DN1*%
X111079872Y-132978026D03*
X113773949Y-126691846D03*
D17*
X115570000Y-132080000D03*
D18*
X111977898Y-135672102D03*
X119162102Y-128487898D03*
%TD*%
D16*
%TO.C,SW-CIR1*%
X188549872Y-119008026D03*
X191243949Y-112721846D03*
D17*
X193040000Y-118110000D03*
D18*
X189447898Y-121702102D03*
X196632102Y-114517898D03*
%TD*%
D19*
%TO.C,POT-G1*%
X190500000Y-77460000D03*
X190500000Y-80000000D03*
X190500000Y-82540000D03*
%TD*%
%TO.C,POT-K1*%
X162560000Y-77460000D03*
X162560000Y-80000000D03*
X162560000Y-82540000D03*
%TD*%
%TO.C,POT-R1*%
X113030000Y-77460000D03*
X113030000Y-80000000D03*
X113030000Y-82540000D03*
%TD*%
%TO.C,POT-Y1*%
X127000000Y-77460000D03*
X127000000Y-80000000D03*
X127000000Y-82540000D03*
%TD*%
%TO.C,POT-B1*%
X176530000Y-77460000D03*
X176530000Y-80000000D03*
X176530000Y-82540000D03*
%TD*%
M02*
