%TF.GenerationSoftware,KiCad,Pcbnew,6.0.2+dfsg-1*%
%TF.CreationDate,2023-07-31T10:29:00-05:00*%
%TF.ProjectId,DrumBrain,4472756d-4272-4616-996e-2e6b69636164,rev?*%
%TF.SameCoordinates,Original*%
%TF.FileFunction,Legend,Top*%
%TF.FilePolarity,Positive*%
%FSLAX46Y46*%
G04 Gerber Fmt 4.6, Leading zero omitted, Abs format (unit mm)*
G04 Created by KiCad (PCBNEW 6.0.2+dfsg-1) date 2023-07-31 10:29:00*
%MOMM*%
%LPD*%
G01*
G04 APERTURE LIST*
%ADD10C,0.150000*%
%ADD11C,0.127000*%
%ADD12C,0.200000*%
%ADD13C,0.120000*%
G04 APERTURE END LIST*
D10*
%TO.C,YELLOW1*%
X124071666Y-74381190D02*
X124071666Y-74857380D01*
X123738333Y-73857380D02*
X124071666Y-74381190D01*
X124405000Y-73857380D01*
X124738333Y-74333571D02*
X125071666Y-74333571D01*
X125214523Y-74857380D02*
X124738333Y-74857380D01*
X124738333Y-73857380D01*
X125214523Y-73857380D01*
X126119285Y-74857380D02*
X125643095Y-74857380D01*
X125643095Y-73857380D01*
X126928809Y-74857380D02*
X126452619Y-74857380D01*
X126452619Y-73857380D01*
X127452619Y-73857380D02*
X127643095Y-73857380D01*
X127738333Y-73905000D01*
X127833571Y-74000238D01*
X127881190Y-74190714D01*
X127881190Y-74524047D01*
X127833571Y-74714523D01*
X127738333Y-74809761D01*
X127643095Y-74857380D01*
X127452619Y-74857380D01*
X127357380Y-74809761D01*
X127262142Y-74714523D01*
X127214523Y-74524047D01*
X127214523Y-74190714D01*
X127262142Y-74000238D01*
X127357380Y-73905000D01*
X127452619Y-73857380D01*
X128214523Y-73857380D02*
X128452619Y-74857380D01*
X128643095Y-74143095D01*
X128833571Y-74857380D01*
X129071666Y-73857380D01*
X129976428Y-74857380D02*
X129405000Y-74857380D01*
X129690714Y-74857380D02*
X129690714Y-73857380D01*
X129595476Y-74000238D01*
X129500238Y-74095476D01*
X129405000Y-74143095D01*
%TO.C,RED1*%
X111875952Y-74857380D02*
X111542619Y-74381190D01*
X111304523Y-74857380D02*
X111304523Y-73857380D01*
X111685476Y-73857380D01*
X111780714Y-73905000D01*
X111828333Y-73952619D01*
X111875952Y-74047857D01*
X111875952Y-74190714D01*
X111828333Y-74285952D01*
X111780714Y-74333571D01*
X111685476Y-74381190D01*
X111304523Y-74381190D01*
X112304523Y-74333571D02*
X112637857Y-74333571D01*
X112780714Y-74857380D02*
X112304523Y-74857380D01*
X112304523Y-73857380D01*
X112780714Y-73857380D01*
X113209285Y-74857380D02*
X113209285Y-73857380D01*
X113447380Y-73857380D01*
X113590238Y-73905000D01*
X113685476Y-74000238D01*
X113733095Y-74095476D01*
X113780714Y-74285952D01*
X113780714Y-74428809D01*
X113733095Y-74619285D01*
X113685476Y-74714523D01*
X113590238Y-74809761D01*
X113447380Y-74857380D01*
X113209285Y-74857380D01*
X114733095Y-74857380D02*
X114161666Y-74857380D01*
X114447380Y-74857380D02*
X114447380Y-73857380D01*
X114352142Y-74000238D01*
X114256904Y-74095476D01*
X114161666Y-74143095D01*
%TO.C,KICK1*%
X160548809Y-74857380D02*
X160548809Y-73857380D01*
X161120238Y-74857380D02*
X160691666Y-74285952D01*
X161120238Y-73857380D02*
X160548809Y-74428809D01*
X161548809Y-74857380D02*
X161548809Y-73857380D01*
X162596428Y-74762142D02*
X162548809Y-74809761D01*
X162405952Y-74857380D01*
X162310714Y-74857380D01*
X162167857Y-74809761D01*
X162072619Y-74714523D01*
X162025000Y-74619285D01*
X161977380Y-74428809D01*
X161977380Y-74285952D01*
X162025000Y-74095476D01*
X162072619Y-74000238D01*
X162167857Y-73905000D01*
X162310714Y-73857380D01*
X162405952Y-73857380D01*
X162548809Y-73905000D01*
X162596428Y-73952619D01*
X163025000Y-74857380D02*
X163025000Y-73857380D01*
X163596428Y-74857380D02*
X163167857Y-74285952D01*
X163596428Y-73857380D02*
X163025000Y-74428809D01*
X164548809Y-74857380D02*
X163977380Y-74857380D01*
X164263095Y-74857380D02*
X164263095Y-73857380D01*
X164167857Y-74000238D01*
X164072619Y-74095476D01*
X163977380Y-74143095D01*
%TO.C,GREEN1*%
X188322142Y-73905000D02*
X188226904Y-73857380D01*
X188084047Y-73857380D01*
X187941190Y-73905000D01*
X187845952Y-74000238D01*
X187798333Y-74095476D01*
X187750714Y-74285952D01*
X187750714Y-74428809D01*
X187798333Y-74619285D01*
X187845952Y-74714523D01*
X187941190Y-74809761D01*
X188084047Y-74857380D01*
X188179285Y-74857380D01*
X188322142Y-74809761D01*
X188369761Y-74762142D01*
X188369761Y-74428809D01*
X188179285Y-74428809D01*
X189369761Y-74857380D02*
X189036428Y-74381190D01*
X188798333Y-74857380D02*
X188798333Y-73857380D01*
X189179285Y-73857380D01*
X189274523Y-73905000D01*
X189322142Y-73952619D01*
X189369761Y-74047857D01*
X189369761Y-74190714D01*
X189322142Y-74285952D01*
X189274523Y-74333571D01*
X189179285Y-74381190D01*
X188798333Y-74381190D01*
X189798333Y-74333571D02*
X190131666Y-74333571D01*
X190274523Y-74857380D02*
X189798333Y-74857380D01*
X189798333Y-73857380D01*
X190274523Y-73857380D01*
X190703095Y-74333571D02*
X191036428Y-74333571D01*
X191179285Y-74857380D02*
X190703095Y-74857380D01*
X190703095Y-73857380D01*
X191179285Y-73857380D01*
X191607857Y-74857380D02*
X191607857Y-73857380D01*
X192179285Y-74857380D01*
X192179285Y-73857380D01*
X193179285Y-74857380D02*
X192607857Y-74857380D01*
X192893571Y-74857380D02*
X192893571Y-73857380D01*
X192798333Y-74000238D01*
X192703095Y-74095476D01*
X192607857Y-74143095D01*
%TO.C,BLUE1*%
X174709285Y-74333571D02*
X174852142Y-74381190D01*
X174899761Y-74428809D01*
X174947380Y-74524047D01*
X174947380Y-74666904D01*
X174899761Y-74762142D01*
X174852142Y-74809761D01*
X174756904Y-74857380D01*
X174375952Y-74857380D01*
X174375952Y-73857380D01*
X174709285Y-73857380D01*
X174804523Y-73905000D01*
X174852142Y-73952619D01*
X174899761Y-74047857D01*
X174899761Y-74143095D01*
X174852142Y-74238333D01*
X174804523Y-74285952D01*
X174709285Y-74333571D01*
X174375952Y-74333571D01*
X175852142Y-74857380D02*
X175375952Y-74857380D01*
X175375952Y-73857380D01*
X176185476Y-73857380D02*
X176185476Y-74666904D01*
X176233095Y-74762142D01*
X176280714Y-74809761D01*
X176375952Y-74857380D01*
X176566428Y-74857380D01*
X176661666Y-74809761D01*
X176709285Y-74762142D01*
X176756904Y-74666904D01*
X176756904Y-73857380D01*
X177233095Y-74333571D02*
X177566428Y-74333571D01*
X177709285Y-74857380D02*
X177233095Y-74857380D01*
X177233095Y-73857380D01*
X177709285Y-73857380D01*
X178661666Y-74857380D02*
X178090238Y-74857380D01*
X178375952Y-74857380D02*
X178375952Y-73857380D01*
X178280714Y-74000238D01*
X178185476Y-74095476D01*
X178090238Y-74143095D01*
%TO.C,*%
%TO.C,M3*%
X91900476Y-95712380D02*
X91900476Y-94712380D01*
X92233809Y-95426666D01*
X92567142Y-94712380D01*
X92567142Y-95712380D01*
X92948095Y-94712380D02*
X93567142Y-94712380D01*
X93233809Y-95093333D01*
X93376666Y-95093333D01*
X93471904Y-95140952D01*
X93519523Y-95188571D01*
X93567142Y-95283809D01*
X93567142Y-95521904D01*
X93519523Y-95617142D01*
X93471904Y-95664761D01*
X93376666Y-95712380D01*
X93090952Y-95712380D01*
X92995714Y-95664761D01*
X92948095Y-95617142D01*
%TO.C,SW-X1*%
X171982096Y-128426615D02*
X172116783Y-128359271D01*
X172285142Y-128190912D01*
X172318814Y-128089897D01*
X172318814Y-128022554D01*
X172285142Y-127921538D01*
X172217798Y-127854195D01*
X172116783Y-127820523D01*
X172049440Y-127820523D01*
X171948424Y-127854195D01*
X171780066Y-127955210D01*
X171679050Y-127988882D01*
X171611707Y-127988882D01*
X171510692Y-127955210D01*
X171443348Y-127887867D01*
X171409676Y-127786851D01*
X171409676Y-127719508D01*
X171443348Y-127618493D01*
X171611707Y-127450134D01*
X171746394Y-127382790D01*
X171948424Y-127113416D02*
X172823890Y-127652164D01*
X172453501Y-127012401D01*
X173093264Y-127382790D01*
X172554516Y-126507325D01*
X173261623Y-126675684D02*
X173800371Y-126136936D01*
X173632012Y-125429829D02*
X174810523Y-125665531D01*
X174103416Y-124958424D02*
X174339119Y-126136936D01*
X175450286Y-125025768D02*
X175046225Y-125429829D01*
X175248256Y-125227798D02*
X174541149Y-124520692D01*
X174574821Y-124689050D01*
X174574821Y-124823737D01*
X174541149Y-124924753D01*
%TO.C,SW-UP1*%
X108209871Y-100873840D02*
X108344558Y-100806496D01*
X108512917Y-100638138D01*
X108546588Y-100537122D01*
X108546588Y-100469779D01*
X108512917Y-100368764D01*
X108445573Y-100301420D01*
X108344558Y-100267748D01*
X108277214Y-100267748D01*
X108176199Y-100301420D01*
X108007840Y-100402435D01*
X107906825Y-100436107D01*
X107839482Y-100436107D01*
X107738466Y-100402435D01*
X107671123Y-100335092D01*
X107637451Y-100234077D01*
X107637451Y-100166733D01*
X107671123Y-100065718D01*
X107839482Y-99897359D01*
X107974169Y-99830016D01*
X108176199Y-99560642D02*
X109051665Y-100099390D01*
X108681275Y-99459626D01*
X109321039Y-99830016D01*
X108782291Y-98954550D01*
X109489397Y-99122909D02*
X110028145Y-98584161D01*
X109927130Y-97809710D02*
X110499550Y-98382130D01*
X110600565Y-98415802D01*
X110667909Y-98415802D01*
X110768924Y-98382130D01*
X110903611Y-98247443D01*
X110937283Y-98146428D01*
X110937283Y-98079084D01*
X110903611Y-97978069D01*
X110331191Y-97405649D01*
X111375016Y-97776039D02*
X110667909Y-97068932D01*
X110937283Y-96799558D01*
X111038298Y-96765886D01*
X111105642Y-96765886D01*
X111206657Y-96799558D01*
X111307672Y-96900573D01*
X111341344Y-97001588D01*
X111341344Y-97068932D01*
X111307672Y-97169947D01*
X111038298Y-97439321D01*
X112452512Y-96698543D02*
X112048451Y-97102604D01*
X112250481Y-96900573D02*
X111543374Y-96193466D01*
X111577046Y-96361825D01*
X111577046Y-96496512D01*
X111543374Y-96597527D01*
%TO.C,SW-TRI1*%
X171527527Y-100941183D02*
X171662214Y-100873840D01*
X171830573Y-100705481D01*
X171864245Y-100604466D01*
X171864245Y-100537122D01*
X171830573Y-100436107D01*
X171763230Y-100368764D01*
X171662214Y-100335092D01*
X171594871Y-100335092D01*
X171493856Y-100368764D01*
X171325497Y-100469779D01*
X171224482Y-100503451D01*
X171157138Y-100503451D01*
X171056123Y-100469779D01*
X170988779Y-100402435D01*
X170955108Y-100301420D01*
X170955108Y-100234077D01*
X170988779Y-100133061D01*
X171157138Y-99964703D01*
X171291825Y-99897359D01*
X171493856Y-99627985D02*
X172369321Y-100166733D01*
X171998932Y-99526970D01*
X172638695Y-99897359D01*
X172099947Y-99021894D01*
X172807054Y-99190252D02*
X173345802Y-98651504D01*
X173143771Y-97978069D02*
X173547833Y-97574008D01*
X174052909Y-98483146D02*
X173345802Y-97776039D01*
X174894703Y-97641352D02*
X174322283Y-97540336D01*
X174490642Y-98045413D02*
X173783535Y-97338306D01*
X174052909Y-97068932D01*
X174153924Y-97035260D01*
X174221268Y-97035260D01*
X174322283Y-97068932D01*
X174423298Y-97169947D01*
X174456970Y-97270962D01*
X174456970Y-97338306D01*
X174423298Y-97439321D01*
X174153924Y-97708695D01*
X175197748Y-97338306D02*
X174490642Y-96631199D01*
X175904855Y-96631199D02*
X175500794Y-97035260D01*
X175702825Y-96833230D02*
X174995718Y-96126123D01*
X175029390Y-96294482D01*
X175029390Y-96429169D01*
X174995718Y-96530184D01*
%TO.C,SW-START1*%
X94940952Y-74954761D02*
X95083809Y-75002380D01*
X95321904Y-75002380D01*
X95417142Y-74954761D01*
X95464761Y-74907142D01*
X95512380Y-74811904D01*
X95512380Y-74716666D01*
X95464761Y-74621428D01*
X95417142Y-74573809D01*
X95321904Y-74526190D01*
X95131428Y-74478571D01*
X95036190Y-74430952D01*
X94988571Y-74383333D01*
X94940952Y-74288095D01*
X94940952Y-74192857D01*
X94988571Y-74097619D01*
X95036190Y-74050000D01*
X95131428Y-74002380D01*
X95369523Y-74002380D01*
X95512380Y-74050000D01*
X95845714Y-74002380D02*
X96083809Y-75002380D01*
X96274285Y-74288095D01*
X96464761Y-75002380D01*
X96702857Y-74002380D01*
X97083809Y-74621428D02*
X97845714Y-74621428D01*
X98274285Y-74954761D02*
X98417142Y-75002380D01*
X98655238Y-75002380D01*
X98750476Y-74954761D01*
X98798095Y-74907142D01*
X98845714Y-74811904D01*
X98845714Y-74716666D01*
X98798095Y-74621428D01*
X98750476Y-74573809D01*
X98655238Y-74526190D01*
X98464761Y-74478571D01*
X98369523Y-74430952D01*
X98321904Y-74383333D01*
X98274285Y-74288095D01*
X98274285Y-74192857D01*
X98321904Y-74097619D01*
X98369523Y-74050000D01*
X98464761Y-74002380D01*
X98702857Y-74002380D01*
X98845714Y-74050000D01*
X99131428Y-74002380D02*
X99702857Y-74002380D01*
X99417142Y-75002380D02*
X99417142Y-74002380D01*
X99988571Y-74716666D02*
X100464761Y-74716666D01*
X99893333Y-75002380D02*
X100226666Y-74002380D01*
X100560000Y-75002380D01*
X101464761Y-75002380D02*
X101131428Y-74526190D01*
X100893333Y-75002380D02*
X100893333Y-74002380D01*
X101274285Y-74002380D01*
X101369523Y-74050000D01*
X101417142Y-74097619D01*
X101464761Y-74192857D01*
X101464761Y-74335714D01*
X101417142Y-74430952D01*
X101369523Y-74478571D01*
X101274285Y-74526190D01*
X100893333Y-74526190D01*
X101750476Y-74002380D02*
X102321904Y-74002380D01*
X102036190Y-75002380D02*
X102036190Y-74002380D01*
X103179047Y-75002380D02*
X102607619Y-75002380D01*
X102893333Y-75002380D02*
X102893333Y-74002380D01*
X102798095Y-74145238D01*
X102702857Y-74240476D01*
X102607619Y-74288095D01*
%TO.C,SW-SQR1*%
X157288153Y-115180557D02*
X157422840Y-115113214D01*
X157591199Y-114944855D01*
X157624871Y-114843840D01*
X157624871Y-114776496D01*
X157591199Y-114675481D01*
X157523856Y-114608138D01*
X157422840Y-114574466D01*
X157355497Y-114574466D01*
X157254482Y-114608138D01*
X157086123Y-114709153D01*
X156985108Y-114742825D01*
X156917764Y-114742825D01*
X156816749Y-114709153D01*
X156749405Y-114641809D01*
X156715734Y-114540794D01*
X156715734Y-114473451D01*
X156749405Y-114372435D01*
X156917764Y-114204077D01*
X157052451Y-114136733D01*
X157254482Y-113867359D02*
X158129947Y-114406107D01*
X157759558Y-113766344D01*
X158399321Y-114136733D01*
X157860573Y-113261268D01*
X158567680Y-113429626D02*
X159106428Y-112890878D01*
X159645176Y-112823535D02*
X159779863Y-112756191D01*
X159948222Y-112587833D01*
X159981894Y-112486817D01*
X159981894Y-112419474D01*
X159948222Y-112318458D01*
X159880878Y-112251115D01*
X159779863Y-112217443D01*
X159712520Y-112217443D01*
X159611504Y-112251115D01*
X159443146Y-112352130D01*
X159342130Y-112385802D01*
X159274787Y-112385802D01*
X159173771Y-112352130D01*
X159106428Y-112284787D01*
X159072756Y-112183771D01*
X159072756Y-112116428D01*
X159106428Y-112015413D01*
X159274787Y-111847054D01*
X159409474Y-111779710D01*
X160924703Y-111746039D02*
X160823687Y-111779710D01*
X160689000Y-111779710D01*
X160486970Y-111779710D01*
X160385955Y-111813382D01*
X160318611Y-111880726D01*
X160520642Y-112015413D02*
X160419626Y-112049084D01*
X160284939Y-112049084D01*
X160116581Y-111948069D01*
X159880878Y-111712367D01*
X159779863Y-111544008D01*
X159779863Y-111409321D01*
X159813535Y-111308306D01*
X159948222Y-111173619D01*
X160049237Y-111139947D01*
X160183924Y-111139947D01*
X160352283Y-111240962D01*
X160587985Y-111476665D01*
X160689000Y-111645023D01*
X160689000Y-111779710D01*
X160655329Y-111880726D01*
X160520642Y-112015413D01*
X161530794Y-111005260D02*
X160958374Y-110904245D01*
X161126733Y-111409321D02*
X160419626Y-110702214D01*
X160689000Y-110432840D01*
X160790016Y-110399169D01*
X160857359Y-110399169D01*
X160958374Y-110432840D01*
X161059390Y-110533856D01*
X161093061Y-110634871D01*
X161093061Y-110702214D01*
X161059390Y-110803230D01*
X160790016Y-111072604D01*
X162204229Y-110331825D02*
X161800168Y-110735886D01*
X162002199Y-110533856D02*
X161295092Y-109826749D01*
X161328764Y-109995108D01*
X161328764Y-110129795D01*
X161295092Y-110230810D01*
%TO.C,SW-RT1*%
X122165886Y-114742825D02*
X122300573Y-114675481D01*
X122468932Y-114507122D01*
X122502604Y-114406107D01*
X122502604Y-114338764D01*
X122468932Y-114237748D01*
X122401588Y-114170405D01*
X122300573Y-114136733D01*
X122233230Y-114136733D01*
X122132214Y-114170405D01*
X121963856Y-114271420D01*
X121862840Y-114305092D01*
X121795497Y-114305092D01*
X121694482Y-114271420D01*
X121627138Y-114204077D01*
X121593466Y-114103061D01*
X121593466Y-114035718D01*
X121627138Y-113934703D01*
X121795497Y-113766344D01*
X121930184Y-113699000D01*
X122132214Y-113429626D02*
X123007680Y-113968374D01*
X122637291Y-113328611D01*
X123277054Y-113699000D01*
X122738306Y-112823535D01*
X123445413Y-112991894D02*
X123984161Y-112453146D01*
X124994313Y-111981741D02*
X124421894Y-111880726D01*
X124590252Y-112385802D02*
X123883146Y-111678695D01*
X124152520Y-111409321D01*
X124253535Y-111375649D01*
X124320878Y-111375649D01*
X124421894Y-111409321D01*
X124522909Y-111510336D01*
X124556581Y-111611352D01*
X124556581Y-111678695D01*
X124522909Y-111779710D01*
X124253535Y-112049084D01*
X124489237Y-111072604D02*
X124893298Y-110668543D01*
X125398374Y-111577680D02*
X124691268Y-110870573D01*
X126206496Y-110769558D02*
X125802435Y-111173619D01*
X126004466Y-110971588D02*
X125297359Y-110264482D01*
X125331031Y-110432840D01*
X125331031Y-110567527D01*
X125297359Y-110668543D01*
%TO.C,SW-LT1*%
X94293230Y-114675481D02*
X94427917Y-114608138D01*
X94596275Y-114439779D01*
X94629947Y-114338764D01*
X94629947Y-114271420D01*
X94596275Y-114170405D01*
X94528932Y-114103061D01*
X94427917Y-114069390D01*
X94360573Y-114069390D01*
X94259558Y-114103061D01*
X94091199Y-114204077D01*
X93990184Y-114237748D01*
X93922840Y-114237748D01*
X93821825Y-114204077D01*
X93754482Y-114136733D01*
X93720810Y-114035718D01*
X93720810Y-113968374D01*
X93754482Y-113867359D01*
X93922840Y-113699000D01*
X94057527Y-113631657D01*
X94259558Y-113362283D02*
X95135023Y-113901031D01*
X94764634Y-113261268D01*
X95404397Y-113631657D01*
X94865649Y-112756191D01*
X95572756Y-112924550D02*
X96111504Y-112385802D01*
X97054313Y-111981741D02*
X96717596Y-112318458D01*
X96010489Y-111611352D01*
X96481894Y-111139947D02*
X96885955Y-110735886D01*
X97391031Y-111645023D02*
X96683924Y-110937917D01*
X98199153Y-110836901D02*
X97795092Y-111240962D01*
X97997122Y-111038932D02*
X97290016Y-110331825D01*
X97323687Y-110500184D01*
X97323687Y-110634871D01*
X97290016Y-110735886D01*
%TO.C,SW-HOME1*%
X143296190Y-94004761D02*
X143439047Y-94052380D01*
X143677142Y-94052380D01*
X143772380Y-94004761D01*
X143820000Y-93957142D01*
X143867619Y-93861904D01*
X143867619Y-93766666D01*
X143820000Y-93671428D01*
X143772380Y-93623809D01*
X143677142Y-93576190D01*
X143486666Y-93528571D01*
X143391428Y-93480952D01*
X143343809Y-93433333D01*
X143296190Y-93338095D01*
X143296190Y-93242857D01*
X143343809Y-93147619D01*
X143391428Y-93100000D01*
X143486666Y-93052380D01*
X143724761Y-93052380D01*
X143867619Y-93100000D01*
X144200952Y-93052380D02*
X144439047Y-94052380D01*
X144629523Y-93338095D01*
X144820000Y-94052380D01*
X145058095Y-93052380D01*
X145439047Y-93671428D02*
X146200952Y-93671428D01*
X146677142Y-94052380D02*
X146677142Y-93052380D01*
X146677142Y-93528571D02*
X147248571Y-93528571D01*
X147248571Y-94052380D02*
X147248571Y-93052380D01*
X147915238Y-93052380D02*
X148105714Y-93052380D01*
X148200952Y-93100000D01*
X148296190Y-93195238D01*
X148343809Y-93385714D01*
X148343809Y-93719047D01*
X148296190Y-93909523D01*
X148200952Y-94004761D01*
X148105714Y-94052380D01*
X147915238Y-94052380D01*
X147820000Y-94004761D01*
X147724761Y-93909523D01*
X147677142Y-93719047D01*
X147677142Y-93385714D01*
X147724761Y-93195238D01*
X147820000Y-93100000D01*
X147915238Y-93052380D01*
X148772380Y-94052380D02*
X148772380Y-93052380D01*
X149105714Y-93766666D01*
X149439047Y-93052380D01*
X149439047Y-94052380D01*
X149915238Y-93528571D02*
X150248571Y-93528571D01*
X150391428Y-94052380D02*
X149915238Y-94052380D01*
X149915238Y-93052380D01*
X150391428Y-93052380D01*
X151343809Y-94052380D02*
X150772380Y-94052380D01*
X151058095Y-94052380D02*
X151058095Y-93052380D01*
X150962857Y-93195238D01*
X150867619Y-93290476D01*
X150772380Y-93338095D01*
%TO.C,SW-DN1*%
X108094871Y-128813840D02*
X108229558Y-128746496D01*
X108397917Y-128578138D01*
X108431588Y-128477122D01*
X108431588Y-128409779D01*
X108397917Y-128308764D01*
X108330573Y-128241420D01*
X108229558Y-128207748D01*
X108162214Y-128207748D01*
X108061199Y-128241420D01*
X107892840Y-128342435D01*
X107791825Y-128376107D01*
X107724482Y-128376107D01*
X107623466Y-128342435D01*
X107556123Y-128275092D01*
X107522451Y-128174077D01*
X107522451Y-128106733D01*
X107556123Y-128005718D01*
X107724482Y-127837359D01*
X107859169Y-127770016D01*
X108061199Y-127500642D02*
X108936665Y-128039390D01*
X108566275Y-127399626D01*
X109206039Y-127770016D01*
X108667291Y-126894550D01*
X109374397Y-127062909D02*
X109913145Y-126524161D01*
X110519237Y-126456817D02*
X109812130Y-125749710D01*
X109980489Y-125581352D01*
X110115176Y-125514008D01*
X110249863Y-125514008D01*
X110350878Y-125547680D01*
X110519237Y-125648695D01*
X110620252Y-125749710D01*
X110721268Y-125918069D01*
X110754939Y-126019084D01*
X110754939Y-126153771D01*
X110687596Y-126288458D01*
X110519237Y-126456817D01*
X111226344Y-125749710D02*
X110519237Y-125042604D01*
X111630405Y-125345649D01*
X110923298Y-124638543D01*
X112337512Y-124638543D02*
X111933451Y-125042604D01*
X112135481Y-124840573D02*
X111428374Y-124133466D01*
X111462046Y-124301825D01*
X111462046Y-124436512D01*
X111428374Y-124537527D01*
%TO.C,SW-CIR1*%
X185413348Y-114995363D02*
X185548035Y-114928019D01*
X185716394Y-114759660D01*
X185750066Y-114658645D01*
X185750066Y-114591302D01*
X185716394Y-114490286D01*
X185649050Y-114422943D01*
X185548035Y-114389271D01*
X185480692Y-114389271D01*
X185379676Y-114422943D01*
X185211318Y-114523958D01*
X185110302Y-114557630D01*
X185042959Y-114557630D01*
X184941944Y-114523958D01*
X184874600Y-114456615D01*
X184840928Y-114355599D01*
X184840928Y-114288256D01*
X184874600Y-114187241D01*
X185042959Y-114018882D01*
X185177646Y-113951538D01*
X185379676Y-113682164D02*
X186255142Y-114220912D01*
X185884753Y-113581149D01*
X186524516Y-113951538D01*
X185985768Y-113076073D01*
X186692875Y-113244432D02*
X187231623Y-112705684D01*
X188174432Y-112166936D02*
X188174432Y-112234279D01*
X188107088Y-112368966D01*
X188039745Y-112436310D01*
X187905058Y-112503653D01*
X187770371Y-112503653D01*
X187669355Y-112469981D01*
X187500997Y-112368966D01*
X187399981Y-112267951D01*
X187298966Y-112099592D01*
X187265294Y-111998577D01*
X187265294Y-111863890D01*
X187332638Y-111729203D01*
X187399981Y-111661859D01*
X187534668Y-111594516D01*
X187602012Y-111594516D01*
X188544821Y-111931233D02*
X187837714Y-111224127D01*
X189285599Y-111190455D02*
X188713180Y-111089440D01*
X188881538Y-111594516D02*
X188174432Y-110887409D01*
X188443806Y-110618035D01*
X188544821Y-110584363D01*
X188612164Y-110584363D01*
X188713180Y-110618035D01*
X188814195Y-110719050D01*
X188847867Y-110820066D01*
X188847867Y-110887409D01*
X188814195Y-110988424D01*
X188544821Y-111257798D01*
X189959034Y-110517020D02*
X189554973Y-110921081D01*
X189757004Y-110719050D02*
X189049897Y-110011944D01*
X189083569Y-110180302D01*
X189083569Y-110314989D01*
X189049897Y-110416005D01*
%TO.C,POT-G1*%
X187292380Y-82761904D02*
X186292380Y-82761904D01*
X186292380Y-82380952D01*
X186340000Y-82285714D01*
X186387619Y-82238095D01*
X186482857Y-82190476D01*
X186625714Y-82190476D01*
X186720952Y-82238095D01*
X186768571Y-82285714D01*
X186816190Y-82380952D01*
X186816190Y-82761904D01*
X186292380Y-81571428D02*
X186292380Y-81380952D01*
X186340000Y-81285714D01*
X186435238Y-81190476D01*
X186625714Y-81142857D01*
X186959047Y-81142857D01*
X187149523Y-81190476D01*
X187244761Y-81285714D01*
X187292380Y-81380952D01*
X187292380Y-81571428D01*
X187244761Y-81666666D01*
X187149523Y-81761904D01*
X186959047Y-81809523D01*
X186625714Y-81809523D01*
X186435238Y-81761904D01*
X186340000Y-81666666D01*
X186292380Y-81571428D01*
X186292380Y-80857142D02*
X186292380Y-80285714D01*
X187292380Y-80571428D02*
X186292380Y-80571428D01*
X186911428Y-79952380D02*
X186911428Y-79190476D01*
X186340000Y-78190476D02*
X186292380Y-78285714D01*
X186292380Y-78428571D01*
X186340000Y-78571428D01*
X186435238Y-78666666D01*
X186530476Y-78714285D01*
X186720952Y-78761904D01*
X186863809Y-78761904D01*
X187054285Y-78714285D01*
X187149523Y-78666666D01*
X187244761Y-78571428D01*
X187292380Y-78428571D01*
X187292380Y-78333333D01*
X187244761Y-78190476D01*
X187197142Y-78142857D01*
X186863809Y-78142857D01*
X186863809Y-78333333D01*
X187292380Y-77190476D02*
X187292380Y-77761904D01*
X187292380Y-77476190D02*
X186292380Y-77476190D01*
X186435238Y-77571428D01*
X186530476Y-77666666D01*
X186578095Y-77761904D01*
%TO.C,POT-K1*%
X159352380Y-82761904D02*
X158352380Y-82761904D01*
X158352380Y-82380952D01*
X158400000Y-82285714D01*
X158447619Y-82238095D01*
X158542857Y-82190476D01*
X158685714Y-82190476D01*
X158780952Y-82238095D01*
X158828571Y-82285714D01*
X158876190Y-82380952D01*
X158876190Y-82761904D01*
X158352380Y-81571428D02*
X158352380Y-81380952D01*
X158400000Y-81285714D01*
X158495238Y-81190476D01*
X158685714Y-81142857D01*
X159019047Y-81142857D01*
X159209523Y-81190476D01*
X159304761Y-81285714D01*
X159352380Y-81380952D01*
X159352380Y-81571428D01*
X159304761Y-81666666D01*
X159209523Y-81761904D01*
X159019047Y-81809523D01*
X158685714Y-81809523D01*
X158495238Y-81761904D01*
X158400000Y-81666666D01*
X158352380Y-81571428D01*
X158352380Y-80857142D02*
X158352380Y-80285714D01*
X159352380Y-80571428D02*
X158352380Y-80571428D01*
X158971428Y-79952380D02*
X158971428Y-79190476D01*
X159352380Y-78714285D02*
X158352380Y-78714285D01*
X159352380Y-78142857D02*
X158780952Y-78571428D01*
X158352380Y-78142857D02*
X158923809Y-78714285D01*
X159352380Y-77190476D02*
X159352380Y-77761904D01*
X159352380Y-77476190D02*
X158352380Y-77476190D01*
X158495238Y-77571428D01*
X158590476Y-77666666D01*
X158638095Y-77761904D01*
%TO.C,POT-R1*%
X109822380Y-82761904D02*
X108822380Y-82761904D01*
X108822380Y-82380952D01*
X108870000Y-82285714D01*
X108917619Y-82238095D01*
X109012857Y-82190476D01*
X109155714Y-82190476D01*
X109250952Y-82238095D01*
X109298571Y-82285714D01*
X109346190Y-82380952D01*
X109346190Y-82761904D01*
X108822380Y-81571428D02*
X108822380Y-81380952D01*
X108870000Y-81285714D01*
X108965238Y-81190476D01*
X109155714Y-81142857D01*
X109489047Y-81142857D01*
X109679523Y-81190476D01*
X109774761Y-81285714D01*
X109822380Y-81380952D01*
X109822380Y-81571428D01*
X109774761Y-81666666D01*
X109679523Y-81761904D01*
X109489047Y-81809523D01*
X109155714Y-81809523D01*
X108965238Y-81761904D01*
X108870000Y-81666666D01*
X108822380Y-81571428D01*
X108822380Y-80857142D02*
X108822380Y-80285714D01*
X109822380Y-80571428D02*
X108822380Y-80571428D01*
X109441428Y-79952380D02*
X109441428Y-79190476D01*
X109822380Y-78142857D02*
X109346190Y-78476190D01*
X109822380Y-78714285D02*
X108822380Y-78714285D01*
X108822380Y-78333333D01*
X108870000Y-78238095D01*
X108917619Y-78190476D01*
X109012857Y-78142857D01*
X109155714Y-78142857D01*
X109250952Y-78190476D01*
X109298571Y-78238095D01*
X109346190Y-78333333D01*
X109346190Y-78714285D01*
X109822380Y-77190476D02*
X109822380Y-77761904D01*
X109822380Y-77476190D02*
X108822380Y-77476190D01*
X108965238Y-77571428D01*
X109060476Y-77666666D01*
X109108095Y-77761904D01*
%TO.C,POT-Y1*%
X123792380Y-82690476D02*
X122792380Y-82690476D01*
X122792380Y-82309523D01*
X122840000Y-82214285D01*
X122887619Y-82166666D01*
X122982857Y-82119047D01*
X123125714Y-82119047D01*
X123220952Y-82166666D01*
X123268571Y-82214285D01*
X123316190Y-82309523D01*
X123316190Y-82690476D01*
X122792380Y-81500000D02*
X122792380Y-81309523D01*
X122840000Y-81214285D01*
X122935238Y-81119047D01*
X123125714Y-81071428D01*
X123459047Y-81071428D01*
X123649523Y-81119047D01*
X123744761Y-81214285D01*
X123792380Y-81309523D01*
X123792380Y-81500000D01*
X123744761Y-81595238D01*
X123649523Y-81690476D01*
X123459047Y-81738095D01*
X123125714Y-81738095D01*
X122935238Y-81690476D01*
X122840000Y-81595238D01*
X122792380Y-81500000D01*
X122792380Y-80785714D02*
X122792380Y-80214285D01*
X123792380Y-80500000D02*
X122792380Y-80500000D01*
X123411428Y-79880952D02*
X123411428Y-79119047D01*
X123316190Y-78452380D02*
X123792380Y-78452380D01*
X122792380Y-78785714D02*
X123316190Y-78452380D01*
X122792380Y-78119047D01*
X123792380Y-77261904D02*
X123792380Y-77833333D01*
X123792380Y-77547619D02*
X122792380Y-77547619D01*
X122935238Y-77642857D01*
X123030476Y-77738095D01*
X123078095Y-77833333D01*
%TO.C,POT-B1*%
X173322380Y-82761904D02*
X172322380Y-82761904D01*
X172322380Y-82380952D01*
X172370000Y-82285714D01*
X172417619Y-82238095D01*
X172512857Y-82190476D01*
X172655714Y-82190476D01*
X172750952Y-82238095D01*
X172798571Y-82285714D01*
X172846190Y-82380952D01*
X172846190Y-82761904D01*
X172322380Y-81571428D02*
X172322380Y-81380952D01*
X172370000Y-81285714D01*
X172465238Y-81190476D01*
X172655714Y-81142857D01*
X172989047Y-81142857D01*
X173179523Y-81190476D01*
X173274761Y-81285714D01*
X173322380Y-81380952D01*
X173322380Y-81571428D01*
X173274761Y-81666666D01*
X173179523Y-81761904D01*
X172989047Y-81809523D01*
X172655714Y-81809523D01*
X172465238Y-81761904D01*
X172370000Y-81666666D01*
X172322380Y-81571428D01*
X172322380Y-80857142D02*
X172322380Y-80285714D01*
X173322380Y-80571428D02*
X172322380Y-80571428D01*
X172941428Y-79952380D02*
X172941428Y-79190476D01*
X172798571Y-78380952D02*
X172846190Y-78238095D01*
X172893809Y-78190476D01*
X172989047Y-78142857D01*
X173131904Y-78142857D01*
X173227142Y-78190476D01*
X173274761Y-78238095D01*
X173322380Y-78333333D01*
X173322380Y-78714285D01*
X172322380Y-78714285D01*
X172322380Y-78380952D01*
X172370000Y-78285714D01*
X172417619Y-78238095D01*
X172512857Y-78190476D01*
X172608095Y-78190476D01*
X172703333Y-78238095D01*
X172750952Y-78285714D01*
X172798571Y-78380952D01*
X172798571Y-78714285D01*
X173322380Y-77190476D02*
X173322380Y-77761904D01*
X173322380Y-77476190D02*
X172322380Y-77476190D01*
X172465238Y-77571428D01*
X172560476Y-77666666D01*
X172608095Y-77761904D01*
%TO.C,G\u002A\u002A\u002A*%
G36*
X143370077Y-127813763D02*
G01*
X143371533Y-127676753D01*
X143373847Y-127548278D01*
X143377018Y-127432543D01*
X143381048Y-127333752D01*
X143385937Y-127256108D01*
X143388876Y-127224980D01*
X143418510Y-126983342D01*
X143450135Y-126770821D01*
X143483793Y-126587282D01*
X143519525Y-126432595D01*
X143557375Y-126306624D01*
X143597384Y-126209239D01*
X143639594Y-126140307D01*
X143684048Y-126099694D01*
X143730787Y-126087268D01*
X143749101Y-126089896D01*
X143787098Y-126113284D01*
X143821555Y-126163775D01*
X143852647Y-126241848D01*
X143880551Y-126347980D01*
X143905443Y-126482650D01*
X143913406Y-126536116D01*
X143920944Y-126606184D01*
X143927666Y-126701153D01*
X143933507Y-126816623D01*
X143938404Y-126948192D01*
X143942292Y-127091457D01*
X143945107Y-127242018D01*
X143946785Y-127395473D01*
X143947263Y-127547420D01*
X143946477Y-127693458D01*
X143944362Y-127829184D01*
X143940854Y-127950198D01*
X143935891Y-128052098D01*
X143935516Y-128057966D01*
X143916925Y-128299869D01*
X143893505Y-128531321D01*
X143865726Y-128749499D01*
X143834064Y-128951576D01*
X143798989Y-129134727D01*
X143760977Y-129296125D01*
X143720500Y-129432944D01*
X143692725Y-129508259D01*
X143655188Y-129600366D01*
X143694714Y-129669482D01*
X143761328Y-129775545D01*
X143825303Y-129856636D01*
X143885151Y-129910877D01*
X143886273Y-129911659D01*
X143927509Y-129934342D01*
X143993770Y-129963392D01*
X144081732Y-129997723D01*
X144188070Y-130036247D01*
X144309460Y-130077878D01*
X144442577Y-130121529D01*
X144584097Y-130166112D01*
X144730695Y-130210541D01*
X144879046Y-130253729D01*
X145025827Y-130294589D01*
X145167713Y-130332034D01*
X145187455Y-130337058D01*
X145526082Y-130417721D01*
X145845754Y-130483042D01*
X146151970Y-130533841D01*
X146450232Y-130570939D01*
X146746038Y-130595156D01*
X146990720Y-130605980D01*
X147111552Y-130608771D01*
X147206110Y-130609530D01*
X147277369Y-130608187D01*
X147328303Y-130604675D01*
X147361887Y-130598923D01*
X147367651Y-130597216D01*
X147418227Y-130569190D01*
X147473754Y-130519624D01*
X147528893Y-130454427D01*
X147578304Y-130379507D01*
X147598364Y-130341939D01*
X147642832Y-130251581D01*
X147614530Y-130170969D01*
X147566405Y-130013359D01*
X147522794Y-129827978D01*
X147483895Y-129616052D01*
X147449905Y-129378802D01*
X147421023Y-129117454D01*
X147397445Y-128833231D01*
X147396695Y-128822556D01*
X147392867Y-128748552D01*
X147389904Y-128651819D01*
X147387777Y-128536764D01*
X147386461Y-128407795D01*
X147385929Y-128269320D01*
X147385968Y-128244113D01*
X147443978Y-128244113D01*
X147445761Y-128417960D01*
X147449359Y-128585187D01*
X147454771Y-128740670D01*
X147461999Y-128879282D01*
X147471041Y-128995899D01*
X147471285Y-128998436D01*
X147492882Y-129202229D01*
X147517082Y-129395933D01*
X147543356Y-129576479D01*
X147571175Y-129740803D01*
X147600008Y-129885838D01*
X147629325Y-130008517D01*
X147658596Y-130105775D01*
X147666317Y-130126999D01*
X147673603Y-130135481D01*
X147682990Y-130125106D01*
X147695356Y-130093528D01*
X147711580Y-130038406D01*
X147732539Y-129957396D01*
X147737726Y-129936463D01*
X147779875Y-129742581D01*
X147815749Y-129530923D01*
X147845330Y-129305054D01*
X147868603Y-129068541D01*
X147885554Y-128824951D01*
X147896165Y-128577850D01*
X147900422Y-128330805D01*
X147898310Y-128087381D01*
X147889812Y-127851145D01*
X147874913Y-127625663D01*
X147853597Y-127414502D01*
X147825849Y-127221229D01*
X147791653Y-127049409D01*
X147750995Y-126902609D01*
X147750970Y-126902533D01*
X147718049Y-126816141D01*
X147686001Y-126758885D01*
X147654928Y-126730600D01*
X147624934Y-126731120D01*
X147596125Y-126760278D01*
X147568603Y-126817908D01*
X147542474Y-126903843D01*
X147517841Y-127017918D01*
X147494808Y-127159966D01*
X147473479Y-127329821D01*
X147471368Y-127349035D01*
X147462270Y-127454969D01*
X147454985Y-127585035D01*
X147449513Y-127734108D01*
X147445854Y-127897062D01*
X147444009Y-128068772D01*
X147443978Y-128244113D01*
X147385968Y-128244113D01*
X147386153Y-128125748D01*
X147387106Y-127981485D01*
X147388762Y-127840940D01*
X147391093Y-127708521D01*
X147394073Y-127588636D01*
X147397674Y-127485692D01*
X147401870Y-127404097D01*
X147405664Y-127356890D01*
X147426202Y-127182180D01*
X147448649Y-127035173D01*
X147473444Y-126914295D01*
X147501030Y-126817972D01*
X147531846Y-126744631D01*
X147566333Y-126692699D01*
X147599872Y-126663579D01*
X147640677Y-126653926D01*
X147684721Y-126670961D01*
X147728424Y-126712863D01*
X147746222Y-126738074D01*
X147793090Y-126830553D01*
X147834375Y-126951506D01*
X147870030Y-127100625D01*
X147900007Y-127277597D01*
X147924260Y-127482112D01*
X147942741Y-127713859D01*
X147955404Y-127972529D01*
X147960355Y-128148350D01*
X147961836Y-128473287D01*
X147952689Y-128787941D01*
X147933217Y-129089319D01*
X147903725Y-129374426D01*
X147864516Y-129640269D01*
X147815893Y-129883853D01*
X147764287Y-130081733D01*
X147710535Y-130263645D01*
X147760362Y-130359748D01*
X147813129Y-130451634D01*
X147864570Y-130517956D01*
X147918873Y-130561945D01*
X147980223Y-130586826D01*
X148052808Y-130595829D01*
X148066806Y-130596013D01*
X148163015Y-130592650D01*
X148283658Y-130582992D01*
X148424687Y-130567686D01*
X148582055Y-130547378D01*
X148751717Y-130522714D01*
X148929626Y-130494341D01*
X149111734Y-130462904D01*
X149293996Y-130429050D01*
X149472364Y-130393425D01*
X149642793Y-130356676D01*
X149801234Y-130319448D01*
X149806248Y-130318210D01*
X149937559Y-130284495D01*
X150074185Y-130247184D01*
X150212347Y-130207490D01*
X150348268Y-130166626D01*
X150478167Y-130125806D01*
X150598266Y-130086242D01*
X150704786Y-130049146D01*
X150793947Y-130015733D01*
X150861971Y-129987214D01*
X150902762Y-129966266D01*
X150957018Y-129921167D01*
X151013934Y-129853667D01*
X151069382Y-129769883D01*
X151119236Y-129675930D01*
X151153211Y-129595144D01*
X151179106Y-129524974D01*
X151133063Y-129389951D01*
X151092523Y-129261005D01*
X151056509Y-129124042D01*
X151024311Y-128975224D01*
X150995219Y-128810710D01*
X150968520Y-128626662D01*
X150943505Y-128419239D01*
X150930320Y-128294916D01*
X150922039Y-128194424D01*
X150915178Y-128072623D01*
X150909738Y-127933886D01*
X150905720Y-127782583D01*
X150903126Y-127623087D01*
X150901957Y-127459768D01*
X150902145Y-127341010D01*
X150955310Y-127341010D01*
X150957788Y-127586268D01*
X150966360Y-127836292D01*
X150980697Y-128085940D01*
X151000470Y-128330064D01*
X151025348Y-128563521D01*
X151055002Y-128781165D01*
X151089103Y-128977851D01*
X151110503Y-129079048D01*
X151125609Y-129141703D01*
X151143365Y-129210044D01*
X151161809Y-129277116D01*
X151178980Y-129335965D01*
X151192915Y-129379636D01*
X151201138Y-129400336D01*
X151208645Y-129403174D01*
X151218043Y-129386492D01*
X151229975Y-129348106D01*
X151245085Y-129285835D01*
X151264018Y-129197494D01*
X151270877Y-129163915D01*
X151293916Y-129045294D01*
X151313285Y-128933432D01*
X151329283Y-128824315D01*
X151342207Y-128713928D01*
X151352355Y-128598260D01*
X151360027Y-128473294D01*
X151365519Y-128335019D01*
X151369131Y-128179419D01*
X151371160Y-128002481D01*
X151371900Y-127803918D01*
X151371596Y-127603716D01*
X151370102Y-127429047D01*
X151367197Y-127276149D01*
X151362660Y-127141256D01*
X151356270Y-127020605D01*
X151347805Y-126910432D01*
X151337045Y-126806974D01*
X151323767Y-126706466D01*
X151307752Y-126605146D01*
X151298247Y-126550773D01*
X151272244Y-126420972D01*
X151245113Y-126313494D01*
X151217390Y-126229622D01*
X151189613Y-126170638D01*
X151162317Y-126137823D01*
X151136039Y-126132460D01*
X151125691Y-126138489D01*
X151098882Y-126174998D01*
X151072708Y-126237877D01*
X151047784Y-126324182D01*
X151024722Y-126430969D01*
X151004137Y-126555294D01*
X150986643Y-126694214D01*
X150972853Y-126844785D01*
X150969956Y-126885378D01*
X150959256Y-127105665D01*
X150955310Y-127341010D01*
X150902145Y-127341010D01*
X150902214Y-127296997D01*
X150903898Y-127139146D01*
X150907011Y-126990587D01*
X150911555Y-126855689D01*
X150917529Y-126738826D01*
X150924937Y-126644367D01*
X150929821Y-126602071D01*
X150953746Y-126448683D01*
X150980220Y-126323071D01*
X151009758Y-126223767D01*
X151042874Y-126149303D01*
X151080081Y-126098214D01*
X151115499Y-126071974D01*
X151159365Y-126064045D01*
X151200963Y-126084481D01*
X151240102Y-126132408D01*
X151276591Y-126206951D01*
X151310237Y-126307234D01*
X151340850Y-126432384D01*
X151368237Y-126581526D01*
X151392206Y-126753785D01*
X151412567Y-126948287D01*
X151429128Y-127164156D01*
X151441697Y-127400518D01*
X151448413Y-127591596D01*
X151451024Y-127808917D01*
X151447247Y-128033137D01*
X151437505Y-128259737D01*
X151422219Y-128484202D01*
X151401812Y-128702012D01*
X151376706Y-128908652D01*
X151347323Y-129099603D01*
X151314085Y-129270349D01*
X151278115Y-129413945D01*
X151263431Y-129471200D01*
X151259952Y-129513594D01*
X151270147Y-129549933D01*
X151296489Y-129589023D01*
X151341441Y-129639665D01*
X151375461Y-129669456D01*
X151412095Y-129684630D01*
X151456107Y-129684783D01*
X151512263Y-129669508D01*
X151585329Y-129638400D01*
X151633654Y-129614795D01*
X151809227Y-129516429D01*
X151993213Y-129394209D01*
X152181908Y-129250972D01*
X152371608Y-129089554D01*
X152558607Y-128912793D01*
X152585221Y-128886114D01*
X152742595Y-128727181D01*
X152749801Y-128485399D01*
X152751806Y-128410369D01*
X152754089Y-128311787D01*
X152756536Y-128195416D01*
X152759033Y-128067015D01*
X152761466Y-127932344D01*
X152763720Y-127797165D01*
X152764753Y-127730635D01*
X152766247Y-127634707D01*
X152768218Y-127512865D01*
X152770609Y-127368503D01*
X152773361Y-127205016D01*
X152776416Y-127025796D01*
X152779715Y-126834239D01*
X152783201Y-126633739D01*
X152786815Y-126427689D01*
X152790498Y-126219484D01*
X152794193Y-126012519D01*
X152795450Y-125942521D01*
X152798844Y-125750260D01*
X152801979Y-125565363D01*
X152804824Y-125390074D01*
X152807349Y-125226638D01*
X152809523Y-125077298D01*
X152811315Y-124944299D01*
X152812696Y-124829884D01*
X152813634Y-124736298D01*
X152814098Y-124665785D01*
X152814060Y-124620588D01*
X152813662Y-124604364D01*
X152808921Y-124541337D01*
X152698996Y-124675527D01*
X152513670Y-124879968D01*
X152301870Y-125073514D01*
X152064583Y-125255525D01*
X151802797Y-125425357D01*
X151517500Y-125582368D01*
X151209680Y-125725917D01*
X150888898Y-125852272D01*
X150650104Y-125932935D01*
X150394980Y-126009009D01*
X150135043Y-126077379D01*
X149881813Y-126134928D01*
X149745678Y-126161550D01*
X149476630Y-126207720D01*
X149221062Y-126245072D01*
X148965156Y-126275469D01*
X148741696Y-126296828D01*
X148624245Y-126305058D01*
X148482085Y-126311862D01*
X148319788Y-126317238D01*
X148141923Y-126321187D01*
X147953062Y-126323708D01*
X147757775Y-126324801D01*
X147560633Y-126324466D01*
X147366205Y-126322703D01*
X147179063Y-126319511D01*
X147003777Y-126314890D01*
X146844917Y-126308840D01*
X146707055Y-126301360D01*
X146645793Y-126296954D01*
X146186928Y-126254062D01*
X145754759Y-126200589D01*
X145348599Y-126136411D01*
X144967757Y-126061401D01*
X144611545Y-125975436D01*
X144279275Y-125878389D01*
X144198130Y-125851798D01*
X143869692Y-125732319D01*
X143568789Y-125603325D01*
X143295170Y-125464645D01*
X143048587Y-125316108D01*
X142828789Y-125157543D01*
X142635526Y-124988780D01*
X142468550Y-124809646D01*
X142327610Y-124619972D01*
X142274779Y-124534840D01*
X142173400Y-124335418D01*
X142096649Y-124127275D01*
X142044835Y-123913653D01*
X142018268Y-123697797D01*
X142017260Y-123482949D01*
X142042119Y-123272352D01*
X142093156Y-123069250D01*
X142125920Y-122978198D01*
X142215251Y-122791097D01*
X142332339Y-122608713D01*
X142475779Y-122432766D01*
X142644168Y-122264973D01*
X142836103Y-122107055D01*
X142838730Y-122105087D01*
X142895652Y-122061276D01*
X142941770Y-122023409D01*
X142973123Y-121994924D01*
X142985755Y-121979260D01*
X142985444Y-121977676D01*
X142972852Y-121971306D01*
X143168453Y-121971306D01*
X143181307Y-121979889D01*
X143218373Y-121999049D01*
X143277032Y-122027561D01*
X143354661Y-122064199D01*
X143448641Y-122107740D01*
X143556352Y-122156959D01*
X143675172Y-122210629D01*
X143796578Y-122264902D01*
X144297817Y-122487870D01*
X144772767Y-122699144D01*
X145221921Y-122898944D01*
X145645775Y-123087490D01*
X146044821Y-123265002D01*
X146419555Y-123431699D01*
X146770469Y-123587801D01*
X147098059Y-123733528D01*
X147402818Y-123869100D01*
X147685240Y-123994736D01*
X147945819Y-124110657D01*
X148185049Y-124217082D01*
X148403425Y-124314230D01*
X148601441Y-124402322D01*
X148779589Y-124481578D01*
X148938366Y-124552216D01*
X149078263Y-124614458D01*
X149199777Y-124668523D01*
X149303400Y-124714630D01*
X149389626Y-124752999D01*
X149458951Y-124783850D01*
X149511867Y-124807403D01*
X149518500Y-124810356D01*
X149630281Y-124860374D01*
X149718158Y-124900436D01*
X149785161Y-124932154D01*
X149834319Y-124957141D01*
X149868663Y-124977011D01*
X149891221Y-124993376D01*
X149905023Y-125007849D01*
X149912163Y-125019932D01*
X149970957Y-125121843D01*
X150041634Y-125200471D01*
X150122038Y-125254295D01*
X150210018Y-125281793D01*
X150285725Y-125283690D01*
X150339509Y-125273025D01*
X150389378Y-125254657D01*
X150402978Y-125247156D01*
X150462364Y-125212130D01*
X150511394Y-125191001D01*
X150547861Y-125181177D01*
X150582236Y-125166808D01*
X150621970Y-125140617D01*
X150658754Y-125109442D01*
X150684278Y-125080120D01*
X150691033Y-125063381D01*
X150678832Y-125045400D01*
X150649278Y-125027415D01*
X150647384Y-125026613D01*
X150613922Y-125003756D01*
X150583806Y-124961580D01*
X150565944Y-124925902D01*
X150520149Y-124842846D01*
X150466407Y-124781746D01*
X150397800Y-124735264D01*
X150375914Y-124724308D01*
X150282533Y-124695555D01*
X150178701Y-124690697D01*
X150086656Y-124705936D01*
X150074350Y-124709361D01*
X150062992Y-124711972D01*
X150050672Y-124712939D01*
X150035481Y-124711429D01*
X150015507Y-124706611D01*
X149988841Y-124697654D01*
X149953573Y-124683727D01*
X149907792Y-124663997D01*
X149849588Y-124637634D01*
X149777051Y-124603805D01*
X149688271Y-124561680D01*
X149581337Y-124510427D01*
X149454340Y-124449214D01*
X149305369Y-124377211D01*
X149132515Y-124293585D01*
X149071471Y-124264054D01*
X148976734Y-124218262D01*
X148875816Y-124169546D01*
X148777671Y-124122222D01*
X148691252Y-124080609D01*
X148646428Y-124059062D01*
X148572157Y-124023334D01*
X148480463Y-123979128D01*
X148380293Y-123930766D01*
X148280597Y-123882565D01*
X148221385Y-123853900D01*
X148128282Y-123808849D01*
X148030536Y-123761638D01*
X147936591Y-123716341D01*
X147854888Y-123677027D01*
X147810998Y-123655966D01*
X147652229Y-123579876D01*
X147515219Y-123514134D01*
X147395266Y-123456476D01*
X147287668Y-123404637D01*
X147187722Y-123356352D01*
X147090727Y-123309357D01*
X147012210Y-123271223D01*
X146919121Y-123226064D01*
X146820222Y-123178249D01*
X146724504Y-123132114D01*
X146640957Y-123091995D01*
X146601823Y-123073288D01*
X146546466Y-123046802D01*
X146469488Y-123009839D01*
X146375654Y-122964694D01*
X146269728Y-122913662D01*
X146156473Y-122859037D01*
X146040656Y-122803114D01*
X145986243Y-122776818D01*
X145872230Y-122721729D01*
X145759722Y-122667418D01*
X145653236Y-122616061D01*
X145557283Y-122569832D01*
X145476377Y-122530907D01*
X145415032Y-122501460D01*
X145392648Y-122490753D01*
X145338009Y-122464553D01*
X145262635Y-122428239D01*
X145172146Y-122384529D01*
X145072163Y-122336141D01*
X144968309Y-122285791D01*
X144895918Y-122250640D01*
X144802713Y-122205416D01*
X144718566Y-122164714D01*
X144646949Y-122130201D01*
X144591332Y-122103547D01*
X144555187Y-122086422D01*
X144541999Y-122080490D01*
X144528402Y-122074321D01*
X144491668Y-122056845D01*
X144435006Y-122029609D01*
X144361622Y-121994163D01*
X144274726Y-121952052D01*
X144177523Y-121904826D01*
X144130267Y-121881828D01*
X143722291Y-121683165D01*
X143604787Y-121735629D01*
X143535177Y-121767877D01*
X143460617Y-121804382D01*
X143385745Y-121842638D01*
X143315203Y-121880137D01*
X143253632Y-121914374D01*
X143205673Y-121942842D01*
X143175967Y-121963033D01*
X143168453Y-121971306D01*
X142972852Y-121971306D01*
X142969990Y-121969858D01*
X142930673Y-121951536D01*
X142870446Y-121924042D01*
X142792264Y-121888712D01*
X142699079Y-121846877D01*
X142593846Y-121799872D01*
X142479518Y-121749030D01*
X142450323Y-121736081D01*
X142315225Y-121676346D01*
X142204524Y-121627265D01*
X142116025Y-121587159D01*
X142047531Y-121554350D01*
X141996847Y-121527158D01*
X141961777Y-121503905D01*
X141940126Y-121482913D01*
X141929697Y-121462503D01*
X141928296Y-121440995D01*
X141928866Y-121438444D01*
X142002297Y-121438444D01*
X142007846Y-121450154D01*
X142023134Y-121464125D01*
X142050984Y-121481846D01*
X142094222Y-121504806D01*
X142155672Y-121534494D01*
X142238159Y-121572398D01*
X142344507Y-121620008D01*
X142358719Y-121626316D01*
X142464696Y-121673360D01*
X142572247Y-121721161D01*
X142675240Y-121766992D01*
X142767543Y-121808121D01*
X142843023Y-121841819D01*
X142879030Y-121857939D01*
X142944709Y-121886760D01*
X143001603Y-121910551D01*
X143043922Y-121926970D01*
X143065872Y-121933677D01*
X143066586Y-121933724D01*
X143087188Y-121926868D01*
X143125995Y-121908382D01*
X143176052Y-121881679D01*
X143198496Y-121868986D01*
X143260516Y-121834635D01*
X143337646Y-121793836D01*
X143418446Y-121752565D01*
X143469500Y-121727354D01*
X143529471Y-121696942D01*
X143577033Y-121670269D01*
X143607510Y-121650151D01*
X143608614Y-121648789D01*
X143804173Y-121648789D01*
X143812698Y-121657431D01*
X143841018Y-121672859D01*
X143862617Y-121682796D01*
X143893176Y-121696786D01*
X143945762Y-121721579D01*
X144016063Y-121755111D01*
X144099767Y-121795318D01*
X144192563Y-121840136D01*
X144276831Y-121881029D01*
X144369975Y-121926266D01*
X144454052Y-121966979D01*
X144525591Y-122001497D01*
X144581122Y-122028149D01*
X144617176Y-122045265D01*
X144630269Y-122051177D01*
X144643824Y-122057347D01*
X144680509Y-122074822D01*
X144737112Y-122102052D01*
X144810420Y-122137484D01*
X144897219Y-122179568D01*
X144994297Y-122226753D01*
X145040080Y-122249042D01*
X145140725Y-122298005D01*
X145232543Y-122342559D01*
X145312317Y-122381153D01*
X145376830Y-122412234D01*
X145422867Y-122434251D01*
X145447212Y-122445653D01*
X145450228Y-122446907D01*
X145463916Y-122453042D01*
X145500447Y-122470323D01*
X145556312Y-122497063D01*
X145627999Y-122531578D01*
X145711998Y-122572182D01*
X145797147Y-122613473D01*
X145970906Y-122697839D01*
X146120801Y-122770582D01*
X146249325Y-122832904D01*
X146358969Y-122886013D01*
X146452226Y-122931112D01*
X146531590Y-122969407D01*
X146599551Y-123002103D01*
X146658604Y-123030405D01*
X146711240Y-123055517D01*
X146726405Y-123062729D01*
X146790479Y-123093294D01*
X146872706Y-123132687D01*
X146964855Y-123176958D01*
X147058698Y-123222154D01*
X147114807Y-123249237D01*
X147181367Y-123281381D01*
X147270007Y-123324161D01*
X147376398Y-123375489D01*
X147496211Y-123433277D01*
X147625118Y-123495437D01*
X147758789Y-123559882D01*
X147892897Y-123624524D01*
X147942908Y-123648627D01*
X148076053Y-123712805D01*
X148210402Y-123777588D01*
X148341624Y-123840885D01*
X148465393Y-123900609D01*
X148577377Y-123954669D01*
X148673250Y-124000977D01*
X148748681Y-124037444D01*
X148771010Y-124048250D01*
X148951286Y-124135494D01*
X149106700Y-124210616D01*
X149238743Y-124274336D01*
X149348905Y-124327369D01*
X149438678Y-124370434D01*
X149509551Y-124404248D01*
X149563016Y-124429528D01*
X149569798Y-124432709D01*
X149623461Y-124458223D01*
X149694240Y-124492407D01*
X149773024Y-124530839D01*
X149850702Y-124569093D01*
X149852477Y-124569972D01*
X150032558Y-124659181D01*
X150120998Y-124636524D01*
X150227444Y-124623560D01*
X150331119Y-124637985D01*
X150428142Y-124677899D01*
X150514631Y-124741400D01*
X150586703Y-124826584D01*
X150617757Y-124879929D01*
X150649649Y-124931797D01*
X150684109Y-124969759D01*
X150716089Y-124989242D01*
X150737194Y-124988065D01*
X150745711Y-124971852D01*
X150757240Y-124936205D01*
X150764693Y-124907654D01*
X150774465Y-124838146D01*
X150773799Y-124764385D01*
X150763421Y-124698035D01*
X150749234Y-124659268D01*
X150736356Y-124641431D01*
X150717231Y-124634264D01*
X150682886Y-124635827D01*
X150656889Y-124639322D01*
X150535826Y-124647634D01*
X150432327Y-124633663D01*
X150343406Y-124596035D01*
X150266082Y-124533374D01*
X150197371Y-124444305D01*
X150183044Y-124420912D01*
X150173859Y-124404977D01*
X150165377Y-124391208D01*
X150155385Y-124378389D01*
X150141667Y-124365308D01*
X150122009Y-124350749D01*
X150094198Y-124333499D01*
X150056019Y-124312343D01*
X150005257Y-124286068D01*
X149939699Y-124253459D01*
X149857131Y-124213302D01*
X149755337Y-124164383D01*
X149632104Y-124105487D01*
X149485218Y-124035402D01*
X149444888Y-124016155D01*
X149358192Y-123974740D01*
X149256075Y-123925904D01*
X149149546Y-123874914D01*
X149049608Y-123827035D01*
X149020173Y-123812922D01*
X148852297Y-123732427D01*
X148706491Y-123662551D01*
X148578406Y-123601211D01*
X148463693Y-123546327D01*
X148358004Y-123495814D01*
X148280011Y-123458578D01*
X148199811Y-123420179D01*
X148104148Y-123374182D01*
X148003909Y-123325832D01*
X147909982Y-123280375D01*
X147891610Y-123271459D01*
X147693565Y-123175657D01*
X147479989Y-123072982D01*
X147261999Y-122968771D01*
X147164442Y-122922330D01*
X147112699Y-122897590D01*
X147040249Y-122862749D01*
X146952739Y-122820533D01*
X146855820Y-122773670D01*
X146755140Y-122724886D01*
X146697358Y-122696840D01*
X146606403Y-122652753D01*
X146524505Y-122613230D01*
X146455241Y-122579985D01*
X146402186Y-122554727D01*
X146368916Y-122539168D01*
X146358880Y-122534847D01*
X146344847Y-122528747D01*
X146308204Y-122511640D01*
X146252714Y-122485316D01*
X146182139Y-122451565D01*
X146100242Y-122412176D01*
X146050748Y-122388280D01*
X145964233Y-122346528D01*
X145887020Y-122309405D01*
X145822849Y-122278699D01*
X145775463Y-122256197D01*
X145748606Y-122243688D01*
X145743923Y-122241714D01*
X145730296Y-122235598D01*
X145693863Y-122218389D01*
X145638189Y-122191794D01*
X145566837Y-122157521D01*
X145483372Y-122117276D01*
X145407305Y-122080490D01*
X145316477Y-122036579D01*
X145234792Y-121997220D01*
X145165816Y-121964120D01*
X145113115Y-121938987D01*
X145080253Y-121923528D01*
X145070599Y-121919267D01*
X145056943Y-121913148D01*
X145020559Y-121895952D01*
X144965079Y-121869420D01*
X144894136Y-121835294D01*
X144811364Y-121795317D01*
X144746080Y-121763692D01*
X144607114Y-121696454D01*
X144492273Y-121641279D01*
X144399427Y-121597190D01*
X144326446Y-121563212D01*
X144271201Y-121538370D01*
X144231562Y-121521688D01*
X144205398Y-121512192D01*
X144190581Y-121508905D01*
X144189662Y-121508880D01*
X144170402Y-121513692D01*
X144130440Y-121526588D01*
X144076129Y-121545264D01*
X144013824Y-121567413D01*
X143949876Y-121590730D01*
X143890640Y-121612908D01*
X143842470Y-121631642D01*
X143811718Y-121644625D01*
X143804173Y-121648789D01*
X143608614Y-121648789D01*
X143616223Y-121639399D01*
X143616066Y-121639217D01*
X143600906Y-121630740D01*
X143561936Y-121610893D01*
X143501786Y-121580964D01*
X143423083Y-121542240D01*
X143328458Y-121496011D01*
X143220540Y-121443566D01*
X143101956Y-121386192D01*
X142975628Y-121325318D01*
X142346721Y-121022864D01*
X142287646Y-121049503D01*
X142244565Y-121074922D01*
X142194926Y-121112780D01*
X142161357Y-121143356D01*
X142121063Y-121190467D01*
X142081267Y-121248501D01*
X142045849Y-121310262D01*
X142018686Y-121368554D01*
X142003659Y-121416180D01*
X142002297Y-121438444D01*
X141928866Y-121438444D01*
X141933725Y-121416712D01*
X141943790Y-121387975D01*
X141954865Y-121357299D01*
X142002002Y-121251844D01*
X142065892Y-121155062D01*
X142141554Y-121072817D01*
X142224008Y-121010972D01*
X142267774Y-120988880D01*
X142286089Y-120980777D01*
X142301794Y-120974120D01*
X142317241Y-120969809D01*
X142334783Y-120968744D01*
X142356775Y-120971826D01*
X142385568Y-120979956D01*
X142423516Y-120994033D01*
X142472973Y-121014958D01*
X142536290Y-121043631D01*
X142615823Y-121080953D01*
X142713923Y-121127823D01*
X142832944Y-121185143D01*
X142975238Y-121253812D01*
X143032925Y-121281634D01*
X143113196Y-121320325D01*
X143210299Y-121367114D01*
X143314651Y-121417385D01*
X143416673Y-121466523D01*
X143470893Y-121492632D01*
X143718324Y-121611770D01*
X143915504Y-121535356D01*
X144068581Y-121476034D01*
X144308772Y-121476034D01*
X144310153Y-121479493D01*
X144325810Y-121488289D01*
X144364959Y-121508198D01*
X144424614Y-121537760D01*
X144501787Y-121575515D01*
X144593490Y-121620002D01*
X144696738Y-121669760D01*
X144808543Y-121723330D01*
X144821039Y-121729298D01*
X145034138Y-121831068D01*
X145223216Y-121921400D01*
X145390717Y-122001469D01*
X145539082Y-122072447D01*
X145670755Y-122135506D01*
X145788176Y-122191820D01*
X145893790Y-122242560D01*
X145990038Y-122288899D01*
X146079362Y-122332011D01*
X146164206Y-122373068D01*
X146247011Y-122413242D01*
X146330220Y-122453706D01*
X146357841Y-122467155D01*
X146450962Y-122512443D01*
X146535041Y-122553199D01*
X146606603Y-122587750D01*
X146662173Y-122614422D01*
X146698278Y-122631544D01*
X146711426Y-122637444D01*
X146725122Y-122643529D01*
X146761991Y-122660757D01*
X146818782Y-122687585D01*
X146892241Y-122722470D01*
X146979116Y-122763870D01*
X147076153Y-122810242D01*
X147116632Y-122829620D01*
X147224767Y-122881397D01*
X147331159Y-122932308D01*
X147431025Y-122980067D01*
X147519585Y-123022390D01*
X147592055Y-123056989D01*
X147643654Y-123081578D01*
X147649775Y-123084489D01*
X147710852Y-123113604D01*
X147789744Y-123151340D01*
X147877861Y-123193580D01*
X147966615Y-123236212D01*
X148001535Y-123253012D01*
X148107333Y-123303906D01*
X148225766Y-123360818D01*
X148352329Y-123421589D01*
X148482518Y-123484058D01*
X148611828Y-123546067D01*
X148735756Y-123605456D01*
X148849796Y-123660065D01*
X148949445Y-123707734D01*
X149030197Y-123746305D01*
X149071471Y-123765974D01*
X149121719Y-123789966D01*
X149193718Y-123824460D01*
X149282819Y-123867221D01*
X149384370Y-123916015D01*
X149493722Y-123968609D01*
X149606223Y-124022769D01*
X149650410Y-124044056D01*
X149757567Y-124095680D01*
X149858694Y-124144379D01*
X149950117Y-124188386D01*
X150028165Y-124225934D01*
X150089165Y-124255257D01*
X150129444Y-124274586D01*
X150141408Y-124280305D01*
X150182952Y-124306582D01*
X150216704Y-124345480D01*
X150243157Y-124390819D01*
X150302170Y-124476656D01*
X150375811Y-124537976D01*
X150462024Y-124573643D01*
X150558753Y-124582523D01*
X150586414Y-124580180D01*
X150660732Y-124571497D01*
X150711771Y-124567541D01*
X150745374Y-124569676D01*
X150767381Y-124579262D01*
X150783635Y-124597663D01*
X150799976Y-124626241D01*
X150802276Y-124630523D01*
X150827592Y-124702329D01*
X150838016Y-124789827D01*
X150833105Y-124883202D01*
X150817027Y-124958268D01*
X150796455Y-125026625D01*
X150886646Y-125076432D01*
X150952303Y-125112008D01*
X151021113Y-125148149D01*
X151087692Y-125182161D01*
X151146658Y-125211349D01*
X151192626Y-125233020D01*
X151220211Y-125244481D01*
X151224735Y-125245597D01*
X151242258Y-125239380D01*
X151279966Y-125221919D01*
X151332258Y-125195917D01*
X151391657Y-125165070D01*
X151601923Y-125043158D01*
X151805157Y-124904647D01*
X151997662Y-124752886D01*
X152175742Y-124591226D01*
X152335702Y-124423013D01*
X152473846Y-124251599D01*
X152583972Y-124084636D01*
X152679168Y-123899875D01*
X152747392Y-123715905D01*
X152790282Y-123527127D01*
X152809475Y-123327944D01*
X152810029Y-123311650D01*
X152806967Y-123139196D01*
X152785550Y-122983988D01*
X152743758Y-122838934D01*
X152679572Y-122696940D01*
X152595284Y-122557328D01*
X152455641Y-122373399D01*
X152288959Y-122197612D01*
X152096522Y-122030549D01*
X151879612Y-121872792D01*
X151639513Y-121724923D01*
X151377507Y-121587525D01*
X151094879Y-121461178D01*
X150792910Y-121346466D01*
X150472884Y-121243971D01*
X150136084Y-121154274D01*
X149783794Y-121077957D01*
X149417295Y-121015603D01*
X149108113Y-120975417D01*
X148780508Y-120946211D01*
X148429848Y-120929323D01*
X148059615Y-120924624D01*
X147673294Y-120931984D01*
X147274368Y-120951276D01*
X146866321Y-120982370D01*
X146452638Y-121025137D01*
X146036801Y-121079449D01*
X145949602Y-121092297D01*
X145867535Y-121105236D01*
X145774275Y-121120947D01*
X145673830Y-121138653D01*
X145570208Y-121157575D01*
X145467416Y-121176935D01*
X145369460Y-121195956D01*
X145280349Y-121213859D01*
X145204089Y-121229866D01*
X145144689Y-121243198D01*
X145106154Y-121253079D01*
X145092494Y-121258728D01*
X145092494Y-121258729D01*
X145104880Y-121268159D01*
X145138574Y-121288111D01*
X145188737Y-121315852D01*
X145250533Y-121348651D01*
X145264710Y-121356015D01*
X145436618Y-121444985D01*
X145605170Y-121412034D01*
X145789706Y-121378956D01*
X145998847Y-121346844D01*
X146227886Y-121316287D01*
X146472116Y-121287877D01*
X146726831Y-121262205D01*
X146960912Y-121241946D01*
X147051629Y-121236327D01*
X147166791Y-121231738D01*
X147301544Y-121228176D01*
X147451038Y-121225641D01*
X147610421Y-121224133D01*
X147774841Y-121223650D01*
X147939446Y-121224193D01*
X148099386Y-121225759D01*
X148249807Y-121228348D01*
X148385860Y-121231960D01*
X148502691Y-121236593D01*
X148595130Y-121242222D01*
X149010449Y-121281423D01*
X149405701Y-121332747D01*
X149780287Y-121395940D01*
X150133604Y-121470752D01*
X150465052Y-121556932D01*
X150774030Y-121654226D01*
X151059937Y-121762384D01*
X151322172Y-121881154D01*
X151560134Y-122010284D01*
X151773223Y-122149522D01*
X151960836Y-122298617D01*
X152122373Y-122457318D01*
X152257234Y-122625372D01*
X152364817Y-122802528D01*
X152376585Y-122825844D01*
X152438737Y-122973994D01*
X152476892Y-123120412D01*
X152491189Y-123269176D01*
X152481766Y-123424365D01*
X152448760Y-123590056D01*
X152407102Y-123728127D01*
X152330480Y-123910538D01*
X152227914Y-124087179D01*
X152102734Y-124253779D01*
X151958273Y-124406069D01*
X151797861Y-124539776D01*
X151744841Y-124577173D01*
X151618789Y-124662370D01*
X151251967Y-124478847D01*
X150885146Y-124295323D01*
X150874806Y-124240204D01*
X150855589Y-124174473D01*
X150825567Y-124111339D01*
X150790736Y-124062936D01*
X150783933Y-124056282D01*
X150720228Y-124015004D01*
X150639817Y-123986495D01*
X150552293Y-123972248D01*
X150467246Y-123973755D01*
X150394269Y-123992509D01*
X150389172Y-123994831D01*
X150339373Y-124018462D01*
X149514886Y-123604244D01*
X149361486Y-123527136D01*
X149209035Y-123450426D01*
X149060728Y-123375728D01*
X148919761Y-123304655D01*
X148789330Y-123238819D01*
X148672629Y-123179833D01*
X148572854Y-123129310D01*
X148493200Y-123088863D01*
X148441235Y-123062345D01*
X148390478Y-123036461D01*
X148315925Y-122998618D01*
X148219967Y-122950026D01*
X148104998Y-122891893D01*
X147973412Y-122825426D01*
X147827602Y-122751833D01*
X147669960Y-122672323D01*
X147502881Y-122588104D01*
X147328757Y-122500382D01*
X147149981Y-122410367D01*
X147004882Y-122337345D01*
X146830523Y-122249536D01*
X146663491Y-122165254D01*
X146505666Y-122085459D01*
X146358927Y-122011107D01*
X146225154Y-121943157D01*
X146106225Y-121882565D01*
X146004021Y-121830290D01*
X145920421Y-121787288D01*
X145857304Y-121754518D01*
X145816549Y-121732937D01*
X145800037Y-121723503D01*
X145799901Y-121723386D01*
X145790319Y-121698668D01*
X145796156Y-121684760D01*
X145803602Y-121680701D01*
X145819210Y-121682272D01*
X145845377Y-121690543D01*
X145884501Y-121706584D01*
X145938978Y-121731466D01*
X146011207Y-121766257D01*
X146103584Y-121812029D01*
X146218507Y-121869851D01*
X146275632Y-121898776D01*
X146356881Y-121939918D01*
X146461650Y-121992880D01*
X146587267Y-122056314D01*
X146731061Y-122128874D01*
X146890361Y-122209215D01*
X147062496Y-122295988D01*
X147244796Y-122387849D01*
X147434588Y-122483450D01*
X147629201Y-122581445D01*
X147825966Y-122680487D01*
X148022210Y-122779231D01*
X148060161Y-122798322D01*
X148256191Y-122896964D01*
X148453395Y-122996260D01*
X148649085Y-123094852D01*
X148840577Y-123191386D01*
X149025183Y-123284506D01*
X149200218Y-123372855D01*
X149362994Y-123455077D01*
X149510827Y-123529817D01*
X149641030Y-123595719D01*
X149750915Y-123651426D01*
X149837799Y-123695583D01*
X149851314Y-123702468D01*
X150323367Y-123943069D01*
X150407168Y-123918707D01*
X150517594Y-123901302D01*
X150627732Y-123913088D01*
X150732713Y-123952028D01*
X150819051Y-124009924D01*
X150882938Y-124086049D01*
X150924349Y-124176715D01*
X150949017Y-124252386D01*
X151614917Y-124591298D01*
X151694581Y-124536431D01*
X151865494Y-124403573D01*
X152016395Y-124255197D01*
X152145842Y-124093782D01*
X152252394Y-123921805D01*
X152334609Y-123741746D01*
X152391043Y-123556084D01*
X152420257Y-123367297D01*
X152424133Y-123282337D01*
X152423848Y-123205288D01*
X152419881Y-123146209D01*
X152410599Y-123093830D01*
X152394369Y-123036877D01*
X152384049Y-123005832D01*
X152347515Y-122915843D01*
X152296960Y-122814641D01*
X152238164Y-122712629D01*
X152176909Y-122620205D01*
X152149371Y-122583614D01*
X152062080Y-122484922D01*
X151953168Y-122380537D01*
X151828374Y-122275287D01*
X151693438Y-122173997D01*
X151554099Y-122081495D01*
X151547229Y-122077254D01*
X151311414Y-121945939D01*
X151050433Y-121825879D01*
X150766266Y-121717264D01*
X150460891Y-121620284D01*
X150136288Y-121535131D01*
X149794436Y-121461995D01*
X149437313Y-121401067D01*
X149066900Y-121352536D01*
X148685175Y-121316594D01*
X148294118Y-121293432D01*
X147895707Y-121283239D01*
X147491923Y-121286207D01*
X147084744Y-121302526D01*
X146676149Y-121332387D01*
X146268118Y-121375980D01*
X145862629Y-121433496D01*
X145509358Y-121495801D01*
X145420875Y-121512894D01*
X145208897Y-121398780D01*
X145135450Y-121360378D01*
X145068970Y-121327731D01*
X145014558Y-121303183D01*
X144977317Y-121289077D01*
X144964741Y-121286618D01*
X144938223Y-121291054D01*
X144890404Y-121301567D01*
X144828236Y-121316431D01*
X144758674Y-121333921D01*
X144688671Y-121352309D01*
X144625181Y-121369870D01*
X144601189Y-121376864D01*
X144499967Y-121407195D01*
X144423849Y-121430557D01*
X144369752Y-121448035D01*
X144334594Y-121460716D01*
X144315295Y-121469687D01*
X144308772Y-121476034D01*
X144068581Y-121476034D01*
X144112683Y-121458943D01*
X143902579Y-121358058D01*
X143822388Y-121319622D01*
X143743760Y-121282056D01*
X143673973Y-121248829D01*
X143620308Y-121223413D01*
X143604535Y-121215999D01*
X143564091Y-121196868D01*
X143502901Y-121167677D01*
X143426608Y-121131130D01*
X143340855Y-121089929D01*
X143251284Y-121046779D01*
X143238119Y-121040427D01*
X143146083Y-120996115D01*
X143054779Y-120952347D01*
X142970482Y-120912116D01*
X142899465Y-120878416D01*
X142848003Y-120854241D01*
X142844626Y-120852672D01*
X142729610Y-120799314D01*
X142737980Y-120747735D01*
X142739191Y-120743564D01*
X142805890Y-120743564D01*
X142818400Y-120756100D01*
X142852977Y-120778218D01*
X142905038Y-120807294D01*
X142970001Y-120840705D01*
X143007276Y-120858880D01*
X143098685Y-120902653D01*
X143200712Y-120951515D01*
X143301217Y-120999652D01*
X143388061Y-121041249D01*
X143392014Y-121043142D01*
X143472259Y-121081538D01*
X143555568Y-121121326D01*
X143632132Y-121157826D01*
X143692143Y-121186357D01*
X143692475Y-121186514D01*
X143750596Y-121214192D01*
X143826020Y-121250271D01*
X143909655Y-121290395D01*
X143992414Y-121330209D01*
X144005431Y-121336483D01*
X144201132Y-121430840D01*
X144430474Y-121361859D01*
X144517916Y-121335866D01*
X144604903Y-121310551D01*
X144683446Y-121288202D01*
X144745556Y-121271107D01*
X144766076Y-121265723D01*
X144817034Y-121251484D01*
X144854651Y-121238656D01*
X144871926Y-121229675D01*
X144872337Y-121228703D01*
X144859798Y-121220439D01*
X144824020Y-121200091D01*
X144767759Y-121169117D01*
X144693774Y-121128977D01*
X144604821Y-121081130D01*
X144503658Y-121027035D01*
X144393042Y-120968151D01*
X144275732Y-120905937D01*
X144154483Y-120841852D01*
X144032054Y-120777356D01*
X143911201Y-120713908D01*
X143794683Y-120652966D01*
X143685256Y-120595991D01*
X143585678Y-120544440D01*
X143498707Y-120499774D01*
X143427099Y-120463451D01*
X143410601Y-120455186D01*
X143319213Y-120412724D01*
X143250297Y-120387874D01*
X143205408Y-120380329D01*
X143146113Y-120390130D01*
X143076704Y-120416172D01*
X143007259Y-120453444D01*
X142947854Y-120496934D01*
X142924604Y-120519969D01*
X142892950Y-120561933D01*
X142860645Y-120614173D01*
X142832302Y-120668000D01*
X142812536Y-120714725D01*
X142805890Y-120743564D01*
X142739191Y-120743564D01*
X142758250Y-120677925D01*
X142794862Y-120599991D01*
X142841777Y-120524738D01*
X142892954Y-120462969D01*
X142902112Y-120454155D01*
X142990175Y-120388637D01*
X143090433Y-120339966D01*
X143188868Y-120314001D01*
X143210856Y-120311499D01*
X143232083Y-120311771D01*
X143256203Y-120316276D01*
X143286868Y-120326475D01*
X143327732Y-120343825D01*
X143382447Y-120369788D01*
X143454666Y-120405822D01*
X143548043Y-120453386D01*
X143584598Y-120472105D01*
X143674660Y-120518494D01*
X143785170Y-120575811D01*
X143910695Y-120641216D01*
X144045804Y-120711868D01*
X144185066Y-120784928D01*
X144323049Y-120857556D01*
X144445488Y-120922236D01*
X144578645Y-120992576D01*
X144688530Y-121050207D01*
X144777678Y-121096315D01*
X144848628Y-121132089D01*
X144903917Y-121158715D01*
X144946080Y-121177381D01*
X144977657Y-121189273D01*
X145001182Y-121195580D01*
X145019194Y-121197488D01*
X145031754Y-121196584D01*
X145065112Y-121190770D01*
X145120354Y-121180191D01*
X145190691Y-121166183D01*
X145269336Y-121150085D01*
X145297380Y-121144244D01*
X145625429Y-121080899D01*
X145971799Y-121024454D01*
X146339057Y-120974564D01*
X146729770Y-120930881D01*
X147146508Y-120893061D01*
X147180762Y-120890301D01*
X147264887Y-120885046D01*
X147372235Y-120880638D01*
X147498604Y-120877077D01*
X147639795Y-120874362D01*
X147791607Y-120872492D01*
X147949840Y-120871467D01*
X148110294Y-120871284D01*
X148268768Y-120871945D01*
X148421062Y-120873447D01*
X148562977Y-120875791D01*
X148690311Y-120878974D01*
X148798865Y-120882997D01*
X148884438Y-120887859D01*
X148917576Y-120890632D01*
X149356331Y-120942641D01*
X149772039Y-121010932D01*
X150166304Y-121095924D01*
X150540732Y-121198037D01*
X150896927Y-121317692D01*
X151236494Y-121455310D01*
X151445851Y-121553016D01*
X151715520Y-121696111D01*
X151957184Y-121846519D01*
X152171328Y-122004652D01*
X152358437Y-122170926D01*
X152518998Y-122345753D01*
X152653494Y-122529549D01*
X152718918Y-122638914D01*
X152797967Y-122811938D01*
X152850266Y-122995034D01*
X152875735Y-123186107D01*
X152874293Y-123383060D01*
X152845859Y-123583800D01*
X152790353Y-123786228D01*
X152765787Y-123853805D01*
X152679214Y-124041548D01*
X152565690Y-124228676D01*
X152427529Y-124412868D01*
X152267042Y-124591805D01*
X152086542Y-124763166D01*
X151888343Y-124924630D01*
X151674757Y-125073877D01*
X151448098Y-125208588D01*
X151378693Y-125245408D01*
X151224307Y-125325097D01*
X150766911Y-125086699D01*
X150695995Y-125157541D01*
X150622835Y-125217678D01*
X150559123Y-125247585D01*
X150503204Y-125268657D01*
X150447700Y-125296686D01*
X150436880Y-125303353D01*
X150365279Y-125334402D01*
X150279650Y-125347249D01*
X150189534Y-125341117D01*
X150136687Y-125327808D01*
X150054622Y-125287271D01*
X149975652Y-125223710D01*
X149906657Y-125143171D01*
X149880542Y-125102735D01*
X149832508Y-125020531D01*
X148799768Y-124561070D01*
X148333322Y-124353547D01*
X147892910Y-124157605D01*
X147477782Y-123972914D01*
X147087187Y-123799145D01*
X146720377Y-123635968D01*
X146376599Y-123483054D01*
X146055105Y-123340073D01*
X145755143Y-123206696D01*
X145475963Y-123082593D01*
X145216816Y-122967434D01*
X144976950Y-122860891D01*
X144755616Y-122762634D01*
X144552062Y-122672333D01*
X144365540Y-122589658D01*
X144195298Y-122514281D01*
X144040586Y-122445872D01*
X143900654Y-122384102D01*
X143774752Y-122328640D01*
X143662129Y-122279157D01*
X143562036Y-122235325D01*
X143473721Y-122196812D01*
X143396434Y-122163291D01*
X143329425Y-122134431D01*
X143271945Y-122109904D01*
X143223241Y-122089378D01*
X143182566Y-122072526D01*
X143149167Y-122059017D01*
X143122294Y-122048522D01*
X143101198Y-122040712D01*
X143085128Y-122035257D01*
X143073334Y-122031828D01*
X143065065Y-122030094D01*
X143059571Y-122029727D01*
X143056102Y-122030398D01*
X143053908Y-122031776D01*
X143052238Y-122033532D01*
X143050342Y-122035337D01*
X143049491Y-122035915D01*
X142950228Y-122101978D01*
X142840191Y-122185529D01*
X142726531Y-122280860D01*
X142620367Y-122378434D01*
X142459117Y-122551287D01*
X142326171Y-122731755D01*
X142221533Y-122919817D01*
X142145211Y-123115449D01*
X142097212Y-123318628D01*
X142077542Y-123529333D01*
X142086207Y-123747539D01*
X142123214Y-123973225D01*
X142137782Y-124034319D01*
X142207278Y-124249018D01*
X142304246Y-124454215D01*
X142428351Y-124649691D01*
X142579260Y-124835224D01*
X142756638Y-125010593D01*
X142960150Y-125175578D01*
X143189464Y-125329957D01*
X143444245Y-125473509D01*
X143724158Y-125606013D01*
X144028870Y-125727249D01*
X144358047Y-125836995D01*
X144711354Y-125935031D01*
X145088457Y-126021135D01*
X145165470Y-126036661D01*
X145605339Y-126113673D01*
X146064861Y-126175526D01*
X146538463Y-126221990D01*
X147020569Y-126252833D01*
X147505605Y-126267825D01*
X147987997Y-126266733D01*
X148462169Y-126249327D01*
X148922548Y-126215375D01*
X149082969Y-126199152D01*
X149274495Y-126174750D01*
X149485279Y-126141604D01*
X149707159Y-126101344D01*
X149931978Y-126055600D01*
X150151575Y-126006003D01*
X150357791Y-125954181D01*
X150482754Y-125919507D01*
X150769695Y-125828135D01*
X151051108Y-125722584D01*
X151322535Y-125604968D01*
X151579516Y-125477398D01*
X151817590Y-125341985D01*
X152032298Y-125200842D01*
X152091369Y-125157786D01*
X152270535Y-125014438D01*
X152438065Y-124861804D01*
X152589034Y-124704801D01*
X152718513Y-124548348D01*
X152762607Y-124487848D01*
X152806115Y-124429139D01*
X152838355Y-124394567D01*
X152861655Y-124382300D01*
X152878341Y-124390503D01*
X152881129Y-124394503D01*
X152882477Y-124411387D01*
X152883166Y-124454588D01*
X152883221Y-124521118D01*
X152882667Y-124607990D01*
X152881529Y-124712215D01*
X152879833Y-124830806D01*
X152877603Y-124960775D01*
X152875422Y-125072374D01*
X152873164Y-125185505D01*
X152870505Y-125324633D01*
X152867504Y-125486445D01*
X152864218Y-125667631D01*
X152860706Y-125864876D01*
X152857026Y-126074869D01*
X152853236Y-126294297D01*
X152849393Y-126519847D01*
X152845555Y-126748208D01*
X152841782Y-126976067D01*
X152838130Y-127200111D01*
X152837847Y-127217651D01*
X152834464Y-127423964D01*
X152831107Y-127622313D01*
X152827816Y-127810695D01*
X152824630Y-127987106D01*
X152821589Y-128149541D01*
X152818733Y-128295997D01*
X152816101Y-128424470D01*
X152813732Y-128532956D01*
X152811668Y-128619450D01*
X152809946Y-128681948D01*
X152808608Y-128718447D01*
X152807961Y-128727288D01*
X152793665Y-128753819D01*
X152760014Y-128796259D01*
X152710064Y-128851621D01*
X152646868Y-128916916D01*
X152573484Y-128989160D01*
X152492966Y-129065365D01*
X152408370Y-129142544D01*
X152322752Y-129217711D01*
X152239167Y-129287879D01*
X152211835Y-129310002D01*
X152019750Y-129455464D01*
X151838575Y-129575489D01*
X151668917Y-129669700D01*
X151549462Y-129723243D01*
X151493879Y-129744065D01*
X151455604Y-129753956D01*
X151425371Y-129754361D01*
X151395567Y-129747245D01*
X151336034Y-129720356D01*
X151284179Y-129676568D01*
X151254480Y-129641446D01*
X151224584Y-129602921D01*
X151152748Y-129744043D01*
X151092685Y-129849207D01*
X151031158Y-129932774D01*
X151006890Y-129959015D01*
X150975263Y-129988976D01*
X150944462Y-130013101D01*
X150908630Y-130034500D01*
X150861910Y-130056280D01*
X150798444Y-130081548D01*
X150723660Y-130109295D01*
X150377651Y-130226131D01*
X150009220Y-130332547D01*
X149623764Y-130427369D01*
X149226677Y-130509422D01*
X148823355Y-130577529D01*
X148419194Y-130630517D01*
X148249768Y-130648050D01*
X148158237Y-130656502D01*
X148090584Y-130661845D01*
X148041536Y-130664067D01*
X148005821Y-130663155D01*
X147978166Y-130659096D01*
X147953300Y-130651878D01*
X147940875Y-130647314D01*
X147886359Y-130615968D01*
X147827206Y-130564805D01*
X147770309Y-130500958D01*
X147722557Y-130431561D01*
X147709531Y-130407777D01*
X147676433Y-130342651D01*
X147623875Y-130429170D01*
X147563172Y-130516456D01*
X147497766Y-130588299D01*
X147432815Y-130639355D01*
X147407940Y-130652843D01*
X147383895Y-130661647D01*
X147352714Y-130667870D01*
X147309732Y-130671816D01*
X147250280Y-130673790D01*
X147169694Y-130674095D01*
X147092822Y-130673417D01*
X146726013Y-130658675D01*
X146347208Y-130622960D01*
X145954881Y-130566025D01*
X145547503Y-130487621D01*
X145123548Y-130387499D01*
X144806382Y-130301598D01*
X144718564Y-130275761D01*
X144617497Y-130244626D01*
X144507932Y-130209789D01*
X144394617Y-130172846D01*
X144282304Y-130135394D01*
X144175742Y-130099028D01*
X144079682Y-130065346D01*
X143998872Y-130035942D01*
X143938063Y-130012415D01*
X143910231Y-130000432D01*
X143826872Y-129946946D01*
X143748088Y-129868157D01*
X143677780Y-129768064D01*
X143669098Y-129753044D01*
X143622136Y-129669832D01*
X143587441Y-129714164D01*
X143532917Y-129767904D01*
X143470073Y-129804594D01*
X143407788Y-129819150D01*
X143403936Y-129819209D01*
X143311868Y-129807345D01*
X143206618Y-129772882D01*
X143091409Y-129717511D01*
X142969466Y-129642925D01*
X142844012Y-129550818D01*
X142761830Y-129482106D01*
X142712353Y-129435086D01*
X142650873Y-129371318D01*
X142583179Y-129297350D01*
X142515060Y-129219731D01*
X142452308Y-129145009D01*
X142400711Y-129079731D01*
X142376386Y-129046180D01*
X142338616Y-128991108D01*
X142330278Y-128485453D01*
X142328846Y-128394041D01*
X142327127Y-128276460D01*
X142325160Y-128135854D01*
X142322987Y-127975366D01*
X142320648Y-127798138D01*
X142318184Y-127607314D01*
X142315636Y-127406036D01*
X142313043Y-127197448D01*
X142310448Y-126984693D01*
X142307890Y-126770914D01*
X142305908Y-126602071D01*
X142289875Y-125224345D01*
X142210825Y-125121748D01*
X142167368Y-125066152D01*
X142123520Y-125011377D01*
X142087443Y-124967590D01*
X142081430Y-124960525D01*
X142031086Y-124901898D01*
X142037808Y-125063122D01*
X142039006Y-125099055D01*
X142040766Y-125162221D01*
X142043040Y-125250542D01*
X142045780Y-125361945D01*
X142048939Y-125494352D01*
X142052467Y-125645690D01*
X142056319Y-125813882D01*
X142060445Y-125996853D01*
X142064799Y-126192527D01*
X142069331Y-126398830D01*
X142073995Y-126613685D01*
X142078743Y-126835018D01*
X142080180Y-126902533D01*
X142084966Y-127126452D01*
X142089701Y-127345217D01*
X142094333Y-127556681D01*
X142098814Y-127758703D01*
X142103094Y-127949136D01*
X142107124Y-128125838D01*
X142110855Y-128286664D01*
X142114236Y-128429470D01*
X142117220Y-128552111D01*
X142119755Y-128652444D01*
X142121794Y-128728325D01*
X142123285Y-128777609D01*
X142123582Y-128785914D01*
X142126544Y-128872528D01*
X142129002Y-128959923D01*
X142130711Y-129038337D01*
X142131429Y-129098012D01*
X142131437Y-129101711D01*
X142132241Y-129155729D01*
X142136661Y-129195016D01*
X142147893Y-129229326D01*
X142169130Y-129268412D01*
X142203567Y-129322029D01*
X142203625Y-129322118D01*
X142277723Y-129421110D01*
X142374135Y-129528187D01*
X142488445Y-129639402D01*
X142616237Y-129750805D01*
X142753096Y-129858450D01*
X142894605Y-129958387D01*
X142968300Y-130005834D01*
X143227432Y-130153266D01*
X143512805Y-130290041D01*
X143823256Y-130415905D01*
X144157620Y-130530605D01*
X144514732Y-130633887D01*
X144893430Y-130725495D01*
X145292548Y-130805177D01*
X145710923Y-130872678D01*
X146147390Y-130927743D01*
X146600785Y-130970119D01*
X147069945Y-130999552D01*
X147553704Y-131015787D01*
X147598972Y-131016610D01*
X147877287Y-131018755D01*
X148133459Y-131015030D01*
X148374154Y-131004982D01*
X148606037Y-130988154D01*
X148835776Y-130964092D01*
X149070035Y-130932341D01*
X149247884Y-130904019D01*
X149690901Y-130818192D01*
X150115316Y-130712434D01*
X150525137Y-130585472D01*
X150924373Y-130436032D01*
X151317030Y-130262840D01*
X151416538Y-130214746D01*
X151730376Y-130051729D01*
X152015703Y-129885354D01*
X152273176Y-129715191D01*
X152503449Y-129540808D01*
X152693713Y-129374520D01*
X152743037Y-129329403D01*
X152785524Y-129292943D01*
X152816197Y-129269261D01*
X152829287Y-129262256D01*
X152846132Y-129270721D01*
X152841373Y-129294786D01*
X152816852Y-129332455D01*
X152774409Y-129381730D01*
X152715887Y-129440617D01*
X152643126Y-129507118D01*
X152557968Y-129579238D01*
X152478856Y-129642194D01*
X152182542Y-129855252D01*
X151862273Y-130054666D01*
X151520540Y-130239433D01*
X151159832Y-130408555D01*
X150782641Y-130561032D01*
X150391457Y-130695862D01*
X149988771Y-130812047D01*
X149577073Y-130908585D01*
X149158853Y-130984476D01*
X149122770Y-130989990D01*
X148989701Y-131008238D01*
X148839925Y-131025711D01*
X148678896Y-131042006D01*
X148512068Y-131056721D01*
X148344896Y-131069453D01*
X148182834Y-131079799D01*
X148031338Y-131087356D01*
X147895862Y-131091721D01*
X147781860Y-131092491D01*
X147745043Y-131091749D01*
X147711303Y-131090676D01*
X147653491Y-131088772D01*
X147576834Y-131086211D01*
X147486554Y-131083168D01*
X147387877Y-131079818D01*
X147341985Y-131078253D01*
X146837528Y-131053559D01*
X146350494Y-131014661D01*
X145882003Y-130961771D01*
X145433174Y-130895104D01*
X145005126Y-130814871D01*
X144598978Y-130721286D01*
X144215850Y-130614561D01*
X143856862Y-130494909D01*
X143523132Y-130362544D01*
X143480574Y-130343933D01*
X143240215Y-130229477D01*
X143014619Y-130105755D01*
X142805917Y-129974403D01*
X142616238Y-129837056D01*
X142447713Y-129695348D01*
X142302471Y-129550915D01*
X142182641Y-129405393D01*
X142106201Y-129288763D01*
X142098617Y-129274379D01*
X142091963Y-129257805D01*
X142086125Y-129236941D01*
X142080987Y-129209690D01*
X142076434Y-129173953D01*
X142072350Y-129127633D01*
X142068620Y-129068631D01*
X142065129Y-128994848D01*
X142061762Y-128904187D01*
X142058402Y-128794549D01*
X142054936Y-128663836D01*
X142051246Y-128509949D01*
X142047218Y-128330792D01*
X142043097Y-128141021D01*
X142038525Y-127929521D01*
X142033672Y-127706973D01*
X142028604Y-127476316D01*
X142023388Y-127240486D01*
X142018091Y-127002421D01*
X142012777Y-126765057D01*
X142007515Y-126531333D01*
X142002371Y-126304185D01*
X141997411Y-126086551D01*
X141992701Y-125881368D01*
X141988309Y-125691573D01*
X141984300Y-125520103D01*
X141980741Y-125369895D01*
X141977698Y-125243888D01*
X141975821Y-125168076D01*
X141965938Y-124774704D01*
X141996717Y-124779674D01*
X142017900Y-124793405D01*
X142054001Y-124828942D01*
X142103047Y-124884136D01*
X142163066Y-124956835D01*
X142187832Y-124987961D01*
X142348167Y-125191278D01*
X142357048Y-125574228D01*
X142358404Y-125640666D01*
X142360013Y-125733093D01*
X142361844Y-125848775D01*
X142363864Y-125984978D01*
X142366040Y-126138968D01*
X142368339Y-126308010D01*
X142370730Y-126489372D01*
X142373178Y-126680317D01*
X142375653Y-126878114D01*
X142378121Y-127080027D01*
X142380549Y-127283323D01*
X142382905Y-127485267D01*
X142385157Y-127683125D01*
X142387272Y-127874164D01*
X142389218Y-128055650D01*
X142390961Y-128224848D01*
X142392469Y-128379024D01*
X142393710Y-128515444D01*
X142394651Y-128631374D01*
X142395259Y-128724081D01*
X142395503Y-128790830D01*
X142395504Y-128802050D01*
X142395360Y-128964751D01*
X142471644Y-129065869D01*
X142530752Y-129138960D01*
X142604324Y-129221948D01*
X142686316Y-129308680D01*
X142770682Y-129393008D01*
X142851379Y-129468780D01*
X142922362Y-129529845D01*
X142944985Y-129547505D01*
X143083693Y-129639629D01*
X143222475Y-129708224D01*
X143308660Y-129738431D01*
X143383334Y-129753091D01*
X143442441Y-129746433D01*
X143492573Y-129716332D01*
X143537505Y-129664621D01*
X143584772Y-129598802D01*
X143547665Y-129485492D01*
X143524091Y-129411704D01*
X143503902Y-129343499D01*
X143486154Y-129276280D01*
X143469906Y-129205449D01*
X143454214Y-129126408D01*
X143438135Y-129034560D01*
X143420726Y-128925308D01*
X143401046Y-128794053D01*
X143389174Y-128712631D01*
X143383805Y-128658684D01*
X143379286Y-128579639D01*
X143375619Y-128479702D01*
X143372803Y-128363076D01*
X143370840Y-128233965D01*
X143369731Y-128096573D01*
X143369664Y-128059531D01*
X143423932Y-128059531D01*
X143429245Y-128298276D01*
X143441439Y-128529402D01*
X143460696Y-128748859D01*
X143487203Y-128952595D01*
X143488643Y-128961794D01*
X143505174Y-129057346D01*
X143524205Y-129152229D01*
X143544650Y-129242457D01*
X143565425Y-129324045D01*
X143585443Y-129393007D01*
X143603621Y-129445359D01*
X143618873Y-129477114D01*
X143630115Y-129484287D01*
X143630739Y-129483750D01*
X143641097Y-129463874D01*
X143656394Y-129423199D01*
X143673902Y-129369219D01*
X143680339Y-129347562D01*
X143734530Y-129136626D01*
X143780023Y-128906924D01*
X143816980Y-128656886D01*
X143845566Y-128384941D01*
X143865943Y-128089518D01*
X143878274Y-127769047D01*
X143882724Y-127421956D01*
X143882744Y-127400860D01*
X143882381Y-127223281D01*
X143881018Y-127071138D01*
X143878425Y-126940565D01*
X143874370Y-126827694D01*
X143868622Y-126728657D01*
X143860950Y-126639589D01*
X143851124Y-126556623D01*
X143838912Y-126475890D01*
X143824083Y-126393524D01*
X143821898Y-126382221D01*
X143799032Y-126282983D01*
X143774709Y-126213018D01*
X143748830Y-126172315D01*
X143721294Y-126160865D01*
X143692002Y-126178658D01*
X143660855Y-126225685D01*
X143627751Y-126301937D01*
X143606983Y-126361484D01*
X143563893Y-126515324D01*
X143526209Y-126693957D01*
X143494113Y-126893331D01*
X143467792Y-127109396D01*
X143447429Y-127338100D01*
X143433208Y-127575391D01*
X143425314Y-127817219D01*
X143423932Y-128059531D01*
X143369664Y-128059531D01*
X143369476Y-127955104D01*
X143370077Y-127813763D01*
G37*
D11*
%TO.C,YELLOW1*%
X135480000Y-58940000D02*
X135480000Y-66912000D01*
X135480000Y-73140000D02*
X135480000Y-70168000D01*
X123980000Y-66468000D02*
X123980000Y-70966000D01*
X123980000Y-63212000D02*
X123980000Y-58940000D01*
X123980000Y-73140000D02*
X123980000Y-72914000D01*
X123980000Y-58940000D02*
X126480000Y-58940000D01*
X126480000Y-58940000D02*
X132480000Y-58940000D01*
X132480000Y-58940000D02*
X135480000Y-58940000D01*
X135480000Y-73140000D02*
X123980000Y-73140000D01*
X132480000Y-58940000D02*
X132480000Y-55440000D01*
X132480000Y-55440000D02*
X126480000Y-55440000D01*
X126480000Y-55440000D02*
X126480000Y-58940000D01*
D12*
X123330000Y-60140000D02*
G75*
G03*
X123330000Y-60140000I-100000J0D01*
G01*
D11*
%TO.C,RED1*%
X121570000Y-58940000D02*
X121570000Y-66912000D01*
X121570000Y-73140000D02*
X121570000Y-70168000D01*
X110070000Y-66468000D02*
X110070000Y-70966000D01*
X110070000Y-63212000D02*
X110070000Y-58940000D01*
X110070000Y-73140000D02*
X110070000Y-72914000D01*
X110070000Y-58940000D02*
X112570000Y-58940000D01*
X112570000Y-58940000D02*
X118570000Y-58940000D01*
X118570000Y-58940000D02*
X121570000Y-58940000D01*
X121570000Y-73140000D02*
X110070000Y-73140000D01*
X118570000Y-58940000D02*
X118570000Y-55440000D01*
X118570000Y-55440000D02*
X112570000Y-55440000D01*
X112570000Y-55440000D02*
X112570000Y-58940000D01*
D12*
X109420000Y-60140000D02*
G75*
G03*
X109420000Y-60140000I-100000J0D01*
G01*
D11*
%TO.C,KICK1*%
X171100000Y-58940000D02*
X171100000Y-66912000D01*
X171100000Y-73140000D02*
X171100000Y-70168000D01*
X159600000Y-66468000D02*
X159600000Y-70966000D01*
X159600000Y-63212000D02*
X159600000Y-58940000D01*
X159600000Y-73140000D02*
X159600000Y-72914000D01*
X159600000Y-58940000D02*
X162100000Y-58940000D01*
X162100000Y-58940000D02*
X168100000Y-58940000D01*
X168100000Y-58940000D02*
X171100000Y-58940000D01*
X171100000Y-73140000D02*
X159600000Y-73140000D01*
X168100000Y-58940000D02*
X168100000Y-55440000D01*
X168100000Y-55440000D02*
X162100000Y-55440000D01*
X162100000Y-55440000D02*
X162100000Y-58940000D01*
D12*
X158950000Y-60140000D02*
G75*
G03*
X158950000Y-60140000I-100000J0D01*
G01*
D11*
%TO.C,GREEN1*%
X199040000Y-58940000D02*
X199040000Y-66912000D01*
X199040000Y-73140000D02*
X199040000Y-70168000D01*
X187540000Y-66468000D02*
X187540000Y-70966000D01*
X187540000Y-63212000D02*
X187540000Y-58940000D01*
X187540000Y-73140000D02*
X187540000Y-72914000D01*
X187540000Y-58940000D02*
X190040000Y-58940000D01*
X190040000Y-58940000D02*
X196040000Y-58940000D01*
X196040000Y-58940000D02*
X199040000Y-58940000D01*
X199040000Y-73140000D02*
X187540000Y-73140000D01*
X196040000Y-58940000D02*
X196040000Y-55440000D01*
X196040000Y-55440000D02*
X190040000Y-55440000D01*
X190040000Y-55440000D02*
X190040000Y-58940000D01*
D12*
X186890000Y-60140000D02*
G75*
G03*
X186890000Y-60140000I-100000J0D01*
G01*
D11*
%TO.C,BLUE1*%
X185070000Y-58940000D02*
X185070000Y-66912000D01*
X185070000Y-73140000D02*
X185070000Y-70168000D01*
X173570000Y-66468000D02*
X173570000Y-70966000D01*
X173570000Y-63212000D02*
X173570000Y-58940000D01*
X173570000Y-73140000D02*
X173570000Y-72914000D01*
X173570000Y-58940000D02*
X176070000Y-58940000D01*
X176070000Y-58940000D02*
X182070000Y-58940000D01*
X182070000Y-58940000D02*
X185070000Y-58940000D01*
X185070000Y-73140000D02*
X173570000Y-73140000D01*
X182070000Y-58940000D02*
X182070000Y-55440000D01*
X182070000Y-55440000D02*
X176070000Y-55440000D01*
X176070000Y-55440000D02*
X176070000Y-58940000D01*
D12*
X172920000Y-60140000D02*
G75*
G03*
X172920000Y-60140000I-100000J0D01*
G01*
D10*
%TO.C,U1*%
X138430000Y-59690000D02*
X138430000Y-90170000D01*
X138430000Y-59690000D02*
X143510000Y-59690000D01*
X143510000Y-59690000D02*
X143510000Y-57150000D01*
X143510000Y-57150000D02*
X151130000Y-57150000D01*
X151130000Y-57150000D02*
X151130000Y-59690000D01*
X151130000Y-59690000D02*
X156210000Y-59690000D01*
X156210000Y-59690000D02*
X156210000Y-90170000D01*
X156210000Y-90170000D02*
X138430000Y-90170000D01*
D13*
%TO.C,SW-X1*%
X169029084Y-132080000D02*
X179070000Y-142120916D01*
X179070000Y-142120916D02*
X189110916Y-132080000D01*
X189110916Y-132080000D02*
X179070000Y-122039084D01*
X179070000Y-122039084D02*
X169029084Y-132080000D01*
%TO.C,SW-UP1*%
X105644084Y-104140000D02*
X115685000Y-114180916D01*
X115685000Y-114180916D02*
X125725916Y-104140000D01*
X125725916Y-104140000D02*
X115685000Y-94099084D01*
X115685000Y-94099084D02*
X105644084Y-104140000D01*
%TO.C,SW-TRI1*%
X169029084Y-104140000D02*
X179070000Y-114180916D01*
X179070000Y-114180916D02*
X189110916Y-104140000D01*
X189110916Y-104140000D02*
X179070000Y-94099084D01*
X179070000Y-94099084D02*
X169029084Y-104140000D01*
%TO.C,SW-START1*%
X91960000Y-75450000D02*
X91960000Y-89650000D01*
X91960000Y-89650000D02*
X106160000Y-89650000D01*
X106160000Y-89650000D02*
X106160000Y-75450000D01*
X106160000Y-75450000D02*
X91960000Y-75450000D01*
%TO.C,SW-SQR1*%
X155059084Y-118110000D02*
X165100000Y-128150916D01*
X165100000Y-128150916D02*
X175140916Y-118110000D01*
X175140916Y-118110000D02*
X165100000Y-108069084D01*
X165100000Y-108069084D02*
X155059084Y-118110000D01*
%TO.C,SW-RT1*%
X119499084Y-118110000D02*
X129540000Y-128150916D01*
X129540000Y-128150916D02*
X139580916Y-118110000D01*
X139580916Y-118110000D02*
X129540000Y-108069084D01*
X129540000Y-108069084D02*
X119499084Y-118110000D01*
%TO.C,SW-LT1*%
X91559084Y-118110000D02*
X101600000Y-128150916D01*
X101600000Y-128150916D02*
X111640916Y-118110000D01*
X111640916Y-118110000D02*
X101600000Y-108069084D01*
X101600000Y-108069084D02*
X91559084Y-118110000D01*
%TO.C,SW-HOME1*%
X140220000Y-94500000D02*
X140220000Y-108700000D01*
X140220000Y-108700000D02*
X154420000Y-108700000D01*
X154420000Y-108700000D02*
X154420000Y-94500000D01*
X154420000Y-94500000D02*
X140220000Y-94500000D01*
%TO.C,SW-DN1*%
X105529084Y-132080000D02*
X115570000Y-142120916D01*
X115570000Y-142120916D02*
X125610916Y-132080000D01*
X125610916Y-132080000D02*
X115570000Y-122039084D01*
X115570000Y-122039084D02*
X105529084Y-132080000D01*
%TO.C,SW-CIR1*%
X182999084Y-118110000D02*
X193040000Y-128150916D01*
X193040000Y-128150916D02*
X203080916Y-118110000D01*
X203080916Y-118110000D02*
X193040000Y-108069084D01*
X193040000Y-108069084D02*
X182999084Y-118110000D01*
%TO.C,POT-G1*%
X187970000Y-84885000D02*
X187970000Y-75115000D01*
X187970000Y-75115000D02*
X193040000Y-75115000D01*
X187970000Y-84885000D02*
X193040000Y-84885000D01*
X193040000Y-84885000D02*
X193040000Y-75115000D01*
%TO.C,POT-K1*%
X160030000Y-84885000D02*
X160030000Y-75115000D01*
X160030000Y-75115000D02*
X165100000Y-75115000D01*
X160030000Y-84885000D02*
X165100000Y-84885000D01*
X165100000Y-84885000D02*
X165100000Y-75115000D01*
%TO.C,POT-R1*%
X110500000Y-84885000D02*
X110500000Y-75115000D01*
X110500000Y-75115000D02*
X115570000Y-75115000D01*
X110500000Y-84885000D02*
X115570000Y-84885000D01*
X115570000Y-84885000D02*
X115570000Y-75115000D01*
%TO.C,POT-Y1*%
X124470000Y-84885000D02*
X124470000Y-75115000D01*
X124470000Y-75115000D02*
X129540000Y-75115000D01*
X124470000Y-84885000D02*
X129540000Y-84885000D01*
X129540000Y-84885000D02*
X129540000Y-75115000D01*
%TO.C,POT-B1*%
X174000000Y-84885000D02*
X174000000Y-75115000D01*
X174000000Y-75115000D02*
X179070000Y-75115000D01*
X174000000Y-84885000D02*
X179070000Y-84885000D01*
X179070000Y-84885000D02*
X179070000Y-75115000D01*
%TD*%
M02*
