%TF.GenerationSoftware,KiCad,Pcbnew,6.0.2+dfsg-1*%
%TF.CreationDate,2023-07-31T10:29:00-05:00*%
%TF.ProjectId,DrumBrain,4472756d-4272-4616-996e-2e6b69636164,rev?*%
%TF.SameCoordinates,Original*%
%TF.FileFunction,Copper,L2,Bot*%
%TF.FilePolarity,Positive*%
%FSLAX46Y46*%
G04 Gerber Fmt 4.6, Leading zero omitted, Abs format (unit mm)*
G04 Created by KiCad (PCBNEW 6.0.2+dfsg-1) date 2023-07-31 10:29:00*
%MOMM*%
%LPD*%
G01*
G04 APERTURE LIST*
%TA.AperFunction,ComponentPad*%
%ADD10O,2.616000X1.308000*%
%TD*%
%TA.AperFunction,ComponentPad*%
%ADD11O,1.008000X2.016000*%
%TD*%
%TA.AperFunction,ComponentPad*%
%ADD12O,1.308000X2.616000*%
%TD*%
%TA.AperFunction,ComponentPad*%
%ADD13C,5.600000*%
%TD*%
%TA.AperFunction,ComponentPad*%
%ADD14R,1.600000X1.600000*%
%TD*%
%TA.AperFunction,ComponentPad*%
%ADD15C,1.600000*%
%TD*%
%TA.AperFunction,ComponentPad*%
%ADD16C,2.500000*%
%TD*%
%TA.AperFunction,ComponentPad*%
%ADD17C,1.440000*%
%TD*%
%TA.AperFunction,ViaPad*%
%ADD18C,0.800000*%
%TD*%
%TA.AperFunction,Conductor*%
%ADD19C,0.250000*%
%TD*%
%TA.AperFunction,Conductor*%
%ADD20C,1.000000*%
%TD*%
G04 APERTURE END LIST*
D10*
%TO.P,YELLOW1,1*%
%TO.N,Earth*%
X129480000Y-60640000D03*
D11*
%TO.P,YELLOW1,2*%
%TO.N,unconnected-(YELLOW1-Pad2)*%
X134680000Y-68540000D03*
D12*
%TO.P,YELLOW1,3*%
%TO.N,unconnected-(YELLOW1-Pad3)*%
X132080000Y-67540000D03*
D10*
%TO.P,YELLOW1,4*%
%TO.N,Net-(YELLOW1-Pad4)*%
X125380000Y-71940000D03*
D11*
%TO.P,YELLOW1,5*%
X124880000Y-64840000D03*
%TD*%
D10*
%TO.P,RED1,1*%
%TO.N,Earth*%
X115570000Y-60640000D03*
D11*
%TO.P,RED1,2*%
%TO.N,unconnected-(RED1-Pad2)*%
X120770000Y-68540000D03*
D12*
%TO.P,RED1,3*%
%TO.N,unconnected-(RED1-Pad3)*%
X118170000Y-67540000D03*
D10*
%TO.P,RED1,4*%
%TO.N,Net-(RED1-Pad4)*%
X111470000Y-71940000D03*
D11*
%TO.P,RED1,5*%
X110970000Y-64840000D03*
%TD*%
D10*
%TO.P,KICK1,1*%
%TO.N,Earth*%
X165100000Y-60640000D03*
D11*
%TO.P,KICK1,2*%
%TO.N,unconnected-(KICK1-Pad2)*%
X170300000Y-68540000D03*
D12*
%TO.P,KICK1,3*%
%TO.N,unconnected-(KICK1-Pad3)*%
X167700000Y-67540000D03*
D10*
%TO.P,KICK1,4*%
%TO.N,Net-(KICK1-Pad4)*%
X161000000Y-71940000D03*
D11*
%TO.P,KICK1,5*%
X160500000Y-64840000D03*
%TD*%
D10*
%TO.P,GREEN1,1*%
%TO.N,Earth*%
X193040000Y-60640000D03*
D11*
%TO.P,GREEN1,2*%
%TO.N,unconnected-(GREEN1-Pad2)*%
X198240000Y-68540000D03*
D12*
%TO.P,GREEN1,3*%
%TO.N,unconnected-(GREEN1-Pad3)*%
X195640000Y-67540000D03*
D10*
%TO.P,GREEN1,4*%
%TO.N,Net-(GREEN1-Pad4)*%
X188940000Y-71940000D03*
D11*
%TO.P,GREEN1,5*%
X188440000Y-64840000D03*
%TD*%
D10*
%TO.P,BLUE1,1*%
%TO.N,Earth*%
X179070000Y-60640000D03*
D11*
%TO.P,BLUE1,2*%
%TO.N,unconnected-(BLUE1-Pad2)*%
X184270000Y-68540000D03*
D12*
%TO.P,BLUE1,3*%
%TO.N,unconnected-(BLUE1-Pad3)*%
X181670000Y-67540000D03*
D10*
%TO.P,BLUE1,4*%
%TO.N,Net-(BLUE1-Pad4)*%
X174970000Y-71940000D03*
D11*
%TO.P,BLUE1,5*%
X174470000Y-64840000D03*
%TD*%
D13*
%TO.P,,1*%
%TO.N,N/C*%
X147320000Y-137160000D03*
%TD*%
%TO.P,,1*%
%TO.N,N/C*%
X199390000Y-99060000D03*
%TD*%
%TO.P,M3,1*%
%TO.N,N/C*%
X92710000Y-99060000D03*
%TD*%
D14*
%TO.P,U1,1,TX*%
%TO.N,unconnected-(U1-Pad1)*%
X139700000Y-60960000D03*
D15*
%TO.P,U1,2,RX*%
%TO.N,unconnected-(U1-Pad2)*%
X139700000Y-63500000D03*
%TO.P,U1,3,GND*%
%TO.N,Earth*%
X139700000Y-66040000D03*
%TO.P,U1,4,GND*%
X139700000Y-68580000D03*
%TO.P,U1,5,SDA*%
%TO.N,Net-(SW-TRI1-Pad2)*%
X139700000Y-71120000D03*
%TO.P,U1,6,SCL*%
%TO.N,Net-(SW-SQR1-Pad2)*%
X139700000Y-73660000D03*
%TO.P,U1,7,D4*%
%TO.N,Net-(SW-CIR1-Pad2)*%
X139700000Y-76200000D03*
%TO.P,U1,8,C6*%
%TO.N,Net-(SW-X1-Pad2)*%
X139700000Y-78740000D03*
%TO.P,U1,9,D7*%
%TO.N,Net-(SW-UP1-Pad2)*%
X139700000Y-81280000D03*
%TO.P,U1,10,E6*%
%TO.N,Net-(SW-LT1-Pad2)*%
X139700000Y-83820000D03*
%TO.P,U1,11,B4*%
%TO.N,Net-(SW-RT1-Pad2)*%
X139700000Y-86360000D03*
%TO.P,U1,12,B5*%
%TO.N,Net-(SW-DN1-Pad2)*%
X139700000Y-88900000D03*
%TO.P,U1,13,B6*%
%TO.N,Net-(POT-K1-Pad2)*%
X154940000Y-88900000D03*
%TO.P,U1,14,B2*%
%TO.N,unconnected-(U1-Pad14)*%
X154940000Y-86360000D03*
%TO.P,U1,15,B3*%
%TO.N,Net-(SW-START1-Pad2)*%
X154940000Y-83820000D03*
%TO.P,U1,16,B1*%
%TO.N,Net-(SW-HOME1-Pad2)*%
X154940000Y-81280000D03*
%TO.P,U1,17,F7*%
%TO.N,Net-(POT-R1-Pad2)*%
X154940000Y-78740000D03*
%TO.P,U1,18,F6*%
%TO.N,Net-(POT-Y1-Pad2)*%
X154940000Y-76200000D03*
%TO.P,U1,19,F5*%
%TO.N,Net-(POT-B1-Pad2)*%
X154940000Y-73660000D03*
%TO.P,U1,20,F4*%
%TO.N,Net-(POT-G1-Pad2)*%
X154940000Y-71120000D03*
%TO.P,U1,21,VCC*%
%TO.N,unconnected-(U1-Pad21)*%
X154940000Y-68580000D03*
%TO.P,U1,22,RST*%
%TO.N,unconnected-(U1-Pad22)*%
X154940000Y-66040000D03*
%TO.P,U1,23,GND*%
%TO.N,Earth*%
X154940000Y-63500000D03*
%TO.P,U1,24,RAW*%
%TO.N,unconnected-(U1-Pad24)*%
X154940000Y-60960000D03*
%TD*%
D16*
%TO.P,SW-X1,1,1*%
%TO.N,Earth*%
X174579872Y-132978026D03*
%TO.P,SW-X1,2,2*%
%TO.N,Net-(SW-X1-Pad2)*%
X177273949Y-126691846D03*
%TD*%
%TO.P,SW-UP1,1,1*%
%TO.N,Earth*%
X111194872Y-105038026D03*
%TO.P,SW-UP1,2,2*%
%TO.N,Net-(SW-UP1-Pad2)*%
X113888949Y-98751846D03*
%TD*%
%TO.P,SW-TRI1,1,1*%
%TO.N,Earth*%
X174579872Y-105038026D03*
%TO.P,SW-TRI1,2,2*%
%TO.N,Net-(SW-TRI1-Pad2)*%
X177273949Y-98751846D03*
%TD*%
%TO.P,SW-START1,1,1*%
%TO.N,Earth*%
X95250000Y-80010000D03*
%TO.P,SW-START1,2,2*%
%TO.N,Net-(SW-START1-Pad2)*%
X101600000Y-77470000D03*
%TD*%
%TO.P,SW-SQR1,1,1*%
%TO.N,Earth*%
X160609872Y-119008026D03*
%TO.P,SW-SQR1,2,2*%
%TO.N,Net-(SW-SQR1-Pad2)*%
X163303949Y-112721846D03*
%TD*%
%TO.P,SW-RT1,1,1*%
%TO.N,Earth*%
X125049872Y-119008026D03*
%TO.P,SW-RT1,2,2*%
%TO.N,Net-(SW-RT1-Pad2)*%
X127743949Y-112721846D03*
%TD*%
%TO.P,SW-LT1,1,1*%
%TO.N,Earth*%
X97109872Y-119008026D03*
%TO.P,SW-LT1,2,2*%
%TO.N,Net-(SW-LT1-Pad2)*%
X99803949Y-112721846D03*
%TD*%
%TO.P,SW-HOME1,1,1*%
%TO.N,Earth*%
X143510000Y-99060000D03*
%TO.P,SW-HOME1,2,2*%
%TO.N,Net-(SW-HOME1-Pad2)*%
X149860000Y-96520000D03*
%TD*%
%TO.P,SW-DN1,1,1*%
%TO.N,Earth*%
X111079872Y-132978026D03*
%TO.P,SW-DN1,2,2*%
%TO.N,Net-(SW-DN1-Pad2)*%
X113773949Y-126691846D03*
%TD*%
%TO.P,SW-CIR1,1,1*%
%TO.N,Earth*%
X188549872Y-119008026D03*
%TO.P,SW-CIR1,2,2*%
%TO.N,Net-(SW-CIR1-Pad2)*%
X191243949Y-112721846D03*
%TD*%
D17*
%TO.P,POT-G1,1,1*%
%TO.N,Net-(GREEN1-Pad4)*%
X190500000Y-77460000D03*
%TO.P,POT-G1,2,2*%
%TO.N,Net-(POT-G1-Pad2)*%
X190500000Y-80000000D03*
%TO.P,POT-G1,3,3*%
%TO.N,unconnected-(POT-G1-Pad3)*%
X190500000Y-82540000D03*
%TD*%
%TO.P,POT-K1,1,1*%
%TO.N,Net-(KICK1-Pad4)*%
X162560000Y-77460000D03*
%TO.P,POT-K1,2,2*%
%TO.N,Net-(POT-K1-Pad2)*%
X162560000Y-80000000D03*
%TO.P,POT-K1,3,3*%
%TO.N,unconnected-(POT-K1-Pad3)*%
X162560000Y-82540000D03*
%TD*%
%TO.P,POT-R1,1,1*%
%TO.N,Net-(RED1-Pad4)*%
X113030000Y-77460000D03*
%TO.P,POT-R1,2,2*%
%TO.N,Net-(POT-R1-Pad2)*%
X113030000Y-80000000D03*
%TO.P,POT-R1,3,3*%
%TO.N,unconnected-(POT-R1-Pad3)*%
X113030000Y-82540000D03*
%TD*%
%TO.P,POT-Y1,1,1*%
%TO.N,Net-(YELLOW1-Pad4)*%
X127000000Y-77460000D03*
%TO.P,POT-Y1,2,2*%
%TO.N,Net-(POT-Y1-Pad2)*%
X127000000Y-80000000D03*
%TO.P,POT-Y1,3,3*%
%TO.N,unconnected-(POT-Y1-Pad3)*%
X127000000Y-82540000D03*
%TD*%
%TO.P,POT-B1,1,1*%
%TO.N,Net-(BLUE1-Pad4)*%
X176530000Y-77460000D03*
%TO.P,POT-B1,2,2*%
%TO.N,Net-(POT-B1-Pad2)*%
X176530000Y-80000000D03*
%TO.P,POT-B1,3,3*%
%TO.N,unconnected-(POT-B1-Pad3)*%
X176530000Y-82540000D03*
%TD*%
D18*
%TO.N,Net-(SW-UP1-Pad2)*%
X133350000Y-85090000D03*
%TD*%
D19*
%TO.N,Net-(SW-TRI1-Pad2)*%
X139700000Y-71120000D02*
X153815489Y-85235489D01*
X163757592Y-85235489D02*
X177273949Y-98751846D01*
X153815489Y-85235489D02*
X163757592Y-85235489D01*
%TO.N,Net-(SW-SQR1-Pad2)*%
X139700000Y-73660000D02*
X153815489Y-87775489D01*
X153815489Y-87775489D02*
X155405789Y-87775489D01*
X155405789Y-87775489D02*
X163303949Y-95673649D01*
X163303949Y-95673649D02*
X163303949Y-112721846D01*
D20*
%TO.N,Earth*%
X111194872Y-105038026D02*
X109944873Y-106288025D01*
X109944873Y-108674873D02*
X120278026Y-119008026D01*
X109944873Y-106288025D02*
X109944873Y-108674873D01*
X120278026Y-119008026D02*
X125049872Y-119008026D01*
X97109872Y-119008026D02*
X95859873Y-120258025D01*
X105038026Y-132978026D02*
X111079872Y-132978026D01*
X95859873Y-120258025D02*
X95859873Y-123799873D01*
X95859873Y-123799873D02*
X105038026Y-132978026D01*
X200660000Y-78740000D02*
X199390000Y-80010000D01*
X200660000Y-63500000D02*
X200660000Y-78740000D01*
X193040000Y-60640000D02*
X197800000Y-60640000D01*
X197800000Y-60640000D02*
X200660000Y-63500000D01*
X199390000Y-80010000D02*
X199311589Y-80010000D01*
X199311589Y-80010000D02*
X174579872Y-104741717D01*
X174579872Y-104741717D02*
X174579872Y-105038026D01*
X179070000Y-60640000D02*
X193040000Y-60640000D01*
D19*
%TO.N,Net-(SW-X1-Pad2)*%
X139700000Y-78740000D02*
X154940000Y-93980000D01*
X154940000Y-116901295D02*
X165038705Y-127000000D01*
X154940000Y-93980000D02*
X154940000Y-116901295D01*
X165100000Y-127000000D02*
X165408154Y-126691846D01*
X165038705Y-127000000D02*
X165100000Y-127000000D01*
X165408154Y-126691846D02*
X177273949Y-126691846D01*
%TO.N,Net-(SW-CIR1-Pad2)*%
X157480000Y-93980000D02*
X157480000Y-115570000D01*
X165872909Y-115570000D02*
X168721063Y-112721846D01*
X139700000Y-76200000D02*
X157480000Y-93980000D01*
X157480000Y-115570000D02*
X165872909Y-115570000D01*
X168721063Y-112721846D02*
X191243949Y-112721846D01*
%TO.N,Net-(SW-UP1-Pad2)*%
X133350000Y-85090000D02*
X137160000Y-81280000D01*
X137160000Y-81280000D02*
X139700000Y-81280000D01*
D20*
%TO.N,Earth*%
X95604521Y-88545479D02*
X95604521Y-89447675D01*
X95604521Y-80364521D02*
X95604521Y-88545479D01*
X95604521Y-88545479D02*
X97109872Y-90050830D01*
X97109872Y-90050830D02*
X97109872Y-119008026D01*
X95250000Y-80010000D02*
X95604521Y-80364521D01*
X95604521Y-89447675D02*
X111194872Y-105038026D01*
D19*
X125049872Y-118893026D02*
X125049872Y-119008026D01*
D20*
X100650000Y-60640000D02*
X95250000Y-66040000D01*
X115570000Y-60640000D02*
X100650000Y-60640000D01*
X95250000Y-66040000D02*
X95250000Y-80010000D01*
X165100000Y-60640000D02*
X179070000Y-60640000D01*
X154940000Y-63500000D02*
X157480000Y-63500000D01*
X160340000Y-60640000D02*
X165100000Y-60640000D01*
X157480000Y-63500000D02*
X160340000Y-60640000D01*
X144780000Y-66040000D02*
X147320000Y-63500000D01*
X147320000Y-63500000D02*
X154940000Y-63500000D01*
X139700000Y-66040000D02*
X144780000Y-66040000D01*
X129480000Y-60640000D02*
X115570000Y-60640000D01*
X139700000Y-66040000D02*
X134300000Y-60640000D01*
X134300000Y-60640000D02*
X129480000Y-60640000D01*
X139700000Y-66040000D02*
X139700000Y-68580000D01*
%TD*%
M02*
