M48
; DRILL file {KiCad 6.0.2+dfsg-1} date Mon 31 Jul 2023 10:29:02 AM CDT
; FORMAT={-:-/ absolute / inch / decimal}
; #@! TF.CreationDate,2023-07-31T10:29:02-05:00
; #@! TF.GenerationSoftware,Kicad,Pcbnew,6.0.2+dfsg-1
; #@! TF.FileFunction,Plated,1,2,PTH
FMAT,2
INCH
; #@! TA.AperFunction,Plated,PTH,ViaDrill
T1C0.0157
; #@! TA.AperFunction,Plated,PTH,ComponentDrill
T2C0.0197
; #@! TA.AperFunction,Plated,PTH,ComponentDrill
T3C0.0315
; #@! TA.AperFunction,Plated,PTH,ComponentDrill
T4C0.0433
; #@! TA.AperFunction,Plated,PTH,ComponentDrill
T5C0.0591
; #@! TA.AperFunction,Plated,PTH,ComponentDrill
T6C0.1260
%
G90
G05
T1
X5.25Y-3.35
T3
X4.45Y-3.0496
X4.45Y-3.1496
X4.45Y-3.2496
X5.0Y-3.0496
X5.0Y-3.1496
X5.0Y-3.2496
X6.4Y-3.0496
X6.4Y-3.1496
X6.4Y-3.2496
X6.95Y-3.0496
X6.95Y-3.1496
X6.95Y-3.2496
X7.5Y-3.0496
X7.5Y-3.1496
X7.5Y-3.2496
T4
X5.5Y-2.4
X5.5Y-2.5
X5.5Y-2.6
X5.5Y-2.7
X5.5Y-2.8
X5.5Y-2.9
X5.5Y-3.0
X5.5Y-3.1
X5.5Y-3.2
X5.5Y-3.3
X5.5Y-3.4
X5.5Y-3.5
X6.1Y-2.4
X6.1Y-2.5
X6.1Y-2.6
X6.1Y-2.7
X6.1Y-2.8
X6.1Y-2.9
X6.1Y-3.0
X6.1Y-3.1
X6.1Y-3.2
X6.1Y-3.3
X6.1Y-3.4
X6.1Y-3.5
T5
X3.75Y-3.15
X3.8232Y-4.6854
X3.9293Y-4.4379
X4.0Y-3.05
X4.3732Y-5.2354
X4.3778Y-4.1354
X4.4793Y-4.9879
X4.4838Y-3.8879
X4.9232Y-4.6854
X5.0293Y-4.4379
X5.65Y-3.9
X5.9Y-3.8
X6.3232Y-4.6854
X6.4293Y-4.4379
X6.8732Y-4.1354
X6.8732Y-5.2354
X6.9793Y-3.8879
X6.9793Y-4.9879
X7.4232Y-4.6854
X7.5293Y-4.4379
T6
X3.65Y-3.9
X5.8Y-5.4
X7.85Y-3.9
T2
G00X4.3689Y-2.5331
M15
G01X4.3689Y-2.5724
M16
G05
G00X4.7547Y-2.6787
M15
G01X4.7547Y-2.7181
M16
G05
G00X4.9165Y-2.5331
M15
G01X4.9165Y-2.5724
M16
G05
G00X5.3024Y-2.6787
M15
G01X5.3024Y-2.7181
M16
G05
G00X6.3189Y-2.5331
M15
G01X6.3189Y-2.5724
M16
G05
G00X6.7047Y-2.6787
M15
G01X6.7047Y-2.7181
M16
G05
G00X6.8689Y-2.5331
M15
G01X6.8689Y-2.5724
M16
G05
G00X7.2547Y-2.6787
M15
G01X7.2547Y-2.7181
M16
G05
G00X7.4189Y-2.5331
M15
G01X7.4189Y-2.5724
M16
G05
G00X7.8047Y-2.6787
M15
G01X7.8047Y-2.7181
M16
G05
T3
G00X4.3748Y-2.8323
M15
G01X4.4024Y-2.8323
M16
G05
G00X4.5362Y-2.3874
M15
G01X4.5638Y-2.3874
M16
G05
G00X4.6524Y-2.6453
M15
G01X4.6524Y-2.6728
M16
G05
G00X4.9224Y-2.8323
M15
G01X4.95Y-2.8323
M16
G05
G00X5.0839Y-2.3874
M15
G01X5.1114Y-2.3874
M16
G05
G00X5.2Y-2.6453
M15
G01X5.2Y-2.6728
M16
G05
G00X6.3248Y-2.8323
M15
G01X6.3524Y-2.8323
M16
G05
G00X6.4862Y-2.3874
M15
G01X6.5138Y-2.3874
M16
G05
G00X6.6024Y-2.6453
M15
G01X6.6024Y-2.6728
M16
G05
G00X6.8748Y-2.8323
M15
G01X6.9024Y-2.8323
M16
G05
G00X7.0362Y-2.3874
M15
G01X7.0638Y-2.3874
M16
G05
G00X7.1524Y-2.6453
M15
G01X7.1524Y-2.6728
M16
G05
G00X7.4248Y-2.8323
M15
G01X7.4524Y-2.8323
M16
G05
G00X7.5862Y-2.3874
M15
G01X7.6138Y-2.3874
M16
G05
G00X7.7024Y-2.6453
M15
G01X7.7024Y-2.6728
M16
G05
T0
M30
