%TF.GenerationSoftware,KiCad,Pcbnew,6.0.2+dfsg-1*%
%TF.CreationDate,2023-07-31T08:36:05-05:00*%
%TF.ProjectId,DrumPCB,4472756d-5043-4422-9e6b-696361645f70,rev?*%
%TF.SameCoordinates,Original*%
%TF.FileFunction,Legend,Bot*%
%TF.FilePolarity,Positive*%
%FSLAX46Y46*%
G04 Gerber Fmt 4.6, Leading zero omitted, Abs format (unit mm)*
G04 Created by KiCad (PCBNEW 6.0.2+dfsg-1) date 2023-07-31 08:36:05*
%MOMM*%
%LPD*%
G01*
G04 APERTURE LIST*
%ADD10C,0.150000*%
%ADD11C,0.010000*%
G04 APERTURE END LIST*
D10*
X136807380Y-93655476D02*
X135807380Y-93655476D01*
X135807380Y-93893571D01*
X135855000Y-94036428D01*
X135950238Y-94131666D01*
X136045476Y-94179285D01*
X136235952Y-94226904D01*
X136378809Y-94226904D01*
X136569285Y-94179285D01*
X136664523Y-94131666D01*
X136759761Y-94036428D01*
X136807380Y-93893571D01*
X136807380Y-93655476D01*
X136807380Y-94655476D02*
X136140714Y-94655476D01*
X136331190Y-94655476D02*
X136235952Y-94703095D01*
X136188333Y-94750714D01*
X136140714Y-94845952D01*
X136140714Y-94941190D01*
X136140714Y-95703095D02*
X136807380Y-95703095D01*
X136140714Y-95274523D02*
X136664523Y-95274523D01*
X136759761Y-95322142D01*
X136807380Y-95417380D01*
X136807380Y-95560238D01*
X136759761Y-95655476D01*
X136712142Y-95703095D01*
X136807380Y-96179285D02*
X136140714Y-96179285D01*
X136235952Y-96179285D02*
X136188333Y-96226904D01*
X136140714Y-96322142D01*
X136140714Y-96465000D01*
X136188333Y-96560238D01*
X136283571Y-96607857D01*
X136807380Y-96607857D01*
X136283571Y-96607857D02*
X136188333Y-96655476D01*
X136140714Y-96750714D01*
X136140714Y-96893571D01*
X136188333Y-96988809D01*
X136283571Y-97036428D01*
X136807380Y-97036428D01*
X136283571Y-98607857D02*
X136331190Y-98750714D01*
X136378809Y-98798333D01*
X136474047Y-98845952D01*
X136616904Y-98845952D01*
X136712142Y-98798333D01*
X136759761Y-98750714D01*
X136807380Y-98655476D01*
X136807380Y-98274523D01*
X135807380Y-98274523D01*
X135807380Y-98607857D01*
X135855000Y-98703095D01*
X135902619Y-98750714D01*
X135997857Y-98798333D01*
X136093095Y-98798333D01*
X136188333Y-98750714D01*
X136235952Y-98703095D01*
X136283571Y-98607857D01*
X136283571Y-98274523D01*
X136807380Y-99274523D02*
X136140714Y-99274523D01*
X136331190Y-99274523D02*
X136235952Y-99322142D01*
X136188333Y-99369761D01*
X136140714Y-99465000D01*
X136140714Y-99560238D01*
X136759761Y-100274523D02*
X136807380Y-100179285D01*
X136807380Y-99988809D01*
X136759761Y-99893571D01*
X136664523Y-99845952D01*
X136283571Y-99845952D01*
X136188333Y-99893571D01*
X136140714Y-99988809D01*
X136140714Y-100179285D01*
X136188333Y-100274523D01*
X136283571Y-100322142D01*
X136378809Y-100322142D01*
X136474047Y-99845952D01*
X136807380Y-101179285D02*
X136283571Y-101179285D01*
X136188333Y-101131666D01*
X136140714Y-101036428D01*
X136140714Y-100845952D01*
X136188333Y-100750714D01*
X136759761Y-101179285D02*
X136807380Y-101084047D01*
X136807380Y-100845952D01*
X136759761Y-100750714D01*
X136664523Y-100703095D01*
X136569285Y-100703095D01*
X136474047Y-100750714D01*
X136426428Y-100845952D01*
X136426428Y-101084047D01*
X136378809Y-101179285D01*
X136807380Y-101655476D02*
X135807380Y-101655476D01*
X136426428Y-101750714D02*
X136807380Y-102036428D01*
X136140714Y-102036428D02*
X136521666Y-101655476D01*
X136807380Y-102607857D02*
X136759761Y-102512619D01*
X136712142Y-102465000D01*
X136616904Y-102417380D01*
X136331190Y-102417380D01*
X136235952Y-102465000D01*
X136188333Y-102512619D01*
X136140714Y-102607857D01*
X136140714Y-102750714D01*
X136188333Y-102845952D01*
X136235952Y-102893571D01*
X136331190Y-102941190D01*
X136616904Y-102941190D01*
X136712142Y-102893571D01*
X136759761Y-102845952D01*
X136807380Y-102750714D01*
X136807380Y-102607857D01*
X136140714Y-103798333D02*
X136807380Y-103798333D01*
X136140714Y-103369761D02*
X136664523Y-103369761D01*
X136759761Y-103417380D01*
X136807380Y-103512619D01*
X136807380Y-103655476D01*
X136759761Y-103750714D01*
X136712142Y-103798333D01*
X136140714Y-104131666D02*
X136140714Y-104512619D01*
X135807380Y-104274523D02*
X136664523Y-104274523D01*
X136759761Y-104322142D01*
X136807380Y-104417380D01*
X136807380Y-104512619D01*
X136140714Y-105512619D02*
X136807380Y-105750714D01*
X136140714Y-105988809D01*
X136807380Y-106893571D02*
X136807380Y-106322142D01*
X136807380Y-106607857D02*
X135807380Y-106607857D01*
X135950238Y-106512619D01*
X136045476Y-106417380D01*
X136093095Y-106322142D01*
X136712142Y-107322142D02*
X136759761Y-107369761D01*
X136807380Y-107322142D01*
X136759761Y-107274523D01*
X136712142Y-107322142D01*
X136807380Y-107322142D01*
X135807380Y-107988809D02*
X135807380Y-108084047D01*
X135855000Y-108179285D01*
X135902619Y-108226904D01*
X135997857Y-108274523D01*
X136188333Y-108322142D01*
X136426428Y-108322142D01*
X136616904Y-108274523D01*
X136712142Y-108226904D01*
X136759761Y-108179285D01*
X136807380Y-108084047D01*
X136807380Y-107988809D01*
X136759761Y-107893571D01*
X136712142Y-107845952D01*
X136616904Y-107798333D01*
X136426428Y-107750714D01*
X136188333Y-107750714D01*
X135997857Y-107798333D01*
X135902619Y-107845952D01*
X135855000Y-107893571D01*
X135807380Y-107988809D01*
X137512619Y-94060238D02*
X137465000Y-94107857D01*
X137417380Y-94203095D01*
X137417380Y-94441190D01*
X137465000Y-94536428D01*
X137512619Y-94584047D01*
X137607857Y-94631666D01*
X137703095Y-94631666D01*
X137845952Y-94584047D01*
X138417380Y-94012619D01*
X138417380Y-94631666D01*
X137417380Y-95250714D02*
X137417380Y-95345952D01*
X137465000Y-95441190D01*
X137512619Y-95488809D01*
X137607857Y-95536428D01*
X137798333Y-95584047D01*
X138036428Y-95584047D01*
X138226904Y-95536428D01*
X138322142Y-95488809D01*
X138369761Y-95441190D01*
X138417380Y-95345952D01*
X138417380Y-95250714D01*
X138369761Y-95155476D01*
X138322142Y-95107857D01*
X138226904Y-95060238D01*
X138036428Y-95012619D01*
X137798333Y-95012619D01*
X137607857Y-95060238D01*
X137512619Y-95107857D01*
X137465000Y-95155476D01*
X137417380Y-95250714D01*
X137512619Y-95965000D02*
X137465000Y-96012619D01*
X137417380Y-96107857D01*
X137417380Y-96345952D01*
X137465000Y-96441190D01*
X137512619Y-96488809D01*
X137607857Y-96536428D01*
X137703095Y-96536428D01*
X137845952Y-96488809D01*
X138417380Y-95917380D01*
X138417380Y-96536428D01*
X137417380Y-96869761D02*
X137417380Y-97488809D01*
X137798333Y-97155476D01*
X137798333Y-97298333D01*
X137845952Y-97393571D01*
X137893571Y-97441190D01*
X137988809Y-97488809D01*
X138226904Y-97488809D01*
X138322142Y-97441190D01*
X138369761Y-97393571D01*
X138417380Y-97298333D01*
X138417380Y-97012619D01*
X138369761Y-96917380D01*
X138322142Y-96869761D01*
X137369761Y-98631666D02*
X138655476Y-97774523D01*
X138369761Y-98917380D02*
X138417380Y-99060238D01*
X138417380Y-99298333D01*
X138369761Y-99393571D01*
X138322142Y-99441190D01*
X138226904Y-99488809D01*
X138131666Y-99488809D01*
X138036428Y-99441190D01*
X137988809Y-99393571D01*
X137941190Y-99298333D01*
X137893571Y-99107857D01*
X137845952Y-99012619D01*
X137798333Y-98965000D01*
X137703095Y-98917380D01*
X137607857Y-98917380D01*
X137512619Y-98965000D01*
X137465000Y-99012619D01*
X137417380Y-99107857D01*
X137417380Y-99345952D01*
X137465000Y-99488809D01*
X138417380Y-100679285D02*
X137417380Y-100679285D01*
X138131666Y-101012619D01*
X137417380Y-101345952D01*
X138417380Y-101345952D01*
X138369761Y-102250714D02*
X138417380Y-102155476D01*
X138417380Y-101965000D01*
X138369761Y-101869761D01*
X138322142Y-101822142D01*
X138226904Y-101774523D01*
X137941190Y-101774523D01*
X137845952Y-101822142D01*
X137798333Y-101869761D01*
X137750714Y-101965000D01*
X137750714Y-102155476D01*
X137798333Y-102250714D01*
X138322142Y-103250714D02*
X138369761Y-103203095D01*
X138417380Y-103060238D01*
X138417380Y-102965000D01*
X138369761Y-102822142D01*
X138274523Y-102726904D01*
X138179285Y-102679285D01*
X137988809Y-102631666D01*
X137845952Y-102631666D01*
X137655476Y-102679285D01*
X137560238Y-102726904D01*
X137465000Y-102822142D01*
X137417380Y-102965000D01*
X137417380Y-103060238D01*
X137465000Y-103203095D01*
X137512619Y-103250714D01*
X138417380Y-103822142D02*
X138369761Y-103726904D01*
X138322142Y-103679285D01*
X138226904Y-103631666D01*
X137941190Y-103631666D01*
X137845952Y-103679285D01*
X137798333Y-103726904D01*
X137750714Y-103822142D01*
X137750714Y-103965000D01*
X137798333Y-104060238D01*
X137845952Y-104107857D01*
X137941190Y-104155476D01*
X138226904Y-104155476D01*
X138322142Y-104107857D01*
X138369761Y-104060238D01*
X138417380Y-103965000D01*
X138417380Y-103822142D01*
X137750714Y-104584047D02*
X138417380Y-104584047D01*
X137845952Y-104584047D02*
X137798333Y-104631666D01*
X137750714Y-104726904D01*
X137750714Y-104869761D01*
X137798333Y-104964999D01*
X137893571Y-105012619D01*
X138417380Y-105012619D01*
X137750714Y-105488809D02*
X138417380Y-105488809D01*
X137845952Y-105488809D02*
X137798333Y-105536428D01*
X137750714Y-105631666D01*
X137750714Y-105774523D01*
X137798333Y-105869761D01*
X137893571Y-105917380D01*
X138417380Y-105917380D01*
X138369761Y-106774523D02*
X138417380Y-106679285D01*
X138417380Y-106488809D01*
X138369761Y-106393571D01*
X138274523Y-106345952D01*
X137893571Y-106345952D01*
X137798333Y-106393571D01*
X137750714Y-106488809D01*
X137750714Y-106679285D01*
X137798333Y-106774523D01*
X137893571Y-106822142D01*
X137988809Y-106822142D01*
X138084047Y-106345952D01*
X138417380Y-107393571D02*
X138369761Y-107298333D01*
X138274523Y-107250714D01*
X137417380Y-107250714D01*
X138417380Y-107917380D02*
X138369761Y-107822142D01*
X138274523Y-107774523D01*
X137417380Y-107774523D01*
D11*
%TO.C,REF\u002A\u002A*%
X134038663Y-102744833D02*
X134076850Y-102747048D01*
X134076850Y-102747048D02*
X134134886Y-102748784D01*
X134134886Y-102748784D02*
X134208180Y-102749899D01*
X134208180Y-102749899D02*
X134285055Y-102750257D01*
X134285055Y-102750257D02*
X134545196Y-102750257D01*
X134545196Y-102750257D02*
X134591127Y-102704326D01*
X134591127Y-102704326D02*
X134619429Y-102672675D01*
X134619429Y-102672675D02*
X134630893Y-102644890D01*
X134630893Y-102644890D02*
X134630168Y-102606915D01*
X134630168Y-102606915D02*
X134628321Y-102591840D01*
X134628321Y-102591840D02*
X134622948Y-102544726D01*
X134622948Y-102544726D02*
X134619869Y-102505756D01*
X134619869Y-102505756D02*
X134619585Y-102496257D01*
X134619585Y-102496257D02*
X134621445Y-102464233D01*
X134621445Y-102464233D02*
X134626114Y-102418432D01*
X134626114Y-102418432D02*
X134628321Y-102400674D01*
X134628321Y-102400674D02*
X134631735Y-102357057D01*
X134631735Y-102357057D02*
X134624320Y-102327745D01*
X134624320Y-102327745D02*
X134601427Y-102298680D01*
X134601427Y-102298680D02*
X134591127Y-102288188D01*
X134591127Y-102288188D02*
X134545196Y-102242257D01*
X134545196Y-102242257D02*
X134058602Y-102242257D01*
X134058602Y-102242257D02*
X134041758Y-102279226D01*
X134041758Y-102279226D02*
X134029282Y-102311059D01*
X134029282Y-102311059D02*
X134024914Y-102329683D01*
X134024914Y-102329683D02*
X134038718Y-102334458D01*
X134038718Y-102334458D02*
X134077286Y-102338921D01*
X134077286Y-102338921D02*
X134136356Y-102342775D01*
X134136356Y-102342775D02*
X134211663Y-102345722D01*
X134211663Y-102345722D02*
X134275286Y-102347143D01*
X134275286Y-102347143D02*
X134525657Y-102351114D01*
X134525657Y-102351114D02*
X134530556Y-102385759D01*
X134530556Y-102385759D02*
X134527131Y-102417268D01*
X134527131Y-102417268D02*
X134516041Y-102432708D01*
X134516041Y-102432708D02*
X134495308Y-102437023D01*
X134495308Y-102437023D02*
X134451145Y-102440708D01*
X134451145Y-102440708D02*
X134389146Y-102443469D01*
X134389146Y-102443469D02*
X134314909Y-102445012D01*
X134314909Y-102445012D02*
X134276706Y-102445235D01*
X134276706Y-102445235D02*
X134056783Y-102445457D01*
X134056783Y-102445457D02*
X134040849Y-102491166D01*
X134040849Y-102491166D02*
X134030015Y-102523518D01*
X134030015Y-102523518D02*
X134024962Y-102541115D01*
X134024962Y-102541115D02*
X134024914Y-102541623D01*
X134024914Y-102541623D02*
X134038648Y-102543388D01*
X134038648Y-102543388D02*
X134076730Y-102545329D01*
X134076730Y-102545329D02*
X134134482Y-102547282D01*
X134134482Y-102547282D02*
X134207227Y-102549084D01*
X134207227Y-102549084D02*
X134275286Y-102550343D01*
X134275286Y-102550343D02*
X134525657Y-102554314D01*
X134525657Y-102554314D02*
X134525657Y-102641400D01*
X134525657Y-102641400D02*
X134297240Y-102645396D01*
X134297240Y-102645396D02*
X134068822Y-102649392D01*
X134068822Y-102649392D02*
X134046868Y-102691847D01*
X134046868Y-102691847D02*
X134031793Y-102723192D01*
X134031793Y-102723192D02*
X134024951Y-102741744D01*
X134024951Y-102741744D02*
X134024914Y-102742279D01*
X134024914Y-102742279D02*
X134038663Y-102744833D01*
X134038663Y-102744833D02*
X134038663Y-102744833D01*
G36*
X134591127Y-102288188D02*
G01*
X134601427Y-102298680D01*
X134624320Y-102327745D01*
X134631735Y-102357057D01*
X134628321Y-102400674D01*
X134626114Y-102418432D01*
X134621445Y-102464233D01*
X134619585Y-102496257D01*
X134619869Y-102505756D01*
X134622948Y-102544726D01*
X134628321Y-102591840D01*
X134630168Y-102606915D01*
X134630893Y-102644890D01*
X134619429Y-102672675D01*
X134591127Y-102704326D01*
X134545196Y-102750257D01*
X134285055Y-102750257D01*
X134208180Y-102749899D01*
X134134886Y-102748784D01*
X134076850Y-102747048D01*
X134038663Y-102744833D01*
X134024914Y-102742279D01*
X134024951Y-102741744D01*
X134031793Y-102723192D01*
X134046868Y-102691847D01*
X134068822Y-102649392D01*
X134297240Y-102645396D01*
X134525657Y-102641400D01*
X134525657Y-102554314D01*
X134275286Y-102550343D01*
X134207227Y-102549084D01*
X134134482Y-102547282D01*
X134076730Y-102545329D01*
X134038648Y-102543388D01*
X134024914Y-102541623D01*
X134024962Y-102541115D01*
X134030015Y-102523518D01*
X134040849Y-102491166D01*
X134056783Y-102445457D01*
X134276706Y-102445235D01*
X134314909Y-102445012D01*
X134389146Y-102443469D01*
X134451145Y-102440708D01*
X134495308Y-102437023D01*
X134516041Y-102432708D01*
X134527131Y-102417268D01*
X134530556Y-102385759D01*
X134525657Y-102351114D01*
X134275286Y-102347143D01*
X134211663Y-102345722D01*
X134136356Y-102342775D01*
X134077286Y-102338921D01*
X134038718Y-102334458D01*
X134024914Y-102329683D01*
X134029282Y-102311059D01*
X134041758Y-102279226D01*
X134058602Y-102242257D01*
X134545196Y-102242257D01*
X134591127Y-102288188D01*
G37*
X134591127Y-102288188D02*
X134601427Y-102298680D01*
X134624320Y-102327745D01*
X134631735Y-102357057D01*
X134628321Y-102400674D01*
X134626114Y-102418432D01*
X134621445Y-102464233D01*
X134619585Y-102496257D01*
X134619869Y-102505756D01*
X134622948Y-102544726D01*
X134628321Y-102591840D01*
X134630168Y-102606915D01*
X134630893Y-102644890D01*
X134619429Y-102672675D01*
X134591127Y-102704326D01*
X134545196Y-102750257D01*
X134285055Y-102750257D01*
X134208180Y-102749899D01*
X134134886Y-102748784D01*
X134076850Y-102747048D01*
X134038663Y-102744833D01*
X134024914Y-102742279D01*
X134024951Y-102741744D01*
X134031793Y-102723192D01*
X134046868Y-102691847D01*
X134068822Y-102649392D01*
X134297240Y-102645396D01*
X134525657Y-102641400D01*
X134525657Y-102554314D01*
X134275286Y-102550343D01*
X134207227Y-102549084D01*
X134134482Y-102547282D01*
X134076730Y-102545329D01*
X134038648Y-102543388D01*
X134024914Y-102541623D01*
X134024962Y-102541115D01*
X134030015Y-102523518D01*
X134040849Y-102491166D01*
X134056783Y-102445457D01*
X134276706Y-102445235D01*
X134314909Y-102445012D01*
X134389146Y-102443469D01*
X134451145Y-102440708D01*
X134495308Y-102437023D01*
X134516041Y-102432708D01*
X134527131Y-102417268D01*
X134530556Y-102385759D01*
X134525657Y-102351114D01*
X134275286Y-102347143D01*
X134211663Y-102345722D01*
X134136356Y-102342775D01*
X134077286Y-102338921D01*
X134038718Y-102334458D01*
X134024914Y-102329683D01*
X134029282Y-102311059D01*
X134041758Y-102279226D01*
X134058602Y-102242257D01*
X134545196Y-102242257D01*
X134591127Y-102288188D01*
X134001962Y-98006115D02*
X134037733Y-98074145D01*
X134037733Y-98074145D02*
X134095301Y-98124351D01*
X134095301Y-98124351D02*
X134132312Y-98142185D01*
X134132312Y-98142185D02*
X134187882Y-98156063D01*
X134187882Y-98156063D02*
X134258096Y-98163167D01*
X134258096Y-98163167D02*
X134334727Y-98163840D01*
X134334727Y-98163840D02*
X134409552Y-98158427D01*
X134409552Y-98158427D02*
X134474342Y-98147270D01*
X134474342Y-98147270D02*
X134520873Y-98130714D01*
X134520873Y-98130714D02*
X134528887Y-98125626D01*
X134528887Y-98125626D02*
X134588707Y-98065355D01*
X134588707Y-98065355D02*
X134624535Y-97993769D01*
X134624535Y-97993769D02*
X134635020Y-97916092D01*
X134635020Y-97916092D02*
X134618810Y-97837548D01*
X134618810Y-97837548D02*
X134609092Y-97815689D01*
X134609092Y-97815689D02*
X134579143Y-97773122D01*
X134579143Y-97773122D02*
X134539433Y-97735763D01*
X134539433Y-97735763D02*
X134534397Y-97732232D01*
X134534397Y-97732232D02*
X134510124Y-97717881D01*
X134510124Y-97717881D02*
X134484178Y-97708394D01*
X134484178Y-97708394D02*
X134450022Y-97702790D01*
X134450022Y-97702790D02*
X134401119Y-97700086D01*
X134401119Y-97700086D02*
X134330935Y-97699299D01*
X134330935Y-97699299D02*
X134315200Y-97699286D01*
X134315200Y-97699286D02*
X134310192Y-97699322D01*
X134310192Y-97699322D02*
X134310192Y-97844429D01*
X134310192Y-97844429D02*
X134376430Y-97845273D01*
X134376430Y-97845273D02*
X134420386Y-97848596D01*
X134420386Y-97848596D02*
X134448779Y-97855583D01*
X134448779Y-97855583D02*
X134468325Y-97867416D01*
X134468325Y-97867416D02*
X134474857Y-97873457D01*
X134474857Y-97873457D02*
X134499680Y-97908186D01*
X134499680Y-97908186D02*
X134498548Y-97941903D01*
X134498548Y-97941903D02*
X134477016Y-97975995D01*
X134477016Y-97975995D02*
X134454029Y-97996329D01*
X134454029Y-97996329D02*
X134420478Y-98008371D01*
X134420478Y-98008371D02*
X134367569Y-98015134D01*
X134367569Y-98015134D02*
X134361399Y-98015598D01*
X134361399Y-98015598D02*
X134265513Y-98016752D01*
X134265513Y-98016752D02*
X134194299Y-98004688D01*
X134194299Y-98004688D02*
X134148194Y-97979570D01*
X134148194Y-97979570D02*
X134127635Y-97941560D01*
X134127635Y-97941560D02*
X134126514Y-97927992D01*
X134126514Y-97927992D02*
X134132152Y-97892364D01*
X134132152Y-97892364D02*
X134151686Y-97867994D01*
X134151686Y-97867994D02*
X134189042Y-97853093D01*
X134189042Y-97853093D02*
X134248150Y-97845875D01*
X134248150Y-97845875D02*
X134310192Y-97844429D01*
X134310192Y-97844429D02*
X134310192Y-97699322D01*
X134310192Y-97699322D02*
X134240413Y-97699826D01*
X134240413Y-97699826D02*
X134188159Y-97702096D01*
X134188159Y-97702096D02*
X134151949Y-97707068D01*
X134151949Y-97707068D02*
X134125299Y-97715713D01*
X134125299Y-97715713D02*
X134101722Y-97729005D01*
X134101722Y-97729005D02*
X134097338Y-97731943D01*
X134097338Y-97731943D02*
X134038249Y-97781313D01*
X134038249Y-97781313D02*
X134003947Y-97835109D01*
X134003947Y-97835109D02*
X133990331Y-97900602D01*
X133990331Y-97900602D02*
X133989665Y-97922842D01*
X133989665Y-97922842D02*
X134001962Y-98006115D01*
X134001962Y-98006115D02*
X134001962Y-98006115D01*
G36*
X134330935Y-97699299D02*
G01*
X134401119Y-97700086D01*
X134450022Y-97702790D01*
X134484178Y-97708394D01*
X134510124Y-97717881D01*
X134534397Y-97732232D01*
X134539433Y-97735763D01*
X134579143Y-97773122D01*
X134609092Y-97815689D01*
X134618810Y-97837548D01*
X134635020Y-97916092D01*
X134624535Y-97993769D01*
X134588707Y-98065355D01*
X134528887Y-98125626D01*
X134520873Y-98130714D01*
X134474342Y-98147270D01*
X134409552Y-98158427D01*
X134334727Y-98163840D01*
X134258096Y-98163167D01*
X134187882Y-98156063D01*
X134132312Y-98142185D01*
X134095301Y-98124351D01*
X134037733Y-98074145D01*
X134001962Y-98006115D01*
X133990426Y-97927992D01*
X134126514Y-97927992D01*
X134127635Y-97941560D01*
X134148194Y-97979570D01*
X134194299Y-98004688D01*
X134265513Y-98016752D01*
X134361399Y-98015598D01*
X134367569Y-98015134D01*
X134420478Y-98008371D01*
X134454029Y-97996329D01*
X134477016Y-97975995D01*
X134498548Y-97941903D01*
X134499680Y-97908186D01*
X134474857Y-97873457D01*
X134468325Y-97867416D01*
X134448779Y-97855583D01*
X134420386Y-97848596D01*
X134376430Y-97845273D01*
X134310192Y-97844429D01*
X134248150Y-97845875D01*
X134189042Y-97853093D01*
X134151686Y-97867994D01*
X134132152Y-97892364D01*
X134126514Y-97927992D01*
X133990426Y-97927992D01*
X133989665Y-97922842D01*
X133990331Y-97900602D01*
X134003947Y-97835109D01*
X134038249Y-97781313D01*
X134097338Y-97731943D01*
X134101722Y-97729005D01*
X134125299Y-97715713D01*
X134151949Y-97707068D01*
X134188159Y-97702096D01*
X134240413Y-97699826D01*
X134310192Y-97699322D01*
X134315200Y-97699286D01*
X134330935Y-97699299D01*
G37*
X134330935Y-97699299D02*
X134401119Y-97700086D01*
X134450022Y-97702790D01*
X134484178Y-97708394D01*
X134510124Y-97717881D01*
X134534397Y-97732232D01*
X134539433Y-97735763D01*
X134579143Y-97773122D01*
X134609092Y-97815689D01*
X134618810Y-97837548D01*
X134635020Y-97916092D01*
X134624535Y-97993769D01*
X134588707Y-98065355D01*
X134528887Y-98125626D01*
X134520873Y-98130714D01*
X134474342Y-98147270D01*
X134409552Y-98158427D01*
X134334727Y-98163840D01*
X134258096Y-98163167D01*
X134187882Y-98156063D01*
X134132312Y-98142185D01*
X134095301Y-98124351D01*
X134037733Y-98074145D01*
X134001962Y-98006115D01*
X133990426Y-97927992D01*
X134126514Y-97927992D01*
X134127635Y-97941560D01*
X134148194Y-97979570D01*
X134194299Y-98004688D01*
X134265513Y-98016752D01*
X134361399Y-98015598D01*
X134367569Y-98015134D01*
X134420478Y-98008371D01*
X134454029Y-97996329D01*
X134477016Y-97975995D01*
X134498548Y-97941903D01*
X134499680Y-97908186D01*
X134474857Y-97873457D01*
X134468325Y-97867416D01*
X134448779Y-97855583D01*
X134420386Y-97848596D01*
X134376430Y-97845273D01*
X134310192Y-97844429D01*
X134248150Y-97845875D01*
X134189042Y-97853093D01*
X134151686Y-97867994D01*
X134132152Y-97892364D01*
X134126514Y-97927992D01*
X133990426Y-97927992D01*
X133989665Y-97922842D01*
X133990331Y-97900602D01*
X134003947Y-97835109D01*
X134038249Y-97781313D01*
X134097338Y-97731943D01*
X134101722Y-97729005D01*
X134125299Y-97715713D01*
X134151949Y-97707068D01*
X134188159Y-97702096D01*
X134240413Y-97699826D01*
X134310192Y-97699322D01*
X134315200Y-97699286D01*
X134330935Y-97699299D01*
X134046966Y-104118595D02*
X134084497Y-104176021D01*
X134084497Y-104176021D02*
X134118096Y-104203719D01*
X134118096Y-104203719D02*
X134179064Y-104225662D01*
X134179064Y-104225662D02*
X134227308Y-104227405D01*
X134227308Y-104227405D02*
X134291816Y-104223457D01*
X134291816Y-104223457D02*
X134356934Y-104074686D01*
X134356934Y-104074686D02*
X134390202Y-104002349D01*
X134390202Y-104002349D02*
X134416964Y-103955084D01*
X134416964Y-103955084D02*
X134440144Y-103930507D01*
X134440144Y-103930507D02*
X134462667Y-103926237D01*
X134462667Y-103926237D02*
X134487455Y-103939889D01*
X134487455Y-103939889D02*
X134503886Y-103954943D01*
X134503886Y-103954943D02*
X134530235Y-103998746D01*
X134530235Y-103998746D02*
X134532081Y-104046389D01*
X134532081Y-104046389D02*
X134511546Y-104090145D01*
X134511546Y-104090145D02*
X134470752Y-104122289D01*
X134470752Y-104122289D02*
X134456347Y-104128038D01*
X134456347Y-104128038D02*
X134411356Y-104155576D01*
X134411356Y-104155576D02*
X134392182Y-104187258D01*
X134392182Y-104187258D02*
X134375779Y-104230714D01*
X134375779Y-104230714D02*
X134437966Y-104230714D01*
X134437966Y-104230714D02*
X134480283Y-104226872D01*
X134480283Y-104226872D02*
X134515969Y-104211823D01*
X134515969Y-104211823D02*
X134556943Y-104180280D01*
X134556943Y-104180280D02*
X134562267Y-104175592D01*
X134562267Y-104175592D02*
X134598720Y-104140506D01*
X134598720Y-104140506D02*
X134618283Y-104110347D01*
X134618283Y-104110347D02*
X134627283Y-104072615D01*
X134627283Y-104072615D02*
X134630230Y-104041335D01*
X134630230Y-104041335D02*
X134630965Y-103985385D01*
X134630965Y-103985385D02*
X134621660Y-103945555D01*
X134621660Y-103945555D02*
X134607846Y-103920708D01*
X134607846Y-103920708D02*
X134577467Y-103881656D01*
X134577467Y-103881656D02*
X134544613Y-103854625D01*
X134544613Y-103854625D02*
X134503294Y-103837517D01*
X134503294Y-103837517D02*
X134447521Y-103828238D01*
X134447521Y-103828238D02*
X134371305Y-103824693D01*
X134371305Y-103824693D02*
X134332622Y-103824410D01*
X134332622Y-103824410D02*
X134286247Y-103825372D01*
X134286247Y-103825372D02*
X134286247Y-103913007D01*
X134286247Y-103913007D02*
X134311126Y-103914023D01*
X134311126Y-103914023D02*
X134315200Y-103916556D01*
X134315200Y-103916556D02*
X134309665Y-103933274D01*
X134309665Y-103933274D02*
X134295017Y-103969249D01*
X134295017Y-103969249D02*
X134274190Y-104017331D01*
X134274190Y-104017331D02*
X134269714Y-104027386D01*
X134269714Y-104027386D02*
X134238814Y-104088152D01*
X134238814Y-104088152D02*
X134211657Y-104121632D01*
X134211657Y-104121632D02*
X134186220Y-104128990D01*
X134186220Y-104128990D02*
X134160481Y-104111391D01*
X134160481Y-104111391D02*
X134149109Y-104096856D01*
X134149109Y-104096856D02*
X134126364Y-104044410D01*
X134126364Y-104044410D02*
X134130122Y-103995322D01*
X134130122Y-103995322D02*
X134157884Y-103954227D01*
X134157884Y-103954227D02*
X134207152Y-103925758D01*
X134207152Y-103925758D02*
X134246257Y-103916631D01*
X134246257Y-103916631D02*
X134286247Y-103913007D01*
X134286247Y-103913007D02*
X134286247Y-103825372D01*
X134286247Y-103825372D02*
X134242249Y-103826285D01*
X134242249Y-103826285D02*
X134175384Y-103833196D01*
X134175384Y-103833196D02*
X134126695Y-103846884D01*
X134126695Y-103846884D02*
X134090849Y-103869096D01*
X134090849Y-103869096D02*
X134062513Y-103901574D01*
X134062513Y-103901574D02*
X134053355Y-103915733D01*
X134053355Y-103915733D02*
X134029507Y-103980053D01*
X134029507Y-103980053D02*
X134028006Y-104050473D01*
X134028006Y-104050473D02*
X134046966Y-104118595D01*
X134046966Y-104118595D02*
X134046966Y-104118595D01*
G36*
X134371305Y-103824693D02*
G01*
X134447521Y-103828238D01*
X134503294Y-103837517D01*
X134544613Y-103854625D01*
X134577467Y-103881656D01*
X134607846Y-103920708D01*
X134621660Y-103945555D01*
X134630965Y-103985385D01*
X134630230Y-104041335D01*
X134627283Y-104072615D01*
X134618283Y-104110347D01*
X134598720Y-104140506D01*
X134562267Y-104175592D01*
X134556943Y-104180280D01*
X134515969Y-104211823D01*
X134480283Y-104226872D01*
X134437966Y-104230714D01*
X134375779Y-104230714D01*
X134392182Y-104187258D01*
X134411356Y-104155576D01*
X134456347Y-104128038D01*
X134470752Y-104122289D01*
X134511546Y-104090145D01*
X134532081Y-104046389D01*
X134530235Y-103998746D01*
X134503886Y-103954943D01*
X134487455Y-103939889D01*
X134462667Y-103926237D01*
X134440144Y-103930507D01*
X134416964Y-103955084D01*
X134390202Y-104002349D01*
X134356934Y-104074686D01*
X134291816Y-104223457D01*
X134227308Y-104227405D01*
X134179064Y-104225662D01*
X134118096Y-104203719D01*
X134084497Y-104176021D01*
X134046966Y-104118595D01*
X134028006Y-104050473D01*
X134028135Y-104044410D01*
X134126364Y-104044410D01*
X134149109Y-104096856D01*
X134160481Y-104111391D01*
X134186220Y-104128990D01*
X134211657Y-104121632D01*
X134238814Y-104088152D01*
X134269714Y-104027386D01*
X134274190Y-104017331D01*
X134295017Y-103969249D01*
X134309665Y-103933274D01*
X134315200Y-103916556D01*
X134311126Y-103914023D01*
X134286247Y-103913007D01*
X134246257Y-103916631D01*
X134207152Y-103925758D01*
X134157884Y-103954227D01*
X134130122Y-103995322D01*
X134126364Y-104044410D01*
X134028135Y-104044410D01*
X134029507Y-103980053D01*
X134053355Y-103915733D01*
X134062513Y-103901574D01*
X134090849Y-103869096D01*
X134126695Y-103846884D01*
X134175384Y-103833196D01*
X134242249Y-103826285D01*
X134286247Y-103825372D01*
X134332622Y-103824410D01*
X134371305Y-103824693D01*
G37*
X134371305Y-103824693D02*
X134447521Y-103828238D01*
X134503294Y-103837517D01*
X134544613Y-103854625D01*
X134577467Y-103881656D01*
X134607846Y-103920708D01*
X134621660Y-103945555D01*
X134630965Y-103985385D01*
X134630230Y-104041335D01*
X134627283Y-104072615D01*
X134618283Y-104110347D01*
X134598720Y-104140506D01*
X134562267Y-104175592D01*
X134556943Y-104180280D01*
X134515969Y-104211823D01*
X134480283Y-104226872D01*
X134437966Y-104230714D01*
X134375779Y-104230714D01*
X134392182Y-104187258D01*
X134411356Y-104155576D01*
X134456347Y-104128038D01*
X134470752Y-104122289D01*
X134511546Y-104090145D01*
X134532081Y-104046389D01*
X134530235Y-103998746D01*
X134503886Y-103954943D01*
X134487455Y-103939889D01*
X134462667Y-103926237D01*
X134440144Y-103930507D01*
X134416964Y-103955084D01*
X134390202Y-104002349D01*
X134356934Y-104074686D01*
X134291816Y-104223457D01*
X134227308Y-104227405D01*
X134179064Y-104225662D01*
X134118096Y-104203719D01*
X134084497Y-104176021D01*
X134046966Y-104118595D01*
X134028006Y-104050473D01*
X134028135Y-104044410D01*
X134126364Y-104044410D01*
X134149109Y-104096856D01*
X134160481Y-104111391D01*
X134186220Y-104128990D01*
X134211657Y-104121632D01*
X134238814Y-104088152D01*
X134269714Y-104027386D01*
X134274190Y-104017331D01*
X134295017Y-103969249D01*
X134309665Y-103933274D01*
X134315200Y-103916556D01*
X134311126Y-103914023D01*
X134286247Y-103913007D01*
X134246257Y-103916631D01*
X134207152Y-103925758D01*
X134157884Y-103954227D01*
X134130122Y-103995322D01*
X134126364Y-104044410D01*
X134028135Y-104044410D01*
X134029507Y-103980053D01*
X134053355Y-103915733D01*
X134062513Y-103901574D01*
X134090849Y-103869096D01*
X134126695Y-103846884D01*
X134175384Y-103833196D01*
X134242249Y-103826285D01*
X134286247Y-103825372D01*
X134332622Y-103824410D01*
X134371305Y-103824693D01*
X134007780Y-99681093D02*
X134034723Y-99727672D01*
X134034723Y-99727672D02*
X134061466Y-99760057D01*
X134061466Y-99760057D02*
X134089484Y-99783742D01*
X134089484Y-99783742D02*
X134123748Y-99800059D01*
X134123748Y-99800059D02*
X134169227Y-99810339D01*
X134169227Y-99810339D02*
X134230892Y-99815914D01*
X134230892Y-99815914D02*
X134313711Y-99818116D01*
X134313711Y-99818116D02*
X134373246Y-99818371D01*
X134373246Y-99818371D02*
X134592391Y-99818371D01*
X134592391Y-99818371D02*
X134620044Y-99756686D01*
X134620044Y-99756686D02*
X134647697Y-99695000D01*
X134647697Y-99695000D02*
X134407670Y-99687743D01*
X134407670Y-99687743D02*
X134318028Y-99684744D01*
X134318028Y-99684744D02*
X134252962Y-99681598D01*
X134252962Y-99681598D02*
X134208026Y-99677701D01*
X134208026Y-99677701D02*
X134178770Y-99672447D01*
X134178770Y-99672447D02*
X134160748Y-99665231D01*
X134160748Y-99665231D02*
X134149511Y-99655450D01*
X134149511Y-99655450D02*
X134147079Y-99652312D01*
X134147079Y-99652312D02*
X134128083Y-99604761D01*
X134128083Y-99604761D02*
X134135600Y-99556697D01*
X134135600Y-99556697D02*
X134155543Y-99528086D01*
X134155543Y-99528086D02*
X134169675Y-99516447D01*
X134169675Y-99516447D02*
X134188220Y-99508391D01*
X134188220Y-99508391D02*
X134216334Y-99503271D01*
X134216334Y-99503271D02*
X134259173Y-99500441D01*
X134259173Y-99500441D02*
X134321895Y-99499256D01*
X134321895Y-99499256D02*
X134387261Y-99499057D01*
X134387261Y-99499057D02*
X134469268Y-99499018D01*
X134469268Y-99499018D02*
X134527316Y-99497614D01*
X134527316Y-99497614D02*
X134566465Y-99492914D01*
X134566465Y-99492914D02*
X134591780Y-99482987D01*
X134591780Y-99482987D02*
X134608323Y-99465903D01*
X134608323Y-99465903D02*
X134621156Y-99439732D01*
X134621156Y-99439732D02*
X134634491Y-99404775D01*
X134634491Y-99404775D02*
X134649007Y-99366596D01*
X134649007Y-99366596D02*
X134391389Y-99371141D01*
X134391389Y-99371141D02*
X134298519Y-99372971D01*
X134298519Y-99372971D02*
X134229889Y-99375112D01*
X134229889Y-99375112D02*
X134180711Y-99378181D01*
X134180711Y-99378181D02*
X134146198Y-99382794D01*
X134146198Y-99382794D02*
X134121562Y-99389568D01*
X134121562Y-99389568D02*
X134102016Y-99399119D01*
X134102016Y-99399119D02*
X134084770Y-99410634D01*
X134084770Y-99410634D02*
X134029680Y-99466190D01*
X134029680Y-99466190D02*
X133997822Y-99533980D01*
X133997822Y-99533980D02*
X133990191Y-99607713D01*
X133990191Y-99607713D02*
X134007780Y-99681093D01*
X134007780Y-99681093D02*
X134007780Y-99681093D01*
G36*
X134634491Y-99404775D02*
G01*
X134621156Y-99439732D01*
X134608323Y-99465903D01*
X134591780Y-99482987D01*
X134566465Y-99492914D01*
X134527316Y-99497614D01*
X134469268Y-99499018D01*
X134387261Y-99499057D01*
X134321895Y-99499256D01*
X134259173Y-99500441D01*
X134216334Y-99503271D01*
X134188220Y-99508391D01*
X134169675Y-99516447D01*
X134155543Y-99528086D01*
X134135600Y-99556697D01*
X134128083Y-99604761D01*
X134147079Y-99652312D01*
X134149511Y-99655450D01*
X134160748Y-99665231D01*
X134178770Y-99672447D01*
X134208026Y-99677701D01*
X134252962Y-99681598D01*
X134318028Y-99684744D01*
X134407670Y-99687743D01*
X134647697Y-99695000D01*
X134620044Y-99756686D01*
X134592391Y-99818371D01*
X134373246Y-99818371D01*
X134313711Y-99818116D01*
X134230892Y-99815914D01*
X134169227Y-99810339D01*
X134123748Y-99800059D01*
X134089484Y-99783742D01*
X134061466Y-99760057D01*
X134034723Y-99727672D01*
X134007780Y-99681093D01*
X133990191Y-99607713D01*
X133997822Y-99533980D01*
X134029680Y-99466190D01*
X134084770Y-99410634D01*
X134102016Y-99399119D01*
X134121562Y-99389568D01*
X134146198Y-99382794D01*
X134180711Y-99378181D01*
X134229889Y-99375112D01*
X134298519Y-99372971D01*
X134391389Y-99371141D01*
X134649007Y-99366596D01*
X134634491Y-99404775D01*
G37*
X134634491Y-99404775D02*
X134621156Y-99439732D01*
X134608323Y-99465903D01*
X134591780Y-99482987D01*
X134566465Y-99492914D01*
X134527316Y-99497614D01*
X134469268Y-99499018D01*
X134387261Y-99499057D01*
X134321895Y-99499256D01*
X134259173Y-99500441D01*
X134216334Y-99503271D01*
X134188220Y-99508391D01*
X134169675Y-99516447D01*
X134155543Y-99528086D01*
X134135600Y-99556697D01*
X134128083Y-99604761D01*
X134147079Y-99652312D01*
X134149511Y-99655450D01*
X134160748Y-99665231D01*
X134178770Y-99672447D01*
X134208026Y-99677701D01*
X134252962Y-99681598D01*
X134318028Y-99684744D01*
X134407670Y-99687743D01*
X134647697Y-99695000D01*
X134620044Y-99756686D01*
X134592391Y-99818371D01*
X134373246Y-99818371D01*
X134313711Y-99818116D01*
X134230892Y-99815914D01*
X134169227Y-99810339D01*
X134123748Y-99800059D01*
X134089484Y-99783742D01*
X134061466Y-99760057D01*
X134034723Y-99727672D01*
X134007780Y-99681093D01*
X133990191Y-99607713D01*
X133997822Y-99533980D01*
X134029680Y-99466190D01*
X134084770Y-99410634D01*
X134102016Y-99399119D01*
X134121562Y-99389568D01*
X134146198Y-99382794D01*
X134180711Y-99378181D01*
X134229889Y-99375112D01*
X134298519Y-99372971D01*
X134391389Y-99371141D01*
X134649007Y-99366596D01*
X134634491Y-99404775D01*
X134038752Y-103617600D02*
X134046334Y-103634948D01*
X134046334Y-103634948D02*
X134079128Y-103676356D01*
X134079128Y-103676356D02*
X134126547Y-103711765D01*
X134126547Y-103711765D02*
X134177151Y-103733664D01*
X134177151Y-103733664D02*
X134202098Y-103737229D01*
X134202098Y-103737229D02*
X134236927Y-103725279D01*
X134236927Y-103725279D02*
X134255357Y-103699067D01*
X134255357Y-103699067D02*
X134266516Y-103670964D01*
X134266516Y-103670964D02*
X134268572Y-103658095D01*
X134268572Y-103658095D02*
X134253649Y-103651829D01*
X134253649Y-103651829D02*
X134221175Y-103639456D01*
X134221175Y-103639456D02*
X134206502Y-103634028D01*
X134206502Y-103634028D02*
X134155744Y-103603590D01*
X134155744Y-103603590D02*
X134130427Y-103559520D01*
X134130427Y-103559520D02*
X134131206Y-103503010D01*
X134131206Y-103503010D02*
X134132203Y-103498825D01*
X134132203Y-103498825D02*
X134146507Y-103468655D01*
X134146507Y-103468655D02*
X134174393Y-103446476D01*
X134174393Y-103446476D02*
X134219287Y-103431327D01*
X134219287Y-103431327D02*
X134284615Y-103422250D01*
X134284615Y-103422250D02*
X134373804Y-103418286D01*
X134373804Y-103418286D02*
X134421261Y-103417914D01*
X134421261Y-103417914D02*
X134496071Y-103417730D01*
X134496071Y-103417730D02*
X134547069Y-103416522D01*
X134547069Y-103416522D02*
X134579471Y-103413309D01*
X134579471Y-103413309D02*
X134598495Y-103407109D01*
X134598495Y-103407109D02*
X134609356Y-103396940D01*
X134609356Y-103396940D02*
X134617272Y-103381819D01*
X134617272Y-103381819D02*
X134617670Y-103380946D01*
X134617670Y-103380946D02*
X134629981Y-103351828D01*
X134629981Y-103351828D02*
X134634514Y-103337403D01*
X134634514Y-103337403D02*
X134620809Y-103335186D01*
X134620809Y-103335186D02*
X134582925Y-103333289D01*
X134582925Y-103333289D02*
X134525715Y-103331847D01*
X134525715Y-103331847D02*
X134454027Y-103330998D01*
X134454027Y-103330998D02*
X134401565Y-103330829D01*
X134401565Y-103330829D02*
X134300047Y-103331692D01*
X134300047Y-103331692D02*
X134223032Y-103335070D01*
X134223032Y-103335070D02*
X134166023Y-103342142D01*
X134166023Y-103342142D02*
X134124526Y-103354088D01*
X134124526Y-103354088D02*
X134094043Y-103372090D01*
X134094043Y-103372090D02*
X134070080Y-103397327D01*
X134070080Y-103397327D02*
X134053355Y-103422247D01*
X134053355Y-103422247D02*
X134031097Y-103482171D01*
X134031097Y-103482171D02*
X134026076Y-103551911D01*
X134026076Y-103551911D02*
X134038752Y-103617600D01*
X134038752Y-103617600D02*
X134038752Y-103617600D01*
G36*
X134454027Y-103330998D02*
G01*
X134525715Y-103331847D01*
X134582925Y-103333289D01*
X134620809Y-103335186D01*
X134634514Y-103337403D01*
X134629981Y-103351828D01*
X134617670Y-103380946D01*
X134617272Y-103381819D01*
X134609356Y-103396940D01*
X134598495Y-103407109D01*
X134579471Y-103413309D01*
X134547069Y-103416522D01*
X134496071Y-103417730D01*
X134421261Y-103417914D01*
X134373804Y-103418286D01*
X134284615Y-103422250D01*
X134219287Y-103431327D01*
X134174393Y-103446476D01*
X134146507Y-103468655D01*
X134132203Y-103498825D01*
X134131206Y-103503010D01*
X134130427Y-103559520D01*
X134155744Y-103603590D01*
X134206502Y-103634028D01*
X134221175Y-103639456D01*
X134253649Y-103651829D01*
X134268572Y-103658095D01*
X134266516Y-103670964D01*
X134255357Y-103699067D01*
X134236927Y-103725279D01*
X134202098Y-103737229D01*
X134177151Y-103733664D01*
X134126547Y-103711765D01*
X134079128Y-103676356D01*
X134046334Y-103634948D01*
X134038752Y-103617600D01*
X134026076Y-103551911D01*
X134031097Y-103482171D01*
X134053355Y-103422247D01*
X134070080Y-103397327D01*
X134094043Y-103372090D01*
X134124526Y-103354088D01*
X134166023Y-103342142D01*
X134223032Y-103335070D01*
X134300047Y-103331692D01*
X134401565Y-103330829D01*
X134454027Y-103330998D01*
G37*
X134454027Y-103330998D02*
X134525715Y-103331847D01*
X134582925Y-103333289D01*
X134620809Y-103335186D01*
X134634514Y-103337403D01*
X134629981Y-103351828D01*
X134617670Y-103380946D01*
X134617272Y-103381819D01*
X134609356Y-103396940D01*
X134598495Y-103407109D01*
X134579471Y-103413309D01*
X134547069Y-103416522D01*
X134496071Y-103417730D01*
X134421261Y-103417914D01*
X134373804Y-103418286D01*
X134284615Y-103422250D01*
X134219287Y-103431327D01*
X134174393Y-103446476D01*
X134146507Y-103468655D01*
X134132203Y-103498825D01*
X134131206Y-103503010D01*
X134130427Y-103559520D01*
X134155744Y-103603590D01*
X134206502Y-103634028D01*
X134221175Y-103639456D01*
X134253649Y-103651829D01*
X134268572Y-103658095D01*
X134266516Y-103670964D01*
X134255357Y-103699067D01*
X134236927Y-103725279D01*
X134202098Y-103737229D01*
X134177151Y-103733664D01*
X134126547Y-103711765D01*
X134079128Y-103676356D01*
X134046334Y-103634948D01*
X134038752Y-103617600D01*
X134026076Y-103551911D01*
X134031097Y-103482171D01*
X134053355Y-103422247D01*
X134070080Y-103397327D01*
X134094043Y-103372090D01*
X134124526Y-103354088D01*
X134166023Y-103342142D01*
X134223032Y-103335070D01*
X134300047Y-103331692D01*
X134401565Y-103330829D01*
X134454027Y-103330998D01*
X134145358Y-102155117D02*
X134253837Y-102154933D01*
X134253837Y-102154933D02*
X134337287Y-102154219D01*
X134337287Y-102154219D02*
X134399704Y-102152675D01*
X134399704Y-102152675D02*
X134445085Y-102150001D01*
X134445085Y-102150001D02*
X134477429Y-102145894D01*
X134477429Y-102145894D02*
X134500733Y-102140055D01*
X134500733Y-102140055D02*
X134518995Y-102132182D01*
X134518995Y-102132182D02*
X134529418Y-102126221D01*
X134529418Y-102126221D02*
X134585945Y-102076855D01*
X134585945Y-102076855D02*
X134621377Y-102014264D01*
X134621377Y-102014264D02*
X134634090Y-101945013D01*
X134634090Y-101945013D02*
X134622463Y-101875668D01*
X134622463Y-101875668D02*
X134601568Y-101834375D01*
X134601568Y-101834375D02*
X134565422Y-101791025D01*
X134565422Y-101791025D02*
X134521276Y-101761481D01*
X134521276Y-101761481D02*
X134463462Y-101743655D01*
X134463462Y-101743655D02*
X134386313Y-101735463D01*
X134386313Y-101735463D02*
X134329714Y-101734302D01*
X134329714Y-101734302D02*
X134325647Y-101734458D01*
X134325647Y-101734458D02*
X134325647Y-101835857D01*
X134325647Y-101835857D02*
X134390550Y-101836476D01*
X134390550Y-101836476D02*
X134433514Y-101839314D01*
X134433514Y-101839314D02*
X134461622Y-101845840D01*
X134461622Y-101845840D02*
X134481953Y-101857523D01*
X134481953Y-101857523D02*
X134497288Y-101871483D01*
X134497288Y-101871483D02*
X134526890Y-101918365D01*
X134526890Y-101918365D02*
X134529419Y-101968701D01*
X134529419Y-101968701D02*
X134504705Y-102016276D01*
X134504705Y-102016276D02*
X134501356Y-102019979D01*
X134501356Y-102019979D02*
X134483935Y-102035783D01*
X134483935Y-102035783D02*
X134463209Y-102045693D01*
X134463209Y-102045693D02*
X134432362Y-102051058D01*
X134432362Y-102051058D02*
X134384577Y-102053228D01*
X134384577Y-102053228D02*
X134331748Y-102053571D01*
X134331748Y-102053571D02*
X134265381Y-102052827D01*
X134265381Y-102052827D02*
X134221106Y-102049748D01*
X134221106Y-102049748D02*
X134192009Y-102043061D01*
X134192009Y-102043061D02*
X134171173Y-102031496D01*
X134171173Y-102031496D02*
X134160107Y-102022013D01*
X134160107Y-102022013D02*
X134132198Y-101977960D01*
X134132198Y-101977960D02*
X134128843Y-101927224D01*
X134128843Y-101927224D02*
X134150159Y-101878796D01*
X134150159Y-101878796D02*
X134158073Y-101869450D01*
X134158073Y-101869450D02*
X134175647Y-101853540D01*
X134175647Y-101853540D02*
X134196587Y-101843610D01*
X134196587Y-101843610D02*
X134227782Y-101838278D01*
X134227782Y-101838278D02*
X134276122Y-101836163D01*
X134276122Y-101836163D02*
X134325647Y-101835857D01*
X134325647Y-101835857D02*
X134325647Y-101734458D01*
X134325647Y-101734458D02*
X134238568Y-101737810D01*
X134238568Y-101737810D02*
X134170086Y-101749726D01*
X134170086Y-101749726D02*
X134118600Y-101772135D01*
X134118600Y-101772135D02*
X134078443Y-101807124D01*
X134078443Y-101807124D02*
X134057861Y-101834375D01*
X134057861Y-101834375D02*
X134035625Y-101883907D01*
X134035625Y-101883907D02*
X134025304Y-101941316D01*
X134025304Y-101941316D02*
X134028067Y-101994682D01*
X134028067Y-101994682D02*
X134039212Y-102024543D01*
X134039212Y-102024543D02*
X134042383Y-102036261D01*
X134042383Y-102036261D02*
X134030557Y-102044037D01*
X134030557Y-102044037D02*
X133998866Y-102049465D01*
X133998866Y-102049465D02*
X133950593Y-102053571D01*
X133950593Y-102053571D02*
X133896829Y-102058067D01*
X133896829Y-102058067D02*
X133864482Y-102064313D01*
X133864482Y-102064313D02*
X133845985Y-102075676D01*
X133845985Y-102075676D02*
X133833770Y-102095528D01*
X133833770Y-102095528D02*
X133828362Y-102108000D01*
X133828362Y-102108000D02*
X133808601Y-102155171D01*
X133808601Y-102155171D02*
X134145358Y-102155117D01*
X134145358Y-102155117D02*
X134145358Y-102155117D01*
G36*
X134386313Y-101735463D02*
G01*
X134463462Y-101743655D01*
X134521276Y-101761481D01*
X134565422Y-101791025D01*
X134601568Y-101834375D01*
X134622463Y-101875668D01*
X134634090Y-101945013D01*
X134621377Y-102014264D01*
X134585945Y-102076855D01*
X134529418Y-102126221D01*
X134518995Y-102132182D01*
X134500733Y-102140055D01*
X134477429Y-102145894D01*
X134445085Y-102150001D01*
X134399704Y-102152675D01*
X134337287Y-102154219D01*
X134253837Y-102154933D01*
X134145358Y-102155117D01*
X133808601Y-102155171D01*
X133828362Y-102108000D01*
X133833770Y-102095528D01*
X133845985Y-102075676D01*
X133864482Y-102064313D01*
X133896829Y-102058067D01*
X133950593Y-102053571D01*
X133998866Y-102049465D01*
X134030557Y-102044037D01*
X134042383Y-102036261D01*
X134039212Y-102024543D01*
X134028067Y-101994682D01*
X134025304Y-101941316D01*
X134027837Y-101927224D01*
X134128843Y-101927224D01*
X134132198Y-101977960D01*
X134160107Y-102022013D01*
X134171173Y-102031496D01*
X134192009Y-102043061D01*
X134221106Y-102049748D01*
X134265381Y-102052827D01*
X134331748Y-102053571D01*
X134384577Y-102053228D01*
X134432362Y-102051058D01*
X134463209Y-102045693D01*
X134483935Y-102035783D01*
X134501356Y-102019979D01*
X134504705Y-102016276D01*
X134529419Y-101968701D01*
X134526890Y-101918365D01*
X134497288Y-101871483D01*
X134481953Y-101857523D01*
X134461622Y-101845840D01*
X134433514Y-101839314D01*
X134390550Y-101836476D01*
X134325647Y-101835857D01*
X134276122Y-101836163D01*
X134227782Y-101838278D01*
X134196587Y-101843610D01*
X134175647Y-101853540D01*
X134158073Y-101869450D01*
X134150159Y-101878796D01*
X134128843Y-101927224D01*
X134027837Y-101927224D01*
X134035625Y-101883907D01*
X134057861Y-101834375D01*
X134078443Y-101807124D01*
X134118600Y-101772135D01*
X134170086Y-101749726D01*
X134238568Y-101737810D01*
X134325647Y-101734458D01*
X134329714Y-101734302D01*
X134386313Y-101735463D01*
G37*
X134386313Y-101735463D02*
X134463462Y-101743655D01*
X134521276Y-101761481D01*
X134565422Y-101791025D01*
X134601568Y-101834375D01*
X134622463Y-101875668D01*
X134634090Y-101945013D01*
X134621377Y-102014264D01*
X134585945Y-102076855D01*
X134529418Y-102126221D01*
X134518995Y-102132182D01*
X134500733Y-102140055D01*
X134477429Y-102145894D01*
X134445085Y-102150001D01*
X134399704Y-102152675D01*
X134337287Y-102154219D01*
X134253837Y-102154933D01*
X134145358Y-102155117D01*
X133808601Y-102155171D01*
X133828362Y-102108000D01*
X133833770Y-102095528D01*
X133845985Y-102075676D01*
X133864482Y-102064313D01*
X133896829Y-102058067D01*
X133950593Y-102053571D01*
X133998866Y-102049465D01*
X134030557Y-102044037D01*
X134042383Y-102036261D01*
X134039212Y-102024543D01*
X134028067Y-101994682D01*
X134025304Y-101941316D01*
X134027837Y-101927224D01*
X134128843Y-101927224D01*
X134132198Y-101977960D01*
X134160107Y-102022013D01*
X134171173Y-102031496D01*
X134192009Y-102043061D01*
X134221106Y-102049748D01*
X134265381Y-102052827D01*
X134331748Y-102053571D01*
X134384577Y-102053228D01*
X134432362Y-102051058D01*
X134463209Y-102045693D01*
X134483935Y-102035783D01*
X134501356Y-102019979D01*
X134504705Y-102016276D01*
X134529419Y-101968701D01*
X134526890Y-101918365D01*
X134497288Y-101871483D01*
X134481953Y-101857523D01*
X134461622Y-101845840D01*
X134433514Y-101839314D01*
X134390550Y-101836476D01*
X134325647Y-101835857D01*
X134276122Y-101836163D01*
X134227782Y-101838278D01*
X134196587Y-101843610D01*
X134175647Y-101853540D01*
X134158073Y-101869450D01*
X134150159Y-101878796D01*
X134128843Y-101927224D01*
X134027837Y-101927224D01*
X134035625Y-101883907D01*
X134057861Y-101834375D01*
X134078443Y-101807124D01*
X134118600Y-101772135D01*
X134170086Y-101749726D01*
X134238568Y-101737810D01*
X134325647Y-101734458D01*
X134329714Y-101734302D01*
X134386313Y-101735463D01*
X133931289Y-100340886D02*
X133990613Y-100345139D01*
X133990613Y-100345139D02*
X134025572Y-100350025D01*
X134025572Y-100350025D02*
X134040820Y-100356795D01*
X134040820Y-100356795D02*
X134041015Y-100366702D01*
X134041015Y-100366702D02*
X134039195Y-100369914D01*
X134039195Y-100369914D02*
X134026015Y-100412644D01*
X134026015Y-100412644D02*
X134026785Y-100468227D01*
X134026785Y-100468227D02*
X134040333Y-100524737D01*
X134040333Y-100524737D02*
X134057861Y-100560082D01*
X134057861Y-100560082D02*
X134085861Y-100596321D01*
X134085861Y-100596321D02*
X134117549Y-100622813D01*
X134117549Y-100622813D02*
X134157813Y-100640999D01*
X134157813Y-100640999D02*
X134211543Y-100652322D01*
X134211543Y-100652322D02*
X134283626Y-100658222D01*
X134283626Y-100658222D02*
X134378951Y-100660143D01*
X134378951Y-100660143D02*
X134397237Y-100660177D01*
X134397237Y-100660177D02*
X134602646Y-100660200D01*
X134602646Y-100660200D02*
X134618580Y-100614491D01*
X134618580Y-100614491D02*
X134629420Y-100582027D01*
X134629420Y-100582027D02*
X134634468Y-100564215D01*
X134634468Y-100564215D02*
X134634514Y-100563691D01*
X134634514Y-100563691D02*
X134620828Y-100561937D01*
X134620828Y-100561937D02*
X134583076Y-100560444D01*
X134583076Y-100560444D02*
X134526224Y-100559326D01*
X134526224Y-100559326D02*
X134455234Y-100558697D01*
X134455234Y-100558697D02*
X134412073Y-100558600D01*
X134412073Y-100558600D02*
X134326973Y-100558398D01*
X134326973Y-100558398D02*
X134265981Y-100557358D01*
X134265981Y-100557358D02*
X134224177Y-100554831D01*
X134224177Y-100554831D02*
X134196642Y-100550164D01*
X134196642Y-100550164D02*
X134178456Y-100542707D01*
X134178456Y-100542707D02*
X134164698Y-100531811D01*
X134164698Y-100531811D02*
X134158073Y-100525007D01*
X134158073Y-100525007D02*
X134131375Y-100478272D01*
X134131375Y-100478272D02*
X134129375Y-100427272D01*
X134129375Y-100427272D02*
X134151955Y-100381001D01*
X134151955Y-100381001D02*
X134160107Y-100372444D01*
X134160107Y-100372444D02*
X134175436Y-100359893D01*
X134175436Y-100359893D02*
X134193618Y-100351188D01*
X134193618Y-100351188D02*
X134219909Y-100345631D01*
X134219909Y-100345631D02*
X134259562Y-100342526D01*
X134259562Y-100342526D02*
X134317832Y-100341176D01*
X134317832Y-100341176D02*
X134398173Y-100340886D01*
X134398173Y-100340886D02*
X134602646Y-100340886D01*
X134602646Y-100340886D02*
X134618580Y-100295177D01*
X134618580Y-100295177D02*
X134629420Y-100262713D01*
X134629420Y-100262713D02*
X134634468Y-100244901D01*
X134634468Y-100244901D02*
X134634514Y-100244377D01*
X134634514Y-100244377D02*
X134620623Y-100243037D01*
X134620623Y-100243037D02*
X134581439Y-100241828D01*
X134581439Y-100241828D02*
X134520700Y-100240801D01*
X134520700Y-100240801D02*
X134442141Y-100240002D01*
X134442141Y-100240002D02*
X134349498Y-100239481D01*
X134349498Y-100239481D02*
X134246509Y-100239286D01*
X134246509Y-100239286D02*
X133849342Y-100239286D01*
X133849342Y-100239286D02*
X133829444Y-100286457D01*
X133829444Y-100286457D02*
X133809547Y-100333629D01*
X133809547Y-100333629D02*
X133931289Y-100340886D01*
X133931289Y-100340886D02*
X133931289Y-100340886D01*
G36*
X134349498Y-100239481D02*
G01*
X134442141Y-100240002D01*
X134520700Y-100240801D01*
X134581439Y-100241828D01*
X134620623Y-100243037D01*
X134634514Y-100244377D01*
X134634468Y-100244901D01*
X134629420Y-100262713D01*
X134618580Y-100295177D01*
X134602646Y-100340886D01*
X134398173Y-100340886D01*
X134317832Y-100341176D01*
X134259562Y-100342526D01*
X134219909Y-100345631D01*
X134193618Y-100351188D01*
X134175436Y-100359893D01*
X134160107Y-100372444D01*
X134151955Y-100381001D01*
X134129375Y-100427272D01*
X134131375Y-100478272D01*
X134158073Y-100525007D01*
X134164698Y-100531811D01*
X134178456Y-100542707D01*
X134196642Y-100550164D01*
X134224177Y-100554831D01*
X134265981Y-100557358D01*
X134326973Y-100558398D01*
X134412073Y-100558600D01*
X134455234Y-100558697D01*
X134526224Y-100559326D01*
X134583076Y-100560444D01*
X134620828Y-100561937D01*
X134634514Y-100563691D01*
X134634468Y-100564215D01*
X134629420Y-100582027D01*
X134618580Y-100614491D01*
X134602646Y-100660200D01*
X134397237Y-100660177D01*
X134378951Y-100660143D01*
X134283626Y-100658222D01*
X134211543Y-100652322D01*
X134157813Y-100640999D01*
X134117549Y-100622813D01*
X134085861Y-100596321D01*
X134057861Y-100560082D01*
X134040333Y-100524737D01*
X134026785Y-100468227D01*
X134026015Y-100412644D01*
X134039195Y-100369914D01*
X134041015Y-100366702D01*
X134040820Y-100356795D01*
X134025572Y-100350025D01*
X133990613Y-100345139D01*
X133931289Y-100340886D01*
X133809547Y-100333629D01*
X133829444Y-100286457D01*
X133849342Y-100239286D01*
X134246509Y-100239286D01*
X134349498Y-100239481D01*
G37*
X134349498Y-100239481D02*
X134442141Y-100240002D01*
X134520700Y-100240801D01*
X134581439Y-100241828D01*
X134620623Y-100243037D01*
X134634514Y-100244377D01*
X134634468Y-100244901D01*
X134629420Y-100262713D01*
X134618580Y-100295177D01*
X134602646Y-100340886D01*
X134398173Y-100340886D01*
X134317832Y-100341176D01*
X134259562Y-100342526D01*
X134219909Y-100345631D01*
X134193618Y-100351188D01*
X134175436Y-100359893D01*
X134160107Y-100372444D01*
X134151955Y-100381001D01*
X134129375Y-100427272D01*
X134131375Y-100478272D01*
X134158073Y-100525007D01*
X134164698Y-100531811D01*
X134178456Y-100542707D01*
X134196642Y-100550164D01*
X134224177Y-100554831D01*
X134265981Y-100557358D01*
X134326973Y-100558398D01*
X134412073Y-100558600D01*
X134455234Y-100558697D01*
X134526224Y-100559326D01*
X134583076Y-100560444D01*
X134620828Y-100561937D01*
X134634514Y-100563691D01*
X134634468Y-100564215D01*
X134629420Y-100582027D01*
X134618580Y-100614491D01*
X134602646Y-100660200D01*
X134397237Y-100660177D01*
X134378951Y-100660143D01*
X134283626Y-100658222D01*
X134211543Y-100652322D01*
X134157813Y-100640999D01*
X134117549Y-100622813D01*
X134085861Y-100596321D01*
X134057861Y-100560082D01*
X134040333Y-100524737D01*
X134026785Y-100468227D01*
X134026015Y-100412644D01*
X134039195Y-100369914D01*
X134041015Y-100366702D01*
X134040820Y-100356795D01*
X134025572Y-100350025D01*
X133990613Y-100345139D01*
X133931289Y-100340886D01*
X133809547Y-100333629D01*
X133829444Y-100286457D01*
X133849342Y-100239286D01*
X134246509Y-100239286D01*
X134349498Y-100239481D01*
X134030968Y-101004744D02*
X134052087Y-101061616D01*
X134052087Y-101061616D02*
X134052493Y-101062267D01*
X134052493Y-101062267D02*
X134078380Y-101097440D01*
X134078380Y-101097440D02*
X134108633Y-101123407D01*
X134108633Y-101123407D02*
X134148058Y-101141670D01*
X134148058Y-101141670D02*
X134201462Y-101153732D01*
X134201462Y-101153732D02*
X134273651Y-101161096D01*
X134273651Y-101161096D02*
X134369432Y-101165264D01*
X134369432Y-101165264D02*
X134383078Y-101165629D01*
X134383078Y-101165629D02*
X134588842Y-101170876D01*
X134588842Y-101170876D02*
X134611678Y-101126716D01*
X134611678Y-101126716D02*
X134627110Y-101094763D01*
X134627110Y-101094763D02*
X134634423Y-101075470D01*
X134634423Y-101075470D02*
X134634514Y-101074578D01*
X134634514Y-101074578D02*
X134621022Y-101071239D01*
X134621022Y-101071239D02*
X134584626Y-101068587D01*
X134584626Y-101068587D02*
X134531452Y-101066956D01*
X134531452Y-101066956D02*
X134488393Y-101066600D01*
X134488393Y-101066600D02*
X134418641Y-101066592D01*
X134418641Y-101066592D02*
X134374837Y-101063403D01*
X134374837Y-101063403D02*
X134353944Y-101052288D01*
X134353944Y-101052288D02*
X134352925Y-101028501D01*
X134352925Y-101028501D02*
X134368741Y-100987296D01*
X134368741Y-100987296D02*
X134397815Y-100925086D01*
X134397815Y-100925086D02*
X134421963Y-100879341D01*
X134421963Y-100879341D02*
X134442913Y-100855813D01*
X134442913Y-100855813D02*
X134465747Y-100848896D01*
X134465747Y-100848896D02*
X134466877Y-100848886D01*
X134466877Y-100848886D02*
X134506212Y-100860299D01*
X134506212Y-100860299D02*
X134527462Y-100894092D01*
X134527462Y-100894092D02*
X134530539Y-100945809D01*
X134530539Y-100945809D02*
X134530006Y-100983061D01*
X134530006Y-100983061D02*
X134540735Y-101002703D01*
X134540735Y-101002703D02*
X134566505Y-101014952D01*
X134566505Y-101014952D02*
X134599337Y-101022002D01*
X134599337Y-101022002D02*
X134617966Y-101011842D01*
X134617966Y-101011842D02*
X134620632Y-101008017D01*
X134620632Y-101008017D02*
X134631340Y-100972001D01*
X134631340Y-100972001D02*
X134632856Y-100921566D01*
X134632856Y-100921566D02*
X134625759Y-100869626D01*
X134625759Y-100869626D02*
X134612788Y-100832822D01*
X134612788Y-100832822D02*
X134569585Y-100781938D01*
X134569585Y-100781938D02*
X134509446Y-100753014D01*
X134509446Y-100753014D02*
X134462462Y-100747286D01*
X134462462Y-100747286D02*
X134420082Y-100751657D01*
X134420082Y-100751657D02*
X134385488Y-100767475D01*
X134385488Y-100767475D02*
X134354763Y-100798797D01*
X134354763Y-100798797D02*
X134323990Y-100849678D01*
X134323990Y-100849678D02*
X134289252Y-100924176D01*
X134289252Y-100924176D02*
X134287288Y-100928714D01*
X134287288Y-100928714D02*
X134256287Y-100995821D01*
X134256287Y-100995821D02*
X134230862Y-101037232D01*
X134230862Y-101037232D02*
X134208014Y-101054981D01*
X134208014Y-101054981D02*
X134184745Y-101051107D01*
X134184745Y-101051107D02*
X134158056Y-101027643D01*
X134158056Y-101027643D02*
X134151914Y-101020627D01*
X134151914Y-101020627D02*
X134128100Y-100973630D01*
X134128100Y-100973630D02*
X134129103Y-100924933D01*
X134129103Y-100924933D02*
X134152451Y-100882522D01*
X134152451Y-100882522D02*
X134195675Y-100854384D01*
X134195675Y-100854384D02*
X134204160Y-100851769D01*
X134204160Y-100851769D02*
X134245308Y-100826308D01*
X134245308Y-100826308D02*
X134265128Y-100794001D01*
X134265128Y-100794001D02*
X134284770Y-100747286D01*
X134284770Y-100747286D02*
X134233950Y-100747286D01*
X134233950Y-100747286D02*
X134160082Y-100761496D01*
X134160082Y-100761496D02*
X134092327Y-100803675D01*
X134092327Y-100803675D02*
X134069661Y-100825624D01*
X134069661Y-100825624D02*
X134040569Y-100875517D01*
X134040569Y-100875517D02*
X134027400Y-100938967D01*
X134027400Y-100938967D02*
X134030968Y-101004744D01*
X134030968Y-101004744D02*
X134030968Y-101004744D01*
G36*
X134265128Y-100794001D02*
G01*
X134245308Y-100826308D01*
X134204160Y-100851769D01*
X134195675Y-100854384D01*
X134152451Y-100882522D01*
X134129103Y-100924933D01*
X134128100Y-100973630D01*
X134151914Y-101020627D01*
X134158056Y-101027643D01*
X134184745Y-101051107D01*
X134208014Y-101054981D01*
X134230862Y-101037232D01*
X134256287Y-100995821D01*
X134287288Y-100928714D01*
X134289252Y-100924176D01*
X134323990Y-100849678D01*
X134354763Y-100798797D01*
X134385488Y-100767475D01*
X134420082Y-100751657D01*
X134462462Y-100747286D01*
X134509446Y-100753014D01*
X134569585Y-100781938D01*
X134612788Y-100832822D01*
X134625759Y-100869626D01*
X134632856Y-100921566D01*
X134631340Y-100972001D01*
X134620632Y-101008017D01*
X134617966Y-101011842D01*
X134599337Y-101022002D01*
X134566505Y-101014952D01*
X134540735Y-101002703D01*
X134530006Y-100983061D01*
X134530539Y-100945809D01*
X134527462Y-100894092D01*
X134506212Y-100860299D01*
X134466877Y-100848886D01*
X134465747Y-100848896D01*
X134442913Y-100855813D01*
X134421963Y-100879341D01*
X134397815Y-100925086D01*
X134368741Y-100987296D01*
X134352925Y-101028501D01*
X134353944Y-101052288D01*
X134374837Y-101063403D01*
X134418641Y-101066592D01*
X134488393Y-101066600D01*
X134531452Y-101066956D01*
X134584626Y-101068587D01*
X134621022Y-101071239D01*
X134634514Y-101074578D01*
X134634423Y-101075470D01*
X134627110Y-101094763D01*
X134611678Y-101126716D01*
X134588842Y-101170876D01*
X134383078Y-101165629D01*
X134369432Y-101165264D01*
X134273651Y-101161096D01*
X134201462Y-101153732D01*
X134148058Y-101141670D01*
X134108633Y-101123407D01*
X134078380Y-101097440D01*
X134052493Y-101062267D01*
X134052087Y-101061616D01*
X134030968Y-101004744D01*
X134027400Y-100938967D01*
X134040569Y-100875517D01*
X134069661Y-100825624D01*
X134092327Y-100803675D01*
X134160082Y-100761496D01*
X134233950Y-100747286D01*
X134284770Y-100747286D01*
X134265128Y-100794001D01*
G37*
X134265128Y-100794001D02*
X134245308Y-100826308D01*
X134204160Y-100851769D01*
X134195675Y-100854384D01*
X134152451Y-100882522D01*
X134129103Y-100924933D01*
X134128100Y-100973630D01*
X134151914Y-101020627D01*
X134158056Y-101027643D01*
X134184745Y-101051107D01*
X134208014Y-101054981D01*
X134230862Y-101037232D01*
X134256287Y-100995821D01*
X134287288Y-100928714D01*
X134289252Y-100924176D01*
X134323990Y-100849678D01*
X134354763Y-100798797D01*
X134385488Y-100767475D01*
X134420082Y-100751657D01*
X134462462Y-100747286D01*
X134509446Y-100753014D01*
X134569585Y-100781938D01*
X134612788Y-100832822D01*
X134625759Y-100869626D01*
X134632856Y-100921566D01*
X134631340Y-100972001D01*
X134620632Y-101008017D01*
X134617966Y-101011842D01*
X134599337Y-101022002D01*
X134566505Y-101014952D01*
X134540735Y-101002703D01*
X134530006Y-100983061D01*
X134530539Y-100945809D01*
X134527462Y-100894092D01*
X134506212Y-100860299D01*
X134466877Y-100848886D01*
X134465747Y-100848896D01*
X134442913Y-100855813D01*
X134421963Y-100879341D01*
X134397815Y-100925086D01*
X134368741Y-100987296D01*
X134352925Y-101028501D01*
X134353944Y-101052288D01*
X134374837Y-101063403D01*
X134418641Y-101066592D01*
X134488393Y-101066600D01*
X134531452Y-101066956D01*
X134584626Y-101068587D01*
X134621022Y-101071239D01*
X134634514Y-101074578D01*
X134634423Y-101075470D01*
X134627110Y-101094763D01*
X134611678Y-101126716D01*
X134588842Y-101170876D01*
X134383078Y-101165629D01*
X134369432Y-101165264D01*
X134273651Y-101161096D01*
X134201462Y-101153732D01*
X134148058Y-101141670D01*
X134108633Y-101123407D01*
X134078380Y-101097440D01*
X134052493Y-101062267D01*
X134052087Y-101061616D01*
X134030968Y-101004744D01*
X134027400Y-100938967D01*
X134040569Y-100875517D01*
X134069661Y-100825624D01*
X134092327Y-100803675D01*
X134160082Y-100761496D01*
X134233950Y-100747286D01*
X134284770Y-100747286D01*
X134265128Y-100794001D01*
X129322348Y-101068910D02*
X129322778Y-101147454D01*
X129322778Y-101147454D02*
X129323942Y-101204298D01*
X129323942Y-101204298D02*
X129326207Y-101243105D01*
X129326207Y-101243105D02*
X129329940Y-101267538D01*
X129329940Y-101267538D02*
X129335506Y-101281262D01*
X129335506Y-101281262D02*
X129343273Y-101287940D01*
X129343273Y-101287940D02*
X129353605Y-101291236D01*
X129353605Y-101291236D02*
X129354943Y-101291556D01*
X129354943Y-101291556D02*
X129379079Y-101296562D01*
X129379079Y-101296562D02*
X129426701Y-101305829D01*
X129426701Y-101305829D02*
X129492741Y-101318392D01*
X129492741Y-101318392D02*
X129572128Y-101333287D01*
X129572128Y-101333287D02*
X129659796Y-101349551D01*
X129659796Y-101349551D02*
X129662875Y-101350119D01*
X129662875Y-101350119D02*
X129748789Y-101366410D01*
X129748789Y-101366410D02*
X129824696Y-101381652D01*
X129824696Y-101381652D02*
X129886045Y-101394861D01*
X129886045Y-101394861D02*
X129928282Y-101405054D01*
X129928282Y-101405054D02*
X129946855Y-101411248D01*
X129946855Y-101411248D02*
X129947184Y-101411543D01*
X129947184Y-101411543D02*
X129956253Y-101429788D01*
X129956253Y-101429788D02*
X129971367Y-101467405D01*
X129971367Y-101467405D02*
X129989262Y-101516271D01*
X129989262Y-101516271D02*
X129989358Y-101516543D01*
X129989358Y-101516543D02*
X130012493Y-101578093D01*
X130012493Y-101578093D02*
X130041965Y-101650657D01*
X130041965Y-101650657D02*
X130071597Y-101719057D01*
X130071597Y-101719057D02*
X130073062Y-101722294D01*
X130073062Y-101722294D02*
X130123626Y-101833702D01*
X130123626Y-101833702D02*
X129955160Y-102080399D01*
X129955160Y-102080399D02*
X129903803Y-102156077D01*
X129903803Y-102156077D02*
X129857889Y-102224631D01*
X129857889Y-102224631D02*
X129820030Y-102282088D01*
X129820030Y-102282088D02*
X129792837Y-102324476D01*
X129792837Y-102324476D02*
X129778921Y-102347825D01*
X129778921Y-102347825D02*
X129777889Y-102350042D01*
X129777889Y-102350042D02*
X129782484Y-102367010D01*
X129782484Y-102367010D02*
X129804655Y-102398701D01*
X129804655Y-102398701D02*
X129845447Y-102446352D01*
X129845447Y-102446352D02*
X129905905Y-102511198D01*
X129905905Y-102511198D02*
X129970227Y-102577397D01*
X129970227Y-102577397D02*
X130033612Y-102641214D01*
X130033612Y-102641214D02*
X130091451Y-102698329D01*
X130091451Y-102698329D02*
X130140175Y-102745305D01*
X130140175Y-102745305D02*
X130176210Y-102778703D01*
X130176210Y-102778703D02*
X130195984Y-102795085D01*
X130195984Y-102795085D02*
X130197002Y-102795694D01*
X130197002Y-102795694D02*
X130210572Y-102797505D01*
X130210572Y-102797505D02*
X130232733Y-102790683D01*
X130232733Y-102790683D02*
X130266478Y-102773540D01*
X130266478Y-102773540D02*
X130314800Y-102744393D01*
X130314800Y-102744393D02*
X130380692Y-102701555D01*
X130380692Y-102701555D02*
X130465517Y-102644448D01*
X130465517Y-102644448D02*
X130540177Y-102593766D01*
X130540177Y-102593766D02*
X130607140Y-102548461D01*
X130607140Y-102548461D02*
X130662516Y-102511150D01*
X130662516Y-102511150D02*
X130702420Y-102484452D01*
X130702420Y-102484452D02*
X130722962Y-102470985D01*
X130722962Y-102470985D02*
X130724356Y-102470137D01*
X130724356Y-102470137D02*
X130744038Y-102471781D01*
X130744038Y-102471781D02*
X130782293Y-102484245D01*
X130782293Y-102484245D02*
X130831889Y-102505048D01*
X130831889Y-102505048D02*
X130847728Y-102512462D01*
X130847728Y-102512462D02*
X130918290Y-102544814D01*
X130918290Y-102544814D02*
X130998353Y-102579328D01*
X130998353Y-102579328D02*
X131067629Y-102607365D01*
X131067629Y-102607365D02*
X131119045Y-102627568D01*
X131119045Y-102627568D02*
X131158119Y-102643615D01*
X131158119Y-102643615D02*
X131178541Y-102652888D01*
X131178541Y-102652888D02*
X131180114Y-102654041D01*
X131180114Y-102654041D02*
X131182721Y-102671096D01*
X131182721Y-102671096D02*
X131189863Y-102711298D01*
X131189863Y-102711298D02*
X131200523Y-102769302D01*
X131200523Y-102769302D02*
X131213685Y-102839763D01*
X131213685Y-102839763D02*
X131228333Y-102917335D01*
X131228333Y-102917335D02*
X131243449Y-102996672D01*
X131243449Y-102996672D02*
X131258018Y-103072431D01*
X131258018Y-103072431D02*
X131271022Y-103139264D01*
X131271022Y-103139264D02*
X131281445Y-103191828D01*
X131281445Y-103191828D02*
X131288270Y-103224776D01*
X131288270Y-103224776D02*
X131290199Y-103232857D01*
X131290199Y-103232857D02*
X131294962Y-103241205D01*
X131294962Y-103241205D02*
X131305718Y-103247506D01*
X131305718Y-103247506D02*
X131326098Y-103252045D01*
X131326098Y-103252045D02*
X131359734Y-103255104D01*
X131359734Y-103255104D02*
X131410255Y-103256967D01*
X131410255Y-103256967D02*
X131481292Y-103257918D01*
X131481292Y-103257918D02*
X131576476Y-103258240D01*
X131576476Y-103258240D02*
X131615492Y-103258257D01*
X131615492Y-103258257D02*
X131932799Y-103258257D01*
X131932799Y-103258257D02*
X131947839Y-103182057D01*
X131947839Y-103182057D02*
X131955995Y-103139663D01*
X131955995Y-103139663D02*
X131967899Y-103076400D01*
X131967899Y-103076400D02*
X131982116Y-102999962D01*
X131982116Y-102999962D02*
X131997210Y-102918043D01*
X131997210Y-102918043D02*
X132001355Y-102895400D01*
X132001355Y-102895400D02*
X132016053Y-102819806D01*
X132016053Y-102819806D02*
X132030505Y-102753953D01*
X132030505Y-102753953D02*
X132043375Y-102703366D01*
X132043375Y-102703366D02*
X132053322Y-102673574D01*
X132053322Y-102673574D02*
X132056287Y-102668612D01*
X132056287Y-102668612D02*
X132077283Y-102656426D01*
X132077283Y-102656426D02*
X132117967Y-102638953D01*
X132117967Y-102638953D02*
X132170322Y-102619577D01*
X132170322Y-102619577D02*
X132181600Y-102615734D01*
X132181600Y-102615734D02*
X132251523Y-102590339D01*
X132251523Y-102590339D02*
X132330418Y-102558817D01*
X132330418Y-102558817D02*
X132401266Y-102527969D01*
X132401266Y-102527969D02*
X132401595Y-102527817D01*
X132401595Y-102527817D02*
X132512733Y-102476447D01*
X132512733Y-102476447D02*
X132761253Y-102645399D01*
X132761253Y-102645399D02*
X133009772Y-102814352D01*
X133009772Y-102814352D02*
X133227058Y-102597429D01*
X133227058Y-102597429D02*
X133291726Y-102531819D01*
X133291726Y-102531819D02*
X133348733Y-102471979D01*
X133348733Y-102471979D02*
X133395033Y-102421267D01*
X133395033Y-102421267D02*
X133427584Y-102383046D01*
X133427584Y-102383046D02*
X133443343Y-102360675D01*
X133443343Y-102360675D02*
X133444343Y-102357466D01*
X133444343Y-102357466D02*
X133436469Y-102338626D01*
X133436469Y-102338626D02*
X133414578Y-102300180D01*
X133414578Y-102300180D02*
X133381267Y-102246330D01*
X133381267Y-102246330D02*
X133339131Y-102181276D01*
X133339131Y-102181276D02*
X133291943Y-102110940D01*
X133291943Y-102110940D02*
X133243810Y-102039555D01*
X133243810Y-102039555D02*
X133201928Y-101975908D01*
X133201928Y-101975908D02*
X133168871Y-101924041D01*
X133168871Y-101924041D02*
X133147218Y-101887995D01*
X133147218Y-101887995D02*
X133139543Y-101871867D01*
X133139543Y-101871867D02*
X133146037Y-101852189D01*
X133146037Y-101852189D02*
X133163150Y-101814875D01*
X133163150Y-101814875D02*
X133187326Y-101767621D01*
X133187326Y-101767621D02*
X133190013Y-101762612D01*
X133190013Y-101762612D02*
X133221927Y-101698977D01*
X133221927Y-101698977D02*
X133237579Y-101655341D01*
X133237579Y-101655341D02*
X133237745Y-101628202D01*
X133237745Y-101628202D02*
X133223204Y-101614057D01*
X133223204Y-101614057D02*
X133223000Y-101613975D01*
X133223000Y-101613975D02*
X133205779Y-101606905D01*
X133205779Y-101606905D02*
X133164899Y-101590042D01*
X133164899Y-101590042D02*
X133103525Y-101564695D01*
X133103525Y-101564695D02*
X133024819Y-101532171D01*
X133024819Y-101532171D02*
X132931947Y-101493778D01*
X132931947Y-101493778D02*
X132828072Y-101450822D01*
X132828072Y-101450822D02*
X132727502Y-101409222D01*
X132727502Y-101409222D02*
X132616516Y-101363504D01*
X132616516Y-101363504D02*
X132513703Y-101321526D01*
X132513703Y-101321526D02*
X132422215Y-101284548D01*
X132422215Y-101284548D02*
X132345201Y-101253827D01*
X132345201Y-101253827D02*
X132285815Y-101230622D01*
X132285815Y-101230622D02*
X132247209Y-101216190D01*
X132247209Y-101216190D02*
X132232800Y-101211743D01*
X132232800Y-101211743D02*
X132216272Y-101222896D01*
X132216272Y-101222896D02*
X132189930Y-101252069D01*
X132189930Y-101252069D02*
X132160887Y-101290971D01*
X132160887Y-101290971D02*
X132069039Y-101401757D01*
X132069039Y-101401757D02*
X131963759Y-101488351D01*
X131963759Y-101488351D02*
X131847266Y-101549716D01*
X131847266Y-101549716D02*
X131721776Y-101584815D01*
X131721776Y-101584815D02*
X131589507Y-101592608D01*
X131589507Y-101592608D02*
X131528457Y-101586943D01*
X131528457Y-101586943D02*
X131401795Y-101556078D01*
X131401795Y-101556078D02*
X131289941Y-101502920D01*
X131289941Y-101502920D02*
X131194001Y-101430767D01*
X131194001Y-101430767D02*
X131115076Y-101342917D01*
X131115076Y-101342917D02*
X131054270Y-101242665D01*
X131054270Y-101242665D02*
X131012687Y-101133310D01*
X131012687Y-101133310D02*
X130991428Y-101018147D01*
X130991428Y-101018147D02*
X130991599Y-100900475D01*
X130991599Y-100900475D02*
X131014301Y-100783590D01*
X131014301Y-100783590D02*
X131060638Y-100670789D01*
X131060638Y-100670789D02*
X131131713Y-100565369D01*
X131131713Y-100565369D02*
X131171911Y-100521368D01*
X131171911Y-100521368D02*
X131275129Y-100436979D01*
X131275129Y-100436979D02*
X131387925Y-100378222D01*
X131387925Y-100378222D02*
X131507010Y-100344704D01*
X131507010Y-100344704D02*
X131629095Y-100336035D01*
X131629095Y-100336035D02*
X131750893Y-100351823D01*
X131750893Y-100351823D02*
X131869116Y-100391678D01*
X131869116Y-100391678D02*
X131980475Y-100455207D01*
X131980475Y-100455207D02*
X132081684Y-100542021D01*
X132081684Y-100542021D02*
X132160887Y-100639029D01*
X132160887Y-100639029D02*
X132191162Y-100679437D01*
X132191162Y-100679437D02*
X132217219Y-100707982D01*
X132217219Y-100707982D02*
X132232825Y-100718257D01*
X132232825Y-100718257D02*
X132249843Y-100712877D01*
X132249843Y-100712877D02*
X132290500Y-100697575D01*
X132290500Y-100697575D02*
X132351642Y-100673612D01*
X132351642Y-100673612D02*
X132430119Y-100642244D01*
X132430119Y-100642244D02*
X132522780Y-100604732D01*
X132522780Y-100604732D02*
X132626472Y-100562333D01*
X132626472Y-100562333D02*
X132727526Y-100520663D01*
X132727526Y-100520663D02*
X132838607Y-100474690D01*
X132838607Y-100474690D02*
X132941541Y-100432107D01*
X132941541Y-100432107D02*
X133033165Y-100394221D01*
X133033165Y-100394221D02*
X133110316Y-100362340D01*
X133110316Y-100362340D02*
X133169831Y-100337771D01*
X133169831Y-100337771D02*
X133208544Y-100321820D01*
X133208544Y-100321820D02*
X133223000Y-100315910D01*
X133223000Y-100315910D02*
X133237685Y-100301948D01*
X133237685Y-100301948D02*
X133237642Y-100274940D01*
X133237642Y-100274940D02*
X133222099Y-100231413D01*
X133222099Y-100231413D02*
X133190284Y-100167890D01*
X133190284Y-100167890D02*
X133190013Y-100167388D01*
X133190013Y-100167388D02*
X133165323Y-100119560D01*
X133165323Y-100119560D02*
X133147338Y-100080897D01*
X133147338Y-100080897D02*
X133139614Y-100059095D01*
X133139614Y-100059095D02*
X133139543Y-100058133D01*
X133139543Y-100058133D02*
X133147378Y-100041721D01*
X133147378Y-100041721D02*
X133169165Y-100005487D01*
X133169165Y-100005487D02*
X133202328Y-99953474D01*
X133202328Y-99953474D02*
X133244291Y-99889725D01*
X133244291Y-99889725D02*
X133291943Y-99819060D01*
X133291943Y-99819060D02*
X133340191Y-99747116D01*
X133340191Y-99747116D02*
X133382151Y-99682274D01*
X133382151Y-99682274D02*
X133415227Y-99628735D01*
X133415227Y-99628735D02*
X133436821Y-99590697D01*
X133436821Y-99590697D02*
X133444343Y-99572533D01*
X133444343Y-99572533D02*
X133434457Y-99555808D01*
X133434457Y-99555808D02*
X133406826Y-99522180D01*
X133406826Y-99522180D02*
X133364495Y-99475010D01*
X133364495Y-99475010D02*
X133310505Y-99417658D01*
X133310505Y-99417658D02*
X133247899Y-99353484D01*
X133247899Y-99353484D02*
X133226983Y-99332497D01*
X133226983Y-99332497D02*
X133009623Y-99115499D01*
X133009623Y-99115499D02*
X132767220Y-99280668D01*
X132767220Y-99280668D02*
X132692781Y-99330864D01*
X132692781Y-99330864D02*
X132625972Y-99374919D01*
X132625972Y-99374919D02*
X132570665Y-99410362D01*
X132570665Y-99410362D02*
X132530729Y-99434719D01*
X132530729Y-99434719D02*
X132510036Y-99445522D01*
X132510036Y-99445522D02*
X132508563Y-99445838D01*
X132508563Y-99445838D02*
X132489058Y-99440143D01*
X132489058Y-99440143D02*
X132449822Y-99424826D01*
X132449822Y-99424826D02*
X132397430Y-99402537D01*
X132397430Y-99402537D02*
X132362355Y-99386893D01*
X132362355Y-99386893D02*
X132295201Y-99357641D01*
X132295201Y-99357641D02*
X132227358Y-99330094D01*
X132227358Y-99330094D02*
X132170034Y-99308737D01*
X132170034Y-99308737D02*
X132152572Y-99302935D01*
X132152572Y-99302935D02*
X132105938Y-99286452D01*
X132105938Y-99286452D02*
X132069905Y-99270340D01*
X132069905Y-99270340D02*
X132056287Y-99261490D01*
X132056287Y-99261490D02*
X132047952Y-99241960D01*
X132047952Y-99241960D02*
X132036137Y-99199334D01*
X132036137Y-99199334D02*
X132022181Y-99139145D01*
X132022181Y-99139145D02*
X132007422Y-99066922D01*
X132007422Y-99066922D02*
X132001355Y-99034600D01*
X132001355Y-99034600D02*
X131986273Y-98952522D01*
X131986273Y-98952522D02*
X131971669Y-98873795D01*
X131971669Y-98873795D02*
X131958980Y-98806109D01*
X131958980Y-98806109D02*
X131949642Y-98757160D01*
X131949642Y-98757160D02*
X131947839Y-98747943D01*
X131947839Y-98747943D02*
X131932799Y-98671743D01*
X131932799Y-98671743D02*
X131615492Y-98671743D01*
X131615492Y-98671743D02*
X131511154Y-98671914D01*
X131511154Y-98671914D02*
X131432213Y-98672616D01*
X131432213Y-98672616D02*
X131375038Y-98674134D01*
X131375038Y-98674134D02*
X131335999Y-98676749D01*
X131335999Y-98676749D02*
X131311465Y-98680746D01*
X131311465Y-98680746D02*
X131297805Y-98686409D01*
X131297805Y-98686409D02*
X131291389Y-98694020D01*
X131291389Y-98694020D02*
X131290199Y-98697143D01*
X131290199Y-98697143D02*
X131285980Y-98715978D01*
X131285980Y-98715978D02*
X131277562Y-98757588D01*
X131277562Y-98757588D02*
X131265961Y-98816630D01*
X131265961Y-98816630D02*
X131252195Y-98887757D01*
X131252195Y-98887757D02*
X131237280Y-98965625D01*
X131237280Y-98965625D02*
X131222232Y-99044887D01*
X131222232Y-99044887D02*
X131208069Y-99120198D01*
X131208069Y-99120198D02*
X131195806Y-99186213D01*
X131195806Y-99186213D02*
X131186461Y-99237587D01*
X131186461Y-99237587D02*
X131181050Y-99268975D01*
X131181050Y-99268975D02*
X131180114Y-99275959D01*
X131180114Y-99275959D02*
X131167596Y-99282285D01*
X131167596Y-99282285D02*
X131134246Y-99296290D01*
X131134246Y-99296290D02*
X131086377Y-99315355D01*
X131086377Y-99315355D02*
X131067629Y-99322634D01*
X131067629Y-99322634D02*
X130995195Y-99351996D01*
X130995195Y-99351996D02*
X130915170Y-99386571D01*
X130915170Y-99386571D02*
X130847728Y-99417537D01*
X130847728Y-99417537D02*
X130796159Y-99440323D01*
X130796159Y-99440323D02*
X130753785Y-99455482D01*
X130753785Y-99455482D02*
X130727834Y-99460542D01*
X130727834Y-99460542D02*
X130724356Y-99459736D01*
X130724356Y-99459736D02*
X130707936Y-99449041D01*
X130707936Y-99449041D02*
X130671417Y-99424620D01*
X130671417Y-99424620D02*
X130618687Y-99389095D01*
X130618687Y-99389095D02*
X130553635Y-99345087D01*
X130553635Y-99345087D02*
X130480151Y-99295217D01*
X130480151Y-99295217D02*
X130465645Y-99285356D01*
X130465645Y-99285356D02*
X130379704Y-99227492D01*
X130379704Y-99227492D02*
X130314261Y-99184956D01*
X130314261Y-99184956D02*
X130266304Y-99156054D01*
X130266304Y-99156054D02*
X130232820Y-99139090D01*
X130232820Y-99139090D02*
X130210795Y-99132367D01*
X130210795Y-99132367D02*
X130197217Y-99134190D01*
X130197217Y-99134190D02*
X130197131Y-99134236D01*
X130197131Y-99134236D02*
X130179297Y-99148586D01*
X130179297Y-99148586D02*
X130144817Y-99180323D01*
X130144817Y-99180323D02*
X130097268Y-99226010D01*
X130097268Y-99226010D02*
X130040222Y-99282204D01*
X130040222Y-99282204D02*
X129977255Y-99345468D01*
X129977255Y-99345468D02*
X129970227Y-99352602D01*
X129970227Y-99352602D02*
X129893020Y-99432330D01*
X129893020Y-99432330D02*
X129836330Y-99493857D01*
X129836330Y-99493857D02*
X129799110Y-99538421D01*
X129799110Y-99538421D02*
X129780315Y-99567257D01*
X129780315Y-99567257D02*
X129777889Y-99579958D01*
X129777889Y-99579958D02*
X129788471Y-99598494D01*
X129788471Y-99598494D02*
X129812916Y-99636961D01*
X129812916Y-99636961D02*
X129848612Y-99691386D01*
X129848612Y-99691386D02*
X129892947Y-99757798D01*
X129892947Y-99757798D02*
X129943311Y-99832225D01*
X129943311Y-99832225D02*
X129955160Y-99849601D01*
X129955160Y-99849601D02*
X130123626Y-100096297D01*
X130123626Y-100096297D02*
X130073062Y-100207706D01*
X130073062Y-100207706D02*
X130043595Y-100275457D01*
X130043595Y-100275457D02*
X130013959Y-100348183D01*
X130013959Y-100348183D02*
X129990330Y-100410703D01*
X129990330Y-100410703D02*
X129989358Y-100413457D01*
X129989358Y-100413457D02*
X129971457Y-100462360D01*
X129971457Y-100462360D02*
X129956320Y-100500057D01*
X129956320Y-100500057D02*
X129947210Y-100518425D01*
X129947210Y-100518425D02*
X129947184Y-100518456D01*
X129947184Y-100518456D02*
X129930717Y-100524285D01*
X129930717Y-100524285D02*
X129890219Y-100534192D01*
X129890219Y-100534192D02*
X129830242Y-100547195D01*
X129830242Y-100547195D02*
X129755340Y-100562309D01*
X129755340Y-100562309D02*
X129670064Y-100578552D01*
X129670064Y-100578552D02*
X129662875Y-100579881D01*
X129662875Y-100579881D02*
X129575014Y-100596175D01*
X129575014Y-100596175D02*
X129495260Y-100611133D01*
X129495260Y-100611133D02*
X129428681Y-100623791D01*
X129428681Y-100623791D02*
X129380347Y-100633186D01*
X129380347Y-100633186D02*
X129355325Y-100638354D01*
X129355325Y-100638354D02*
X129354943Y-100638444D01*
X129354943Y-100638444D02*
X129344299Y-100641589D01*
X129344299Y-100641589D02*
X129336262Y-100647704D01*
X129336262Y-100647704D02*
X129330467Y-100660453D01*
X129330467Y-100660453D02*
X129326547Y-100683500D01*
X129326547Y-100683500D02*
X129324135Y-100720509D01*
X129324135Y-100720509D02*
X129322865Y-100775144D01*
X129322865Y-100775144D02*
X129322371Y-100851067D01*
X129322371Y-100851067D02*
X129322286Y-100951944D01*
X129322286Y-100951944D02*
X129322286Y-100965000D01*
X129322286Y-100965000D02*
X129322348Y-101068910D01*
X129322348Y-101068910D02*
X129322348Y-101068910D01*
G36*
X131947839Y-98747943D02*
G01*
X131949642Y-98757160D01*
X131958980Y-98806109D01*
X131971669Y-98873795D01*
X131986273Y-98952522D01*
X132001355Y-99034600D01*
X132007422Y-99066922D01*
X132022181Y-99139145D01*
X132036137Y-99199334D01*
X132047952Y-99241960D01*
X132056287Y-99261490D01*
X132069905Y-99270340D01*
X132105938Y-99286452D01*
X132152572Y-99302935D01*
X132170034Y-99308737D01*
X132227358Y-99330094D01*
X132295201Y-99357641D01*
X132362355Y-99386893D01*
X132397430Y-99402537D01*
X132449822Y-99424826D01*
X132489058Y-99440143D01*
X132508563Y-99445838D01*
X132510036Y-99445522D01*
X132530729Y-99434719D01*
X132570665Y-99410362D01*
X132625972Y-99374919D01*
X132692781Y-99330864D01*
X132767220Y-99280668D01*
X133009623Y-99115499D01*
X133226983Y-99332497D01*
X133247899Y-99353484D01*
X133310505Y-99417658D01*
X133364495Y-99475010D01*
X133406826Y-99522180D01*
X133434457Y-99555808D01*
X133444343Y-99572533D01*
X133436821Y-99590697D01*
X133415227Y-99628735D01*
X133382151Y-99682274D01*
X133340191Y-99747116D01*
X133291943Y-99819060D01*
X133244291Y-99889725D01*
X133202328Y-99953474D01*
X133169165Y-100005487D01*
X133147378Y-100041721D01*
X133139543Y-100058133D01*
X133139614Y-100059095D01*
X133147338Y-100080897D01*
X133165323Y-100119560D01*
X133190013Y-100167388D01*
X133190284Y-100167890D01*
X133222099Y-100231413D01*
X133237642Y-100274940D01*
X133237685Y-100301948D01*
X133223000Y-100315910D01*
X133208544Y-100321820D01*
X133169831Y-100337771D01*
X133110316Y-100362340D01*
X133033165Y-100394221D01*
X132941541Y-100432107D01*
X132838607Y-100474690D01*
X132727526Y-100520663D01*
X132626472Y-100562333D01*
X132522780Y-100604732D01*
X132430119Y-100642244D01*
X132351642Y-100673612D01*
X132290500Y-100697575D01*
X132249843Y-100712877D01*
X132232825Y-100718257D01*
X132217219Y-100707982D01*
X132191162Y-100679437D01*
X132160887Y-100639029D01*
X132081684Y-100542021D01*
X131980475Y-100455207D01*
X131869116Y-100391678D01*
X131750893Y-100351823D01*
X131629095Y-100336035D01*
X131507010Y-100344704D01*
X131387925Y-100378222D01*
X131275129Y-100436979D01*
X131171911Y-100521368D01*
X131131713Y-100565369D01*
X131060638Y-100670789D01*
X131014301Y-100783590D01*
X130991599Y-100900475D01*
X130991428Y-101018147D01*
X131012687Y-101133310D01*
X131054270Y-101242665D01*
X131115076Y-101342917D01*
X131194001Y-101430767D01*
X131289941Y-101502920D01*
X131401795Y-101556078D01*
X131528457Y-101586943D01*
X131589507Y-101592608D01*
X131721776Y-101584815D01*
X131847266Y-101549716D01*
X131963759Y-101488351D01*
X132069039Y-101401757D01*
X132160887Y-101290971D01*
X132189930Y-101252069D01*
X132216272Y-101222896D01*
X132232800Y-101211743D01*
X132247209Y-101216190D01*
X132285815Y-101230622D01*
X132345201Y-101253827D01*
X132422215Y-101284548D01*
X132513703Y-101321526D01*
X132616516Y-101363504D01*
X132727502Y-101409222D01*
X132828072Y-101450822D01*
X132931947Y-101493778D01*
X133024819Y-101532171D01*
X133103525Y-101564695D01*
X133164899Y-101590042D01*
X133205779Y-101606905D01*
X133223000Y-101613975D01*
X133223204Y-101614057D01*
X133237745Y-101628202D01*
X133237579Y-101655341D01*
X133221927Y-101698977D01*
X133190013Y-101762612D01*
X133187326Y-101767621D01*
X133163150Y-101814875D01*
X133146037Y-101852189D01*
X133139543Y-101871867D01*
X133147218Y-101887995D01*
X133168871Y-101924041D01*
X133201928Y-101975908D01*
X133243810Y-102039555D01*
X133291943Y-102110940D01*
X133339131Y-102181276D01*
X133381267Y-102246330D01*
X133414578Y-102300180D01*
X133436469Y-102338626D01*
X133444343Y-102357466D01*
X133443343Y-102360675D01*
X133427584Y-102383046D01*
X133395033Y-102421267D01*
X133348733Y-102471979D01*
X133291726Y-102531819D01*
X133227058Y-102597429D01*
X133009772Y-102814352D01*
X132761253Y-102645399D01*
X132512733Y-102476447D01*
X132401595Y-102527817D01*
X132401266Y-102527969D01*
X132330418Y-102558817D01*
X132251523Y-102590339D01*
X132181600Y-102615734D01*
X132170322Y-102619577D01*
X132117967Y-102638953D01*
X132077283Y-102656426D01*
X132056287Y-102668612D01*
X132053322Y-102673574D01*
X132043375Y-102703366D01*
X132030505Y-102753953D01*
X132016053Y-102819806D01*
X132001355Y-102895400D01*
X131997210Y-102918043D01*
X131982116Y-102999962D01*
X131967899Y-103076400D01*
X131955995Y-103139663D01*
X131947839Y-103182057D01*
X131932799Y-103258257D01*
X131615492Y-103258257D01*
X131576476Y-103258240D01*
X131481292Y-103257918D01*
X131410255Y-103256967D01*
X131359734Y-103255104D01*
X131326098Y-103252045D01*
X131305718Y-103247506D01*
X131294962Y-103241205D01*
X131290199Y-103232857D01*
X131288270Y-103224776D01*
X131281445Y-103191828D01*
X131271022Y-103139264D01*
X131258018Y-103072431D01*
X131243449Y-102996672D01*
X131228333Y-102917335D01*
X131213685Y-102839763D01*
X131200523Y-102769302D01*
X131189863Y-102711298D01*
X131182721Y-102671096D01*
X131180114Y-102654041D01*
X131178541Y-102652888D01*
X131158119Y-102643615D01*
X131119045Y-102627568D01*
X131067629Y-102607365D01*
X130998353Y-102579328D01*
X130918290Y-102544814D01*
X130847728Y-102512462D01*
X130831889Y-102505048D01*
X130782293Y-102484245D01*
X130744038Y-102471781D01*
X130724356Y-102470137D01*
X130722962Y-102470985D01*
X130702420Y-102484452D01*
X130662516Y-102511150D01*
X130607140Y-102548461D01*
X130540177Y-102593766D01*
X130465517Y-102644448D01*
X130380692Y-102701555D01*
X130314800Y-102744393D01*
X130266478Y-102773540D01*
X130232733Y-102790683D01*
X130210572Y-102797505D01*
X130197002Y-102795694D01*
X130195984Y-102795085D01*
X130176210Y-102778703D01*
X130140175Y-102745305D01*
X130091451Y-102698329D01*
X130033612Y-102641214D01*
X129970227Y-102577397D01*
X129905905Y-102511198D01*
X129845447Y-102446352D01*
X129804655Y-102398701D01*
X129782484Y-102367010D01*
X129777889Y-102350042D01*
X129778921Y-102347825D01*
X129792837Y-102324476D01*
X129820030Y-102282088D01*
X129857889Y-102224631D01*
X129903803Y-102156077D01*
X129955160Y-102080399D01*
X130123626Y-101833702D01*
X130073062Y-101722294D01*
X130071597Y-101719057D01*
X130041965Y-101650657D01*
X130012493Y-101578093D01*
X129989358Y-101516543D01*
X129989262Y-101516271D01*
X129971367Y-101467405D01*
X129956253Y-101429788D01*
X129947184Y-101411543D01*
X129946855Y-101411248D01*
X129928282Y-101405054D01*
X129886045Y-101394861D01*
X129824696Y-101381652D01*
X129748789Y-101366410D01*
X129662875Y-101350119D01*
X129659796Y-101349551D01*
X129572128Y-101333287D01*
X129492741Y-101318392D01*
X129426701Y-101305829D01*
X129379079Y-101296562D01*
X129354943Y-101291556D01*
X129353605Y-101291236D01*
X129343273Y-101287940D01*
X129335506Y-101281262D01*
X129329940Y-101267538D01*
X129326207Y-101243105D01*
X129323942Y-101204298D01*
X129322778Y-101147454D01*
X129322348Y-101068910D01*
X129322286Y-100965000D01*
X129322286Y-100951944D01*
X129322371Y-100851067D01*
X129322865Y-100775144D01*
X129324135Y-100720509D01*
X129326547Y-100683500D01*
X129330467Y-100660453D01*
X129336262Y-100647704D01*
X129344299Y-100641589D01*
X129354943Y-100638444D01*
X129355325Y-100638354D01*
X129380347Y-100633186D01*
X129428681Y-100623791D01*
X129495260Y-100611133D01*
X129575014Y-100596175D01*
X129662875Y-100579881D01*
X129670064Y-100578552D01*
X129755340Y-100562309D01*
X129830242Y-100547195D01*
X129890219Y-100534192D01*
X129930717Y-100524285D01*
X129947184Y-100518456D01*
X129947210Y-100518425D01*
X129956320Y-100500057D01*
X129971457Y-100462360D01*
X129989358Y-100413457D01*
X129990330Y-100410703D01*
X130013959Y-100348183D01*
X130043595Y-100275457D01*
X130073062Y-100207706D01*
X130123626Y-100096297D01*
X129955160Y-99849601D01*
X129943311Y-99832225D01*
X129892947Y-99757798D01*
X129848612Y-99691386D01*
X129812916Y-99636961D01*
X129788471Y-99598494D01*
X129777889Y-99579958D01*
X129780315Y-99567257D01*
X129799110Y-99538421D01*
X129836330Y-99493857D01*
X129893020Y-99432330D01*
X129970227Y-99352602D01*
X129977255Y-99345468D01*
X130040222Y-99282204D01*
X130097268Y-99226010D01*
X130144817Y-99180323D01*
X130179297Y-99148586D01*
X130197131Y-99134236D01*
X130197217Y-99134190D01*
X130210795Y-99132367D01*
X130232820Y-99139090D01*
X130266304Y-99156054D01*
X130314261Y-99184956D01*
X130379704Y-99227492D01*
X130465645Y-99285356D01*
X130480151Y-99295217D01*
X130553635Y-99345087D01*
X130618687Y-99389095D01*
X130671417Y-99424620D01*
X130707936Y-99449041D01*
X130724356Y-99459736D01*
X130727834Y-99460542D01*
X130753785Y-99455482D01*
X130796159Y-99440323D01*
X130847728Y-99417537D01*
X130915170Y-99386571D01*
X130995195Y-99351996D01*
X131067629Y-99322634D01*
X131086377Y-99315355D01*
X131134246Y-99296290D01*
X131167596Y-99282285D01*
X131180114Y-99275959D01*
X131181050Y-99268975D01*
X131186461Y-99237587D01*
X131195806Y-99186213D01*
X131208069Y-99120198D01*
X131222232Y-99044887D01*
X131237280Y-98965625D01*
X131252195Y-98887757D01*
X131265961Y-98816630D01*
X131277562Y-98757588D01*
X131285980Y-98715978D01*
X131290199Y-98697143D01*
X131291389Y-98694020D01*
X131297805Y-98686409D01*
X131311465Y-98680746D01*
X131335999Y-98676749D01*
X131375038Y-98674134D01*
X131432213Y-98672616D01*
X131511154Y-98671914D01*
X131615492Y-98671743D01*
X131932799Y-98671743D01*
X131947839Y-98747943D01*
G37*
X131947839Y-98747943D02*
X131949642Y-98757160D01*
X131958980Y-98806109D01*
X131971669Y-98873795D01*
X131986273Y-98952522D01*
X132001355Y-99034600D01*
X132007422Y-99066922D01*
X132022181Y-99139145D01*
X132036137Y-99199334D01*
X132047952Y-99241960D01*
X132056287Y-99261490D01*
X132069905Y-99270340D01*
X132105938Y-99286452D01*
X132152572Y-99302935D01*
X132170034Y-99308737D01*
X132227358Y-99330094D01*
X132295201Y-99357641D01*
X132362355Y-99386893D01*
X132397430Y-99402537D01*
X132449822Y-99424826D01*
X132489058Y-99440143D01*
X132508563Y-99445838D01*
X132510036Y-99445522D01*
X132530729Y-99434719D01*
X132570665Y-99410362D01*
X132625972Y-99374919D01*
X132692781Y-99330864D01*
X132767220Y-99280668D01*
X133009623Y-99115499D01*
X133226983Y-99332497D01*
X133247899Y-99353484D01*
X133310505Y-99417658D01*
X133364495Y-99475010D01*
X133406826Y-99522180D01*
X133434457Y-99555808D01*
X133444343Y-99572533D01*
X133436821Y-99590697D01*
X133415227Y-99628735D01*
X133382151Y-99682274D01*
X133340191Y-99747116D01*
X133291943Y-99819060D01*
X133244291Y-99889725D01*
X133202328Y-99953474D01*
X133169165Y-100005487D01*
X133147378Y-100041721D01*
X133139543Y-100058133D01*
X133139614Y-100059095D01*
X133147338Y-100080897D01*
X133165323Y-100119560D01*
X133190013Y-100167388D01*
X133190284Y-100167890D01*
X133222099Y-100231413D01*
X133237642Y-100274940D01*
X133237685Y-100301948D01*
X133223000Y-100315910D01*
X133208544Y-100321820D01*
X133169831Y-100337771D01*
X133110316Y-100362340D01*
X133033165Y-100394221D01*
X132941541Y-100432107D01*
X132838607Y-100474690D01*
X132727526Y-100520663D01*
X132626472Y-100562333D01*
X132522780Y-100604732D01*
X132430119Y-100642244D01*
X132351642Y-100673612D01*
X132290500Y-100697575D01*
X132249843Y-100712877D01*
X132232825Y-100718257D01*
X132217219Y-100707982D01*
X132191162Y-100679437D01*
X132160887Y-100639029D01*
X132081684Y-100542021D01*
X131980475Y-100455207D01*
X131869116Y-100391678D01*
X131750893Y-100351823D01*
X131629095Y-100336035D01*
X131507010Y-100344704D01*
X131387925Y-100378222D01*
X131275129Y-100436979D01*
X131171911Y-100521368D01*
X131131713Y-100565369D01*
X131060638Y-100670789D01*
X131014301Y-100783590D01*
X130991599Y-100900475D01*
X130991428Y-101018147D01*
X131012687Y-101133310D01*
X131054270Y-101242665D01*
X131115076Y-101342917D01*
X131194001Y-101430767D01*
X131289941Y-101502920D01*
X131401795Y-101556078D01*
X131528457Y-101586943D01*
X131589507Y-101592608D01*
X131721776Y-101584815D01*
X131847266Y-101549716D01*
X131963759Y-101488351D01*
X132069039Y-101401757D01*
X132160887Y-101290971D01*
X132189930Y-101252069D01*
X132216272Y-101222896D01*
X132232800Y-101211743D01*
X132247209Y-101216190D01*
X132285815Y-101230622D01*
X132345201Y-101253827D01*
X132422215Y-101284548D01*
X132513703Y-101321526D01*
X132616516Y-101363504D01*
X132727502Y-101409222D01*
X132828072Y-101450822D01*
X132931947Y-101493778D01*
X133024819Y-101532171D01*
X133103525Y-101564695D01*
X133164899Y-101590042D01*
X133205779Y-101606905D01*
X133223000Y-101613975D01*
X133223204Y-101614057D01*
X133237745Y-101628202D01*
X133237579Y-101655341D01*
X133221927Y-101698977D01*
X133190013Y-101762612D01*
X133187326Y-101767621D01*
X133163150Y-101814875D01*
X133146037Y-101852189D01*
X133139543Y-101871867D01*
X133147218Y-101887995D01*
X133168871Y-101924041D01*
X133201928Y-101975908D01*
X133243810Y-102039555D01*
X133291943Y-102110940D01*
X133339131Y-102181276D01*
X133381267Y-102246330D01*
X133414578Y-102300180D01*
X133436469Y-102338626D01*
X133444343Y-102357466D01*
X133443343Y-102360675D01*
X133427584Y-102383046D01*
X133395033Y-102421267D01*
X133348733Y-102471979D01*
X133291726Y-102531819D01*
X133227058Y-102597429D01*
X133009772Y-102814352D01*
X132761253Y-102645399D01*
X132512733Y-102476447D01*
X132401595Y-102527817D01*
X132401266Y-102527969D01*
X132330418Y-102558817D01*
X132251523Y-102590339D01*
X132181600Y-102615734D01*
X132170322Y-102619577D01*
X132117967Y-102638953D01*
X132077283Y-102656426D01*
X132056287Y-102668612D01*
X132053322Y-102673574D01*
X132043375Y-102703366D01*
X132030505Y-102753953D01*
X132016053Y-102819806D01*
X132001355Y-102895400D01*
X131997210Y-102918043D01*
X131982116Y-102999962D01*
X131967899Y-103076400D01*
X131955995Y-103139663D01*
X131947839Y-103182057D01*
X131932799Y-103258257D01*
X131615492Y-103258257D01*
X131576476Y-103258240D01*
X131481292Y-103257918D01*
X131410255Y-103256967D01*
X131359734Y-103255104D01*
X131326098Y-103252045D01*
X131305718Y-103247506D01*
X131294962Y-103241205D01*
X131290199Y-103232857D01*
X131288270Y-103224776D01*
X131281445Y-103191828D01*
X131271022Y-103139264D01*
X131258018Y-103072431D01*
X131243449Y-102996672D01*
X131228333Y-102917335D01*
X131213685Y-102839763D01*
X131200523Y-102769302D01*
X131189863Y-102711298D01*
X131182721Y-102671096D01*
X131180114Y-102654041D01*
X131178541Y-102652888D01*
X131158119Y-102643615D01*
X131119045Y-102627568D01*
X131067629Y-102607365D01*
X130998353Y-102579328D01*
X130918290Y-102544814D01*
X130847728Y-102512462D01*
X130831889Y-102505048D01*
X130782293Y-102484245D01*
X130744038Y-102471781D01*
X130724356Y-102470137D01*
X130722962Y-102470985D01*
X130702420Y-102484452D01*
X130662516Y-102511150D01*
X130607140Y-102548461D01*
X130540177Y-102593766D01*
X130465517Y-102644448D01*
X130380692Y-102701555D01*
X130314800Y-102744393D01*
X130266478Y-102773540D01*
X130232733Y-102790683D01*
X130210572Y-102797505D01*
X130197002Y-102795694D01*
X130195984Y-102795085D01*
X130176210Y-102778703D01*
X130140175Y-102745305D01*
X130091451Y-102698329D01*
X130033612Y-102641214D01*
X129970227Y-102577397D01*
X129905905Y-102511198D01*
X129845447Y-102446352D01*
X129804655Y-102398701D01*
X129782484Y-102367010D01*
X129777889Y-102350042D01*
X129778921Y-102347825D01*
X129792837Y-102324476D01*
X129820030Y-102282088D01*
X129857889Y-102224631D01*
X129903803Y-102156077D01*
X129955160Y-102080399D01*
X130123626Y-101833702D01*
X130073062Y-101722294D01*
X130071597Y-101719057D01*
X130041965Y-101650657D01*
X130012493Y-101578093D01*
X129989358Y-101516543D01*
X129989262Y-101516271D01*
X129971367Y-101467405D01*
X129956253Y-101429788D01*
X129947184Y-101411543D01*
X129946855Y-101411248D01*
X129928282Y-101405054D01*
X129886045Y-101394861D01*
X129824696Y-101381652D01*
X129748789Y-101366410D01*
X129662875Y-101350119D01*
X129659796Y-101349551D01*
X129572128Y-101333287D01*
X129492741Y-101318392D01*
X129426701Y-101305829D01*
X129379079Y-101296562D01*
X129354943Y-101291556D01*
X129353605Y-101291236D01*
X129343273Y-101287940D01*
X129335506Y-101281262D01*
X129329940Y-101267538D01*
X129326207Y-101243105D01*
X129323942Y-101204298D01*
X129322778Y-101147454D01*
X129322348Y-101068910D01*
X129322286Y-100965000D01*
X129322286Y-100951944D01*
X129322371Y-100851067D01*
X129322865Y-100775144D01*
X129324135Y-100720509D01*
X129326547Y-100683500D01*
X129330467Y-100660453D01*
X129336262Y-100647704D01*
X129344299Y-100641589D01*
X129354943Y-100638444D01*
X129355325Y-100638354D01*
X129380347Y-100633186D01*
X129428681Y-100623791D01*
X129495260Y-100611133D01*
X129575014Y-100596175D01*
X129662875Y-100579881D01*
X129670064Y-100578552D01*
X129755340Y-100562309D01*
X129830242Y-100547195D01*
X129890219Y-100534192D01*
X129930717Y-100524285D01*
X129947184Y-100518456D01*
X129947210Y-100518425D01*
X129956320Y-100500057D01*
X129971457Y-100462360D01*
X129989358Y-100413457D01*
X129990330Y-100410703D01*
X130013959Y-100348183D01*
X130043595Y-100275457D01*
X130073062Y-100207706D01*
X130123626Y-100096297D01*
X129955160Y-99849601D01*
X129943311Y-99832225D01*
X129892947Y-99757798D01*
X129848612Y-99691386D01*
X129812916Y-99636961D01*
X129788471Y-99598494D01*
X129777889Y-99579958D01*
X129780315Y-99567257D01*
X129799110Y-99538421D01*
X129836330Y-99493857D01*
X129893020Y-99432330D01*
X129970227Y-99352602D01*
X129977255Y-99345468D01*
X130040222Y-99282204D01*
X130097268Y-99226010D01*
X130144817Y-99180323D01*
X130179297Y-99148586D01*
X130197131Y-99134236D01*
X130197217Y-99134190D01*
X130210795Y-99132367D01*
X130232820Y-99139090D01*
X130266304Y-99156054D01*
X130314261Y-99184956D01*
X130379704Y-99227492D01*
X130465645Y-99285356D01*
X130480151Y-99295217D01*
X130553635Y-99345087D01*
X130618687Y-99389095D01*
X130671417Y-99424620D01*
X130707936Y-99449041D01*
X130724356Y-99459736D01*
X130727834Y-99460542D01*
X130753785Y-99455482D01*
X130796159Y-99440323D01*
X130847728Y-99417537D01*
X130915170Y-99386571D01*
X130995195Y-99351996D01*
X131067629Y-99322634D01*
X131086377Y-99315355D01*
X131134246Y-99296290D01*
X131167596Y-99282285D01*
X131180114Y-99275959D01*
X131181050Y-99268975D01*
X131186461Y-99237587D01*
X131195806Y-99186213D01*
X131208069Y-99120198D01*
X131222232Y-99044887D01*
X131237280Y-98965625D01*
X131252195Y-98887757D01*
X131265961Y-98816630D01*
X131277562Y-98757588D01*
X131285980Y-98715978D01*
X131290199Y-98697143D01*
X131291389Y-98694020D01*
X131297805Y-98686409D01*
X131311465Y-98680746D01*
X131335999Y-98676749D01*
X131375038Y-98674134D01*
X131432213Y-98672616D01*
X131511154Y-98671914D01*
X131615492Y-98671743D01*
X131932799Y-98671743D01*
X131947839Y-98747943D01*
X134036335Y-103109876D02*
X134055344Y-103151667D01*
X134055344Y-103151667D02*
X134078378Y-103184469D01*
X134078378Y-103184469D02*
X134104133Y-103208503D01*
X134104133Y-103208503D02*
X134137358Y-103225097D01*
X134137358Y-103225097D02*
X134182800Y-103235577D01*
X134182800Y-103235577D02*
X134245207Y-103241271D01*
X134245207Y-103241271D02*
X134329327Y-103243507D01*
X134329327Y-103243507D02*
X134384721Y-103243743D01*
X134384721Y-103243743D02*
X134600826Y-103243743D01*
X134600826Y-103243743D02*
X134617670Y-103206774D01*
X134617670Y-103206774D02*
X134629981Y-103177656D01*
X134629981Y-103177656D02*
X134634514Y-103163231D01*
X134634514Y-103163231D02*
X134621025Y-103160472D01*
X134621025Y-103160472D02*
X134584653Y-103158282D01*
X134584653Y-103158282D02*
X134531542Y-103156942D01*
X134531542Y-103156942D02*
X134489372Y-103156657D01*
X134489372Y-103156657D02*
X134428447Y-103155434D01*
X134428447Y-103155434D02*
X134380115Y-103152136D01*
X134380115Y-103152136D02*
X134350518Y-103147321D01*
X134350518Y-103147321D02*
X134344229Y-103143496D01*
X134344229Y-103143496D02*
X134350652Y-103117783D01*
X134350652Y-103117783D02*
X134367125Y-103077418D01*
X134367125Y-103077418D02*
X134389458Y-103030679D01*
X134389458Y-103030679D02*
X134413457Y-102985845D01*
X134413457Y-102985845D02*
X134434930Y-102951193D01*
X134434930Y-102951193D02*
X134449685Y-102935002D01*
X134449685Y-102935002D02*
X134449845Y-102934938D01*
X134449845Y-102934938D02*
X134477152Y-102936330D01*
X134477152Y-102936330D02*
X134503219Y-102948818D01*
X134503219Y-102948818D02*
X134524392Y-102970743D01*
X134524392Y-102970743D02*
X134531474Y-103002743D01*
X134531474Y-103002743D02*
X134530649Y-103030092D01*
X134530649Y-103030092D02*
X134530042Y-103068826D01*
X134530042Y-103068826D02*
X134539116Y-103089158D01*
X134539116Y-103089158D02*
X134563092Y-103101369D01*
X134563092Y-103101369D02*
X134567613Y-103102909D01*
X134567613Y-103102909D02*
X134601806Y-103108203D01*
X134601806Y-103108203D02*
X134622568Y-103094047D01*
X134622568Y-103094047D02*
X134632462Y-103057148D01*
X134632462Y-103057148D02*
X134634292Y-103017289D01*
X134634292Y-103017289D02*
X134620727Y-102945562D01*
X134620727Y-102945562D02*
X134601355Y-102908432D01*
X134601355Y-102908432D02*
X134555845Y-102862576D01*
X134555845Y-102862576D02*
X134499983Y-102838256D01*
X134499983Y-102838256D02*
X134440957Y-102836073D01*
X134440957Y-102836073D02*
X134385953Y-102856629D01*
X134385953Y-102856629D02*
X134351486Y-102887549D01*
X134351486Y-102887549D02*
X134332189Y-102918420D01*
X134332189Y-102918420D02*
X134307759Y-102966942D01*
X134307759Y-102966942D02*
X134282985Y-103023485D01*
X134282985Y-103023485D02*
X134279199Y-103032910D01*
X134279199Y-103032910D02*
X134251791Y-103095019D01*
X134251791Y-103095019D02*
X134227634Y-103130822D01*
X134227634Y-103130822D02*
X134203619Y-103142337D01*
X134203619Y-103142337D02*
X134176635Y-103131580D01*
X134176635Y-103131580D02*
X134155543Y-103113114D01*
X134155543Y-103113114D02*
X134129572Y-103069469D01*
X134129572Y-103069469D02*
X134127624Y-103021446D01*
X134127624Y-103021446D02*
X134147637Y-102977406D01*
X134147637Y-102977406D02*
X134187551Y-102945709D01*
X134187551Y-102945709D02*
X134197848Y-102941549D01*
X134197848Y-102941549D02*
X134235724Y-102917327D01*
X134235724Y-102917327D02*
X134263842Y-102881965D01*
X134263842Y-102881965D02*
X134286917Y-102837343D01*
X134286917Y-102837343D02*
X134221485Y-102837343D01*
X134221485Y-102837343D02*
X134181506Y-102839969D01*
X134181506Y-102839969D02*
X134149997Y-102851230D01*
X134149997Y-102851230D02*
X134116378Y-102876199D01*
X134116378Y-102876199D02*
X134090484Y-102900169D01*
X134090484Y-102900169D02*
X134053817Y-102937441D01*
X134053817Y-102937441D02*
X134034121Y-102966401D01*
X134034121Y-102966401D02*
X134026220Y-102997505D01*
X134026220Y-102997505D02*
X134024914Y-103032713D01*
X134024914Y-103032713D02*
X134036335Y-103109876D01*
X134036335Y-103109876D02*
X134036335Y-103109876D01*
G36*
X134499983Y-102838256D02*
G01*
X134555845Y-102862576D01*
X134601355Y-102908432D01*
X134620727Y-102945562D01*
X134634292Y-103017289D01*
X134632462Y-103057148D01*
X134622568Y-103094047D01*
X134601806Y-103108203D01*
X134567613Y-103102909D01*
X134563092Y-103101369D01*
X134539116Y-103089158D01*
X134530042Y-103068826D01*
X134530649Y-103030092D01*
X134531474Y-103002743D01*
X134524392Y-102970743D01*
X134503219Y-102948818D01*
X134477152Y-102936330D01*
X134449845Y-102934938D01*
X134449685Y-102935002D01*
X134434930Y-102951193D01*
X134413457Y-102985845D01*
X134389458Y-103030679D01*
X134367125Y-103077418D01*
X134350652Y-103117783D01*
X134344229Y-103143496D01*
X134350518Y-103147321D01*
X134380115Y-103152136D01*
X134428447Y-103155434D01*
X134489372Y-103156657D01*
X134531542Y-103156942D01*
X134584653Y-103158282D01*
X134621025Y-103160472D01*
X134634514Y-103163231D01*
X134629981Y-103177656D01*
X134617670Y-103206774D01*
X134600826Y-103243743D01*
X134384721Y-103243743D01*
X134329327Y-103243507D01*
X134245207Y-103241271D01*
X134182800Y-103235577D01*
X134137358Y-103225097D01*
X134104133Y-103208503D01*
X134078378Y-103184469D01*
X134055344Y-103151667D01*
X134036335Y-103109876D01*
X134024914Y-103032713D01*
X134026220Y-102997505D01*
X134034121Y-102966401D01*
X134053817Y-102937441D01*
X134090484Y-102900169D01*
X134116378Y-102876199D01*
X134149997Y-102851230D01*
X134181506Y-102839969D01*
X134221485Y-102837343D01*
X134286917Y-102837343D01*
X134263842Y-102881965D01*
X134235724Y-102917327D01*
X134197848Y-102941549D01*
X134187551Y-102945709D01*
X134147637Y-102977406D01*
X134127624Y-103021446D01*
X134129572Y-103069469D01*
X134155543Y-103113114D01*
X134176635Y-103131580D01*
X134203619Y-103142337D01*
X134227634Y-103130822D01*
X134251791Y-103095019D01*
X134279199Y-103032910D01*
X134282985Y-103023485D01*
X134307759Y-102966942D01*
X134332189Y-102918420D01*
X134351486Y-102887549D01*
X134385953Y-102856629D01*
X134440957Y-102836073D01*
X134499983Y-102838256D01*
G37*
X134499983Y-102838256D02*
X134555845Y-102862576D01*
X134601355Y-102908432D01*
X134620727Y-102945562D01*
X134634292Y-103017289D01*
X134632462Y-103057148D01*
X134622568Y-103094047D01*
X134601806Y-103108203D01*
X134567613Y-103102909D01*
X134563092Y-103101369D01*
X134539116Y-103089158D01*
X134530042Y-103068826D01*
X134530649Y-103030092D01*
X134531474Y-103002743D01*
X134524392Y-102970743D01*
X134503219Y-102948818D01*
X134477152Y-102936330D01*
X134449845Y-102934938D01*
X134449685Y-102935002D01*
X134434930Y-102951193D01*
X134413457Y-102985845D01*
X134389458Y-103030679D01*
X134367125Y-103077418D01*
X134350652Y-103117783D01*
X134344229Y-103143496D01*
X134350518Y-103147321D01*
X134380115Y-103152136D01*
X134428447Y-103155434D01*
X134489372Y-103156657D01*
X134531542Y-103156942D01*
X134584653Y-103158282D01*
X134621025Y-103160472D01*
X134634514Y-103163231D01*
X134629981Y-103177656D01*
X134617670Y-103206774D01*
X134600826Y-103243743D01*
X134384721Y-103243743D01*
X134329327Y-103243507D01*
X134245207Y-103241271D01*
X134182800Y-103235577D01*
X134137358Y-103225097D01*
X134104133Y-103208503D01*
X134078378Y-103184469D01*
X134055344Y-103151667D01*
X134036335Y-103109876D01*
X134024914Y-103032713D01*
X134026220Y-102997505D01*
X134034121Y-102966401D01*
X134053817Y-102937441D01*
X134090484Y-102900169D01*
X134116378Y-102876199D01*
X134149997Y-102851230D01*
X134181506Y-102839969D01*
X134221485Y-102837343D01*
X134286917Y-102837343D01*
X134263842Y-102881965D01*
X134235724Y-102917327D01*
X134197848Y-102941549D01*
X134187551Y-102945709D01*
X134147637Y-102977406D01*
X134127624Y-103021446D01*
X134129572Y-103069469D01*
X134155543Y-103113114D01*
X134176635Y-103131580D01*
X134203619Y-103142337D01*
X134227634Y-103130822D01*
X134251791Y-103095019D01*
X134279199Y-103032910D01*
X134282985Y-103023485D01*
X134307759Y-102966942D01*
X134332189Y-102918420D01*
X134351486Y-102887549D01*
X134385953Y-102856629D01*
X134440957Y-102836073D01*
X134499983Y-102838256D01*
X134011239Y-99133303D02*
X134049735Y-99190527D01*
X134049735Y-99190527D02*
X134105335Y-99234749D01*
X134105335Y-99234749D02*
X134176086Y-99261167D01*
X134176086Y-99261167D02*
X134228162Y-99266510D01*
X134228162Y-99266510D02*
X134249893Y-99265903D01*
X134249893Y-99265903D02*
X134266531Y-99260822D01*
X134266531Y-99260822D02*
X134281437Y-99246855D01*
X134281437Y-99246855D02*
X134297973Y-99219589D01*
X134297973Y-99219589D02*
X134319498Y-99174612D01*
X134319498Y-99174612D02*
X134349374Y-99107511D01*
X134349374Y-99107511D02*
X134349524Y-99107171D01*
X134349524Y-99107171D02*
X134377813Y-99045407D01*
X134377813Y-99045407D02*
X134402933Y-98994759D01*
X134402933Y-98994759D02*
X134422179Y-98960404D01*
X134422179Y-98960404D02*
X134432848Y-98947518D01*
X134432848Y-98947518D02*
X134432934Y-98947514D01*
X134432934Y-98947514D02*
X134456166Y-98958872D01*
X134456166Y-98958872D02*
X134481774Y-98985431D01*
X134481774Y-98985431D02*
X134500221Y-99015923D01*
X134500221Y-99015923D02*
X134503886Y-99031370D01*
X134503886Y-99031370D02*
X134491212Y-99073515D01*
X134491212Y-99073515D02*
X134459471Y-99109808D01*
X134459471Y-99109808D02*
X134424572Y-99127517D01*
X134424572Y-99127517D02*
X134398845Y-99144552D01*
X134398845Y-99144552D02*
X134369546Y-99177922D01*
X134369546Y-99177922D02*
X134344235Y-99217149D01*
X134344235Y-99217149D02*
X134330471Y-99251756D01*
X134330471Y-99251756D02*
X134329714Y-99258993D01*
X134329714Y-99258993D02*
X134342160Y-99267139D01*
X134342160Y-99267139D02*
X134373972Y-99267630D01*
X134373972Y-99267630D02*
X134416866Y-99261643D01*
X134416866Y-99261643D02*
X134462558Y-99250357D01*
X134462558Y-99250357D02*
X134502761Y-99234950D01*
X134502761Y-99234950D02*
X134504322Y-99234171D01*
X134504322Y-99234171D02*
X134569062Y-99187804D01*
X134569062Y-99187804D02*
X134613097Y-99127711D01*
X134613097Y-99127711D02*
X134634711Y-99059465D01*
X134634711Y-99059465D02*
X134632185Y-98988638D01*
X134632185Y-98988638D02*
X134603804Y-98920804D01*
X134603804Y-98920804D02*
X134601808Y-98917788D01*
X134601808Y-98917788D02*
X134553448Y-98864427D01*
X134553448Y-98864427D02*
X134490352Y-98829340D01*
X134490352Y-98829340D02*
X134407387Y-98809922D01*
X134407387Y-98809922D02*
X134384078Y-98807316D01*
X134384078Y-98807316D02*
X134274055Y-98802701D01*
X134274055Y-98802701D02*
X134222748Y-98808233D01*
X134222748Y-98808233D02*
X134222748Y-98947514D01*
X134222748Y-98947514D02*
X134254753Y-98949324D01*
X134254753Y-98949324D02*
X134264093Y-98959222D01*
X134264093Y-98959222D02*
X134257105Y-98983898D01*
X134257105Y-98983898D02*
X134240587Y-99022795D01*
X134240587Y-99022795D02*
X134219881Y-99066275D01*
X134219881Y-99066275D02*
X134219333Y-99067356D01*
X134219333Y-99067356D02*
X134199949Y-99104209D01*
X134199949Y-99104209D02*
X134187013Y-99119000D01*
X134187013Y-99119000D02*
X134173451Y-99115353D01*
X134173451Y-99115353D02*
X134155632Y-99099995D01*
X134155632Y-99099995D02*
X134129845Y-99060923D01*
X134129845Y-99060923D02*
X134127950Y-99018846D01*
X134127950Y-99018846D02*
X134146717Y-98981103D01*
X134146717Y-98981103D02*
X134182915Y-98955034D01*
X134182915Y-98955034D02*
X134222748Y-98947514D01*
X134222748Y-98947514D02*
X134222748Y-98808233D01*
X134222748Y-98808233D02*
X134186027Y-98812194D01*
X134186027Y-98812194D02*
X134116212Y-98836550D01*
X134116212Y-98836550D02*
X134067302Y-98870456D01*
X134067302Y-98870456D02*
X134017878Y-98931653D01*
X134017878Y-98931653D02*
X133993359Y-98999063D01*
X133993359Y-98999063D02*
X133991797Y-99067880D01*
X133991797Y-99067880D02*
X134011239Y-99133303D01*
X134011239Y-99133303D02*
X134011239Y-99133303D01*
G36*
X134384078Y-98807316D02*
G01*
X134407387Y-98809922D01*
X134490352Y-98829340D01*
X134553448Y-98864427D01*
X134601808Y-98917788D01*
X134603804Y-98920804D01*
X134632185Y-98988638D01*
X134634711Y-99059465D01*
X134613097Y-99127711D01*
X134569062Y-99187804D01*
X134504322Y-99234171D01*
X134502761Y-99234950D01*
X134462558Y-99250357D01*
X134416866Y-99261643D01*
X134373972Y-99267630D01*
X134342160Y-99267139D01*
X134329714Y-99258993D01*
X134330471Y-99251756D01*
X134344235Y-99217149D01*
X134369546Y-99177922D01*
X134398845Y-99144552D01*
X134424572Y-99127517D01*
X134459471Y-99109808D01*
X134491212Y-99073515D01*
X134503886Y-99031370D01*
X134500221Y-99015923D01*
X134481774Y-98985431D01*
X134456166Y-98958872D01*
X134432934Y-98947514D01*
X134432848Y-98947518D01*
X134422179Y-98960404D01*
X134402933Y-98994759D01*
X134377813Y-99045407D01*
X134349524Y-99107171D01*
X134349374Y-99107511D01*
X134319498Y-99174612D01*
X134297973Y-99219589D01*
X134281437Y-99246855D01*
X134266531Y-99260822D01*
X134249893Y-99265903D01*
X134228162Y-99266510D01*
X134176086Y-99261167D01*
X134105335Y-99234749D01*
X134049735Y-99190527D01*
X134011239Y-99133303D01*
X133991797Y-99067880D01*
X133992910Y-99018846D01*
X134127950Y-99018846D01*
X134129845Y-99060923D01*
X134155632Y-99099995D01*
X134173451Y-99115353D01*
X134187013Y-99119000D01*
X134199949Y-99104209D01*
X134219333Y-99067356D01*
X134219881Y-99066275D01*
X134240587Y-99022795D01*
X134257105Y-98983898D01*
X134264093Y-98959222D01*
X134254753Y-98949324D01*
X134222748Y-98947514D01*
X134182915Y-98955034D01*
X134146717Y-98981103D01*
X134127950Y-99018846D01*
X133992910Y-99018846D01*
X133993359Y-98999063D01*
X134017878Y-98931653D01*
X134067302Y-98870456D01*
X134116212Y-98836550D01*
X134186027Y-98812194D01*
X134222748Y-98808233D01*
X134274055Y-98802701D01*
X134384078Y-98807316D01*
G37*
X134384078Y-98807316D02*
X134407387Y-98809922D01*
X134490352Y-98829340D01*
X134553448Y-98864427D01*
X134601808Y-98917788D01*
X134603804Y-98920804D01*
X134632185Y-98988638D01*
X134634711Y-99059465D01*
X134613097Y-99127711D01*
X134569062Y-99187804D01*
X134504322Y-99234171D01*
X134502761Y-99234950D01*
X134462558Y-99250357D01*
X134416866Y-99261643D01*
X134373972Y-99267630D01*
X134342160Y-99267139D01*
X134329714Y-99258993D01*
X134330471Y-99251756D01*
X134344235Y-99217149D01*
X134369546Y-99177922D01*
X134398845Y-99144552D01*
X134424572Y-99127517D01*
X134459471Y-99109808D01*
X134491212Y-99073515D01*
X134503886Y-99031370D01*
X134500221Y-99015923D01*
X134481774Y-98985431D01*
X134456166Y-98958872D01*
X134432934Y-98947514D01*
X134432848Y-98947518D01*
X134422179Y-98960404D01*
X134402933Y-98994759D01*
X134377813Y-99045407D01*
X134349524Y-99107171D01*
X134349374Y-99107511D01*
X134319498Y-99174612D01*
X134297973Y-99219589D01*
X134281437Y-99246855D01*
X134266531Y-99260822D01*
X134249893Y-99265903D01*
X134228162Y-99266510D01*
X134176086Y-99261167D01*
X134105335Y-99234749D01*
X134049735Y-99190527D01*
X134011239Y-99133303D01*
X133991797Y-99067880D01*
X133992910Y-99018846D01*
X134127950Y-99018846D01*
X134129845Y-99060923D01*
X134155632Y-99099995D01*
X134173451Y-99115353D01*
X134187013Y-99119000D01*
X134199949Y-99104209D01*
X134219333Y-99067356D01*
X134219881Y-99066275D01*
X134240587Y-99022795D01*
X134257105Y-98983898D01*
X134264093Y-98959222D01*
X134254753Y-98949324D01*
X134222748Y-98947514D01*
X134182915Y-98955034D01*
X134146717Y-98981103D01*
X134127950Y-99018846D01*
X133992910Y-99018846D01*
X133993359Y-98999063D01*
X134017878Y-98931653D01*
X134067302Y-98870456D01*
X134116212Y-98836550D01*
X134186027Y-98812194D01*
X134222748Y-98808233D01*
X134274055Y-98802701D01*
X134384078Y-98807316D01*
X134029755Y-101494926D02*
X134054084Y-101560858D01*
X134054084Y-101560858D02*
X134097117Y-101614273D01*
X134097117Y-101614273D02*
X134127409Y-101635164D01*
X134127409Y-101635164D02*
X134182994Y-101657939D01*
X134182994Y-101657939D02*
X134223186Y-101657466D01*
X134223186Y-101657466D02*
X134250217Y-101633562D01*
X134250217Y-101633562D02*
X134254813Y-101624717D01*
X134254813Y-101624717D02*
X134269144Y-101586530D01*
X134269144Y-101586530D02*
X134265472Y-101567028D01*
X134265472Y-101567028D02*
X134241407Y-101560422D01*
X134241407Y-101560422D02*
X134228114Y-101560086D01*
X134228114Y-101560086D02*
X134179210Y-101547992D01*
X134179210Y-101547992D02*
X134144999Y-101516471D01*
X134144999Y-101516471D02*
X134128476Y-101472659D01*
X134128476Y-101472659D02*
X134132634Y-101423695D01*
X134132634Y-101423695D02*
X134154227Y-101383894D01*
X134154227Y-101383894D02*
X134166544Y-101370450D01*
X134166544Y-101370450D02*
X134181487Y-101360921D01*
X134181487Y-101360921D02*
X134204075Y-101354485D01*
X134204075Y-101354485D02*
X134239328Y-101350317D01*
X134239328Y-101350317D02*
X134292266Y-101347597D01*
X134292266Y-101347597D02*
X134367907Y-101345502D01*
X134367907Y-101345502D02*
X134391857Y-101344960D01*
X134391857Y-101344960D02*
X134473790Y-101342981D01*
X134473790Y-101342981D02*
X134531455Y-101340731D01*
X134531455Y-101340731D02*
X134569608Y-101337357D01*
X134569608Y-101337357D02*
X134593004Y-101332006D01*
X134593004Y-101332006D02*
X134606398Y-101323824D01*
X134606398Y-101323824D02*
X134614545Y-101311959D01*
X134614545Y-101311959D02*
X134618144Y-101304362D01*
X134618144Y-101304362D02*
X134630452Y-101272102D01*
X134630452Y-101272102D02*
X134634514Y-101253111D01*
X134634514Y-101253111D02*
X134620948Y-101246836D01*
X134620948Y-101246836D02*
X134579934Y-101243006D01*
X134579934Y-101243006D02*
X134510999Y-101241600D01*
X134510999Y-101241600D02*
X134413669Y-101242598D01*
X134413669Y-101242598D02*
X134398657Y-101242908D01*
X134398657Y-101242908D02*
X134309859Y-101245101D01*
X134309859Y-101245101D02*
X134245019Y-101247693D01*
X134245019Y-101247693D02*
X134199067Y-101251382D01*
X134199067Y-101251382D02*
X134166935Y-101256864D01*
X134166935Y-101256864D02*
X134143553Y-101264835D01*
X134143553Y-101264835D02*
X134123852Y-101275993D01*
X134123852Y-101275993D02*
X134115410Y-101281830D01*
X134115410Y-101281830D02*
X134078057Y-101315296D01*
X134078057Y-101315296D02*
X134049003Y-101352727D01*
X134049003Y-101352727D02*
X134046467Y-101357309D01*
X134046467Y-101357309D02*
X134026443Y-101424426D01*
X134026443Y-101424426D02*
X134029755Y-101494926D01*
X134029755Y-101494926D02*
X134029755Y-101494926D01*
G36*
X134579934Y-101243006D02*
G01*
X134620948Y-101246836D01*
X134634514Y-101253111D01*
X134630452Y-101272102D01*
X134618144Y-101304362D01*
X134614545Y-101311959D01*
X134606398Y-101323824D01*
X134593004Y-101332006D01*
X134569608Y-101337357D01*
X134531455Y-101340731D01*
X134473790Y-101342981D01*
X134391857Y-101344960D01*
X134367907Y-101345502D01*
X134292266Y-101347597D01*
X134239328Y-101350317D01*
X134204075Y-101354485D01*
X134181487Y-101360921D01*
X134166544Y-101370450D01*
X134154227Y-101383894D01*
X134132634Y-101423695D01*
X134128476Y-101472659D01*
X134144999Y-101516471D01*
X134179210Y-101547992D01*
X134228114Y-101560086D01*
X134241407Y-101560422D01*
X134265472Y-101567028D01*
X134269144Y-101586530D01*
X134254813Y-101624717D01*
X134250217Y-101633562D01*
X134223186Y-101657466D01*
X134182994Y-101657939D01*
X134127409Y-101635164D01*
X134097117Y-101614273D01*
X134054084Y-101560858D01*
X134029755Y-101494926D01*
X134026443Y-101424426D01*
X134046467Y-101357309D01*
X134049003Y-101352727D01*
X134078057Y-101315296D01*
X134115410Y-101281830D01*
X134123852Y-101275993D01*
X134143553Y-101264835D01*
X134166935Y-101256864D01*
X134199067Y-101251382D01*
X134245019Y-101247693D01*
X134309859Y-101245101D01*
X134398657Y-101242908D01*
X134413669Y-101242598D01*
X134510999Y-101241600D01*
X134579934Y-101243006D01*
G37*
X134579934Y-101243006D02*
X134620948Y-101246836D01*
X134634514Y-101253111D01*
X134630452Y-101272102D01*
X134618144Y-101304362D01*
X134614545Y-101311959D01*
X134606398Y-101323824D01*
X134593004Y-101332006D01*
X134569608Y-101337357D01*
X134531455Y-101340731D01*
X134473790Y-101342981D01*
X134391857Y-101344960D01*
X134367907Y-101345502D01*
X134292266Y-101347597D01*
X134239328Y-101350317D01*
X134204075Y-101354485D01*
X134181487Y-101360921D01*
X134166544Y-101370450D01*
X134154227Y-101383894D01*
X134132634Y-101423695D01*
X134128476Y-101472659D01*
X134144999Y-101516471D01*
X134179210Y-101547992D01*
X134228114Y-101560086D01*
X134241407Y-101560422D01*
X134265472Y-101567028D01*
X134269144Y-101586530D01*
X134254813Y-101624717D01*
X134250217Y-101633562D01*
X134223186Y-101657466D01*
X134182994Y-101657939D01*
X134127409Y-101635164D01*
X134097117Y-101614273D01*
X134054084Y-101560858D01*
X134029755Y-101494926D01*
X134026443Y-101424426D01*
X134046467Y-101357309D01*
X134049003Y-101352727D01*
X134078057Y-101315296D01*
X134115410Y-101281830D01*
X134123852Y-101275993D01*
X134143553Y-101264835D01*
X134166935Y-101256864D01*
X134199067Y-101251382D01*
X134245019Y-101247693D01*
X134309859Y-101245101D01*
X134398657Y-101242908D01*
X134413669Y-101242598D01*
X134510999Y-101241600D01*
X134579934Y-101243006D01*
X133999918Y-98564744D02*
X134027568Y-98620201D01*
X134027568Y-98620201D02*
X134078480Y-98669148D01*
X134078480Y-98669148D02*
X134097338Y-98682629D01*
X134097338Y-98682629D02*
X134122015Y-98697314D01*
X134122015Y-98697314D02*
X134148816Y-98706842D01*
X134148816Y-98706842D02*
X134184587Y-98712293D01*
X134184587Y-98712293D02*
X134236169Y-98714747D01*
X134236169Y-98714747D02*
X134304267Y-98715286D01*
X134304267Y-98715286D02*
X134397588Y-98712852D01*
X134397588Y-98712852D02*
X134467657Y-98704394D01*
X134467657Y-98704394D02*
X134519931Y-98688174D01*
X134519931Y-98688174D02*
X134559869Y-98662454D01*
X134559869Y-98662454D02*
X134592929Y-98625497D01*
X134592929Y-98625497D02*
X134594886Y-98622782D01*
X134594886Y-98622782D02*
X134614908Y-98586360D01*
X134614908Y-98586360D02*
X134624815Y-98542502D01*
X134624815Y-98542502D02*
X134627257Y-98486724D01*
X134627257Y-98486724D02*
X134627257Y-98396048D01*
X134627257Y-98396048D02*
X134715283Y-98396010D01*
X134715283Y-98396010D02*
X134764308Y-98395166D01*
X134764308Y-98395166D02*
X134793065Y-98390024D01*
X134793065Y-98390024D02*
X134810311Y-98376587D01*
X134810311Y-98376587D02*
X134824808Y-98350858D01*
X134824808Y-98350858D02*
X134827769Y-98344679D01*
X134827769Y-98344679D02*
X134841648Y-98315764D01*
X134841648Y-98315764D02*
X134850414Y-98293376D01*
X134850414Y-98293376D02*
X134851171Y-98276729D01*
X134851171Y-98276729D02*
X134841023Y-98265036D01*
X134841023Y-98265036D02*
X134817073Y-98257510D01*
X134817073Y-98257510D02*
X134776426Y-98253366D01*
X134776426Y-98253366D02*
X134716186Y-98251815D01*
X134716186Y-98251815D02*
X134633455Y-98252071D01*
X134633455Y-98252071D02*
X134525339Y-98253349D01*
X134525339Y-98253349D02*
X134493000Y-98253748D01*
X134493000Y-98253748D02*
X134381524Y-98255185D01*
X134381524Y-98255185D02*
X134308603Y-98256472D01*
X134308603Y-98256472D02*
X134308603Y-98395971D01*
X134308603Y-98395971D02*
X134370499Y-98396755D01*
X134370499Y-98396755D02*
X134410997Y-98400240D01*
X134410997Y-98400240D02*
X134437708Y-98408124D01*
X134437708Y-98408124D02*
X134458244Y-98422105D01*
X134458244Y-98422105D02*
X134468260Y-98431597D01*
X134468260Y-98431597D02*
X134497567Y-98470404D01*
X134497567Y-98470404D02*
X134499952Y-98504763D01*
X134499952Y-98504763D02*
X134475750Y-98540216D01*
X134475750Y-98540216D02*
X134474857Y-98541114D01*
X134474857Y-98541114D02*
X134456153Y-98555539D01*
X134456153Y-98555539D02*
X134430732Y-98564313D01*
X134430732Y-98564313D02*
X134391584Y-98568739D01*
X134391584Y-98568739D02*
X134331697Y-98570118D01*
X134331697Y-98570118D02*
X134318430Y-98570143D01*
X134318430Y-98570143D02*
X134235901Y-98566812D01*
X134235901Y-98566812D02*
X134178691Y-98555969D01*
X134178691Y-98555969D02*
X134143766Y-98536340D01*
X134143766Y-98536340D02*
X134128094Y-98506650D01*
X134128094Y-98506650D02*
X134126514Y-98489491D01*
X134126514Y-98489491D02*
X134133926Y-98448766D01*
X134133926Y-98448766D02*
X134158330Y-98420832D01*
X134158330Y-98420832D02*
X134202980Y-98404017D01*
X134202980Y-98404017D02*
X134271130Y-98396650D01*
X134271130Y-98396650D02*
X134308603Y-98395971D01*
X134308603Y-98395971D02*
X134308603Y-98256472D01*
X134308603Y-98256472D02*
X134295245Y-98256708D01*
X134295245Y-98256708D02*
X134230333Y-98258677D01*
X134230333Y-98258677D02*
X134182958Y-98261450D01*
X134182958Y-98261450D02*
X134149290Y-98265388D01*
X134149290Y-98265388D02*
X134125498Y-98270849D01*
X134125498Y-98270849D02*
X134107753Y-98278192D01*
X134107753Y-98278192D02*
X134092224Y-98287777D01*
X134092224Y-98287777D02*
X134086381Y-98291887D01*
X134086381Y-98291887D02*
X134031185Y-98346405D01*
X134031185Y-98346405D02*
X133999890Y-98415336D01*
X133999890Y-98415336D02*
X133991165Y-98495072D01*
X133991165Y-98495072D02*
X133999918Y-98564744D01*
X133999918Y-98564744D02*
X133999918Y-98564744D01*
G36*
X134493000Y-98253748D02*
G01*
X134525339Y-98253349D01*
X134633455Y-98252071D01*
X134716186Y-98251815D01*
X134776426Y-98253366D01*
X134817073Y-98257510D01*
X134841023Y-98265036D01*
X134851171Y-98276729D01*
X134850414Y-98293376D01*
X134841648Y-98315764D01*
X134827769Y-98344679D01*
X134824808Y-98350858D01*
X134810311Y-98376587D01*
X134793065Y-98390024D01*
X134764308Y-98395166D01*
X134715283Y-98396010D01*
X134627257Y-98396048D01*
X134627257Y-98486724D01*
X134624815Y-98542502D01*
X134614908Y-98586360D01*
X134594886Y-98622782D01*
X134592929Y-98625497D01*
X134559869Y-98662454D01*
X134519931Y-98688174D01*
X134467657Y-98704394D01*
X134397588Y-98712852D01*
X134304267Y-98715286D01*
X134236169Y-98714747D01*
X134184587Y-98712293D01*
X134148816Y-98706842D01*
X134122015Y-98697314D01*
X134097338Y-98682629D01*
X134078480Y-98669148D01*
X134027568Y-98620201D01*
X133999918Y-98564744D01*
X133991165Y-98495072D01*
X133991776Y-98489491D01*
X134126514Y-98489491D01*
X134128094Y-98506650D01*
X134143766Y-98536340D01*
X134178691Y-98555969D01*
X134235901Y-98566812D01*
X134318430Y-98570143D01*
X134331697Y-98570118D01*
X134391584Y-98568739D01*
X134430732Y-98564313D01*
X134456153Y-98555539D01*
X134474857Y-98541114D01*
X134475750Y-98540216D01*
X134499952Y-98504763D01*
X134497567Y-98470404D01*
X134468260Y-98431597D01*
X134458244Y-98422105D01*
X134437708Y-98408124D01*
X134410997Y-98400240D01*
X134370499Y-98396755D01*
X134308603Y-98395971D01*
X134271130Y-98396650D01*
X134202980Y-98404017D01*
X134158330Y-98420832D01*
X134133926Y-98448766D01*
X134126514Y-98489491D01*
X133991776Y-98489491D01*
X133999890Y-98415336D01*
X134031185Y-98346405D01*
X134086381Y-98291887D01*
X134092224Y-98287777D01*
X134107753Y-98278192D01*
X134125498Y-98270849D01*
X134149290Y-98265388D01*
X134182958Y-98261450D01*
X134230333Y-98258677D01*
X134295245Y-98256708D01*
X134308603Y-98256472D01*
X134381524Y-98255185D01*
X134493000Y-98253748D01*
G37*
X134493000Y-98253748D02*
X134525339Y-98253349D01*
X134633455Y-98252071D01*
X134716186Y-98251815D01*
X134776426Y-98253366D01*
X134817073Y-98257510D01*
X134841023Y-98265036D01*
X134851171Y-98276729D01*
X134850414Y-98293376D01*
X134841648Y-98315764D01*
X134827769Y-98344679D01*
X134824808Y-98350858D01*
X134810311Y-98376587D01*
X134793065Y-98390024D01*
X134764308Y-98395166D01*
X134715283Y-98396010D01*
X134627257Y-98396048D01*
X134627257Y-98486724D01*
X134624815Y-98542502D01*
X134614908Y-98586360D01*
X134594886Y-98622782D01*
X134592929Y-98625497D01*
X134559869Y-98662454D01*
X134519931Y-98688174D01*
X134467657Y-98704394D01*
X134397588Y-98712852D01*
X134304267Y-98715286D01*
X134236169Y-98714747D01*
X134184587Y-98712293D01*
X134148816Y-98706842D01*
X134122015Y-98697314D01*
X134097338Y-98682629D01*
X134078480Y-98669148D01*
X134027568Y-98620201D01*
X133999918Y-98564744D01*
X133991165Y-98495072D01*
X133991776Y-98489491D01*
X134126514Y-98489491D01*
X134128094Y-98506650D01*
X134143766Y-98536340D01*
X134178691Y-98555969D01*
X134235901Y-98566812D01*
X134318430Y-98570143D01*
X134331697Y-98570118D01*
X134391584Y-98568739D01*
X134430732Y-98564313D01*
X134456153Y-98555539D01*
X134474857Y-98541114D01*
X134475750Y-98540216D01*
X134499952Y-98504763D01*
X134497567Y-98470404D01*
X134468260Y-98431597D01*
X134458244Y-98422105D01*
X134437708Y-98408124D01*
X134410997Y-98400240D01*
X134370499Y-98396755D01*
X134308603Y-98395971D01*
X134271130Y-98396650D01*
X134202980Y-98404017D01*
X134158330Y-98420832D01*
X134133926Y-98448766D01*
X134126514Y-98489491D01*
X133991776Y-98489491D01*
X133999890Y-98415336D01*
X134031185Y-98346405D01*
X134086381Y-98291887D01*
X134092224Y-98287777D01*
X134107753Y-98278192D01*
X134125498Y-98270849D01*
X134149290Y-98265388D01*
X134182958Y-98261450D01*
X134230333Y-98258677D01*
X134295245Y-98256708D01*
X134308603Y-98256472D01*
X134381524Y-98255185D01*
X134493000Y-98253748D01*
%TO.C,G\u002A\u002A\u002A*%
G36*
X129599260Y-83930755D02*
G01*
X129614924Y-83918123D01*
X129643409Y-83886770D01*
X129681276Y-83840652D01*
X129725087Y-83783730D01*
X129727055Y-83781103D01*
X129884973Y-83589168D01*
X130052766Y-83420779D01*
X130228713Y-83277339D01*
X130411097Y-83160251D01*
X130598198Y-83070920D01*
X130689250Y-83038156D01*
X130892352Y-82987119D01*
X131102949Y-82962260D01*
X131317797Y-82963268D01*
X131533653Y-82989835D01*
X131747275Y-83041649D01*
X131955418Y-83118400D01*
X132154840Y-83219779D01*
X132239972Y-83272610D01*
X132429646Y-83413550D01*
X132608780Y-83580526D01*
X132777543Y-83773789D01*
X132936108Y-83993587D01*
X133084645Y-84240170D01*
X133223325Y-84513789D01*
X133352319Y-84814692D01*
X133471798Y-85143130D01*
X133498389Y-85224275D01*
X133595436Y-85556545D01*
X133681401Y-85912757D01*
X133756411Y-86293599D01*
X133820589Y-86699759D01*
X133874062Y-87131928D01*
X133916954Y-87590793D01*
X133921360Y-87652055D01*
X133928840Y-87789917D01*
X133934890Y-87948777D01*
X133939511Y-88124063D01*
X133942703Y-88311205D01*
X133944466Y-88505633D01*
X133944801Y-88702775D01*
X133943708Y-88898062D01*
X133941187Y-89086923D01*
X133937238Y-89264788D01*
X133931862Y-89427085D01*
X133925058Y-89569245D01*
X133916828Y-89686696D01*
X133895469Y-89910156D01*
X133865072Y-90166062D01*
X133827720Y-90421630D01*
X133781550Y-90690678D01*
X133754928Y-90826813D01*
X133697379Y-91080043D01*
X133629009Y-91339980D01*
X133552935Y-91595104D01*
X133472272Y-91833898D01*
X133345917Y-92154680D01*
X133202368Y-92462500D01*
X133045357Y-92747797D01*
X132875525Y-93009583D01*
X132693514Y-93246870D01*
X132499968Y-93458670D01*
X132295527Y-93643996D01*
X132161337Y-93753921D01*
X132224364Y-93758662D01*
X132240588Y-93759060D01*
X132285785Y-93759098D01*
X132356298Y-93758634D01*
X132449884Y-93757696D01*
X132564299Y-93756315D01*
X132697298Y-93754523D01*
X132846638Y-93752349D01*
X133010074Y-93749824D01*
X133185363Y-93746979D01*
X133370260Y-93743844D01*
X133562521Y-93740450D01*
X133632519Y-93739193D01*
X133839484Y-93735498D01*
X134047689Y-93731815D01*
X134253739Y-93728201D01*
X134454239Y-93724715D01*
X134645796Y-93721416D01*
X134825016Y-93718361D01*
X134988503Y-93715609D01*
X135132865Y-93713218D01*
X135254707Y-93711247D01*
X135350635Y-93709753D01*
X135417165Y-93708720D01*
X135552344Y-93706466D01*
X135687015Y-93704033D01*
X135815416Y-93701536D01*
X135931787Y-93699089D01*
X136030369Y-93696806D01*
X136105399Y-93694801D01*
X136347181Y-93687595D01*
X136506114Y-93530221D01*
X136532793Y-93503607D01*
X136709554Y-93316608D01*
X136870972Y-93126908D01*
X137014209Y-92938213D01*
X137136429Y-92754227D01*
X137234795Y-92578654D01*
X137258400Y-92530329D01*
X137289508Y-92457263D01*
X137304783Y-92401107D01*
X137304630Y-92357095D01*
X137289456Y-92320461D01*
X137259665Y-92286441D01*
X137209023Y-92241489D01*
X137169933Y-92215147D01*
X137133594Y-92204952D01*
X137091200Y-92208431D01*
X137033945Y-92223115D01*
X136890349Y-92259085D01*
X136719603Y-92292323D01*
X136528652Y-92321706D01*
X136322012Y-92346812D01*
X136104202Y-92367219D01*
X135879737Y-92382505D01*
X135653137Y-92392247D01*
X135428917Y-92396024D01*
X135211596Y-92393413D01*
X135020518Y-92386697D01*
X134784156Y-92374128D01*
X134568287Y-92357567D01*
X134373785Y-92337206D01*
X134201526Y-92313237D01*
X134052384Y-92285850D01*
X133927234Y-92255237D01*
X133826951Y-92221591D01*
X133752408Y-92185102D01*
X133704481Y-92145963D01*
X133684045Y-92104365D01*
X133688261Y-92081039D01*
X133752460Y-92081039D01*
X133757823Y-92107317D01*
X133790638Y-92134613D01*
X133849622Y-92162390D01*
X133933494Y-92190113D01*
X134040972Y-92217244D01*
X134170773Y-92243247D01*
X134225146Y-92252752D01*
X134326466Y-92268767D01*
X134426974Y-92282045D01*
X134530432Y-92292805D01*
X134640605Y-92301270D01*
X134761256Y-92307660D01*
X134896149Y-92312197D01*
X135049047Y-92315102D01*
X135223716Y-92316596D01*
X135423918Y-92316900D01*
X135622481Y-92316160D01*
X135799419Y-92314131D01*
X135955019Y-92310519D01*
X136093294Y-92305027D01*
X136218260Y-92297355D01*
X136333928Y-92287207D01*
X136444315Y-92274283D01*
X136553432Y-92258285D01*
X136665294Y-92238916D01*
X136783915Y-92215877D01*
X136817494Y-92209018D01*
X136905835Y-92190085D01*
X136968106Y-92174975D01*
X137006492Y-92163043D01*
X137023174Y-92153645D01*
X137020336Y-92146138D01*
X136999636Y-92137915D01*
X136955965Y-92123980D01*
X136897116Y-92106809D01*
X136830044Y-92088365D01*
X136761703Y-92070609D01*
X136699048Y-92055503D01*
X136597851Y-92034103D01*
X136401165Y-92000002D01*
X136183521Y-91970348D01*
X135950064Y-91945470D01*
X135705940Y-91925697D01*
X135456292Y-91911360D01*
X135206268Y-91902788D01*
X134961010Y-91900310D01*
X134725665Y-91904256D01*
X134505378Y-91914956D01*
X134464785Y-91917853D01*
X134314214Y-91931643D01*
X134175294Y-91949137D01*
X134050969Y-91969722D01*
X133944182Y-91992784D01*
X133857877Y-92017708D01*
X133794998Y-92043882D01*
X133758489Y-92070691D01*
X133752460Y-92081039D01*
X133688261Y-92081039D01*
X133691974Y-92060499D01*
X133718214Y-92025081D01*
X133769303Y-91987874D01*
X133843767Y-91954758D01*
X133943071Y-91925220D01*
X134068683Y-91898746D01*
X134222071Y-91874821D01*
X134264367Y-91869937D01*
X134358826Y-91862529D01*
X134475689Y-91856555D01*
X134610587Y-91852011D01*
X134759146Y-91848898D01*
X134916997Y-91847214D01*
X134961010Y-91847145D01*
X135079768Y-91846957D01*
X135243087Y-91848126D01*
X135402583Y-91850720D01*
X135553886Y-91854738D01*
X135692623Y-91860178D01*
X135814424Y-91867039D01*
X135914916Y-91875320D01*
X136039239Y-91888505D01*
X136246662Y-91913520D01*
X136430710Y-91940219D01*
X136595224Y-91969311D01*
X136744042Y-92001509D01*
X136881005Y-92037523D01*
X137009951Y-92078063D01*
X137144974Y-92124106D01*
X137215144Y-92098211D01*
X137295930Y-92064236D01*
X137389883Y-92014382D01*
X137473667Y-91958934D01*
X137541167Y-91902018D01*
X137586266Y-91847762D01*
X137607214Y-91806971D01*
X137635733Y-91738947D01*
X137669146Y-91649786D01*
X137706242Y-91543266D01*
X137745806Y-91423167D01*
X137786626Y-91293268D01*
X137827490Y-91157347D01*
X137867184Y-91019185D01*
X137904495Y-90882559D01*
X137938210Y-90751248D01*
X137939448Y-90746234D01*
X137976676Y-90587793D01*
X138013425Y-90417364D01*
X138049050Y-90238996D01*
X138082904Y-90056734D01*
X138114341Y-89874626D01*
X138142714Y-89696717D01*
X138167378Y-89527055D01*
X138187686Y-89369687D01*
X138202992Y-89228658D01*
X138212650Y-89108015D01*
X138216013Y-89011806D01*
X138215829Y-88997808D01*
X138206826Y-88925223D01*
X138181945Y-88863873D01*
X138137956Y-88809570D01*
X138071634Y-88758129D01*
X137979748Y-88705362D01*
X137883645Y-88655535D01*
X137701733Y-88709287D01*
X137503853Y-88760893D01*
X137260269Y-88809516D01*
X136994426Y-88848725D01*
X136709319Y-88878217D01*
X136407941Y-88897689D01*
X136093287Y-88906836D01*
X135768350Y-88905355D01*
X135592529Y-88900404D01*
X135333859Y-88887741D01*
X135102112Y-88869260D01*
X134897597Y-88845007D01*
X134720625Y-88815030D01*
X134571506Y-88779375D01*
X134450553Y-88738090D01*
X134358074Y-88691222D01*
X134332863Y-88673424D01*
X134290961Y-88629721D01*
X134279438Y-88599928D01*
X134350600Y-88599928D01*
X134378885Y-88631001D01*
X134436141Y-88663049D01*
X134522533Y-88695970D01*
X134522609Y-88695995D01*
X134669409Y-88736653D01*
X134841229Y-88770849D01*
X135034502Y-88798597D01*
X135245663Y-88819913D01*
X135471145Y-88834812D01*
X135707381Y-88843310D01*
X135950805Y-88845422D01*
X136197850Y-88841165D01*
X136444951Y-88830554D01*
X136688541Y-88813603D01*
X136925054Y-88790330D01*
X137150923Y-88760749D01*
X137362581Y-88724875D01*
X137556463Y-88682726D01*
X137577396Y-88677539D01*
X137658406Y-88656580D01*
X137713528Y-88640356D01*
X137745106Y-88627990D01*
X137755481Y-88618603D01*
X137746999Y-88611317D01*
X137725775Y-88603596D01*
X137628517Y-88574325D01*
X137505838Y-88545008D01*
X137360803Y-88516175D01*
X137196479Y-88488356D01*
X137015933Y-88462082D01*
X136822229Y-88437882D01*
X136618436Y-88416285D01*
X136615899Y-88416041D01*
X136499282Y-88406999D01*
X136360670Y-88399771D01*
X136205187Y-88394359D01*
X136037960Y-88390761D01*
X135864113Y-88388978D01*
X135688772Y-88389009D01*
X135517062Y-88390854D01*
X135354108Y-88394513D01*
X135205035Y-88399985D01*
X135074969Y-88407270D01*
X134969035Y-88416368D01*
X134949821Y-88418479D01*
X134779966Y-88439808D01*
X134637918Y-88462841D01*
X134523843Y-88487474D01*
X134437908Y-88513603D01*
X134380278Y-88541125D01*
X134351120Y-88569934D01*
X134350600Y-88599928D01*
X134279438Y-88599928D01*
X134273926Y-88585677D01*
X134283579Y-88544872D01*
X134312699Y-88511333D01*
X134364631Y-88476846D01*
X134437972Y-88446030D01*
X134534295Y-88418444D01*
X134655173Y-88393649D01*
X134802180Y-88371202D01*
X134976890Y-88350664D01*
X135024097Y-88346870D01*
X135105692Y-88342674D01*
X135208636Y-88339073D01*
X135328521Y-88336093D01*
X135460940Y-88333762D01*
X135601485Y-88332106D01*
X135745748Y-88331153D01*
X135864113Y-88330968D01*
X135889320Y-88330929D01*
X136027795Y-88331461D01*
X136156764Y-88332777D01*
X136271819Y-88334904D01*
X136368552Y-88337867D01*
X136442556Y-88341695D01*
X136453231Y-88342445D01*
X136737454Y-88366023D01*
X136998802Y-88394905D01*
X137236052Y-88428895D01*
X137447978Y-88467794D01*
X137633359Y-88511405D01*
X137790969Y-88559530D01*
X137871581Y-88587832D01*
X137961939Y-88543364D01*
X137999507Y-88523304D01*
X138074427Y-88473893D01*
X138139624Y-88418754D01*
X138189190Y-88363227D01*
X138217216Y-88312651D01*
X138218923Y-88306887D01*
X138224675Y-88273303D01*
X138228187Y-88222369D01*
X138229530Y-88151110D01*
X138228771Y-88056552D01*
X138225980Y-87935720D01*
X138215156Y-87691038D01*
X138190939Y-87395232D01*
X138153841Y-87096970D01*
X138103042Y-86790754D01*
X138037721Y-86471082D01*
X137957058Y-86132455D01*
X137952034Y-86112713D01*
X137914589Y-85970827D01*
X137873729Y-85824046D01*
X137830541Y-85675695D01*
X137786112Y-85529097D01*
X137741529Y-85387577D01*
X137697878Y-85254460D01*
X137656247Y-85133070D01*
X137617723Y-85026732D01*
X137583392Y-84938770D01*
X137554342Y-84872509D01*
X137531659Y-84831273D01*
X137530877Y-84830151D01*
X137476636Y-84770303D01*
X137395545Y-84706328D01*
X137289482Y-84639714D01*
X137220366Y-84600188D01*
X137128259Y-84637725D01*
X137052944Y-84665500D01*
X136916125Y-84705977D01*
X136754727Y-84743989D01*
X136571576Y-84779064D01*
X136369499Y-84810726D01*
X136151321Y-84838505D01*
X135919869Y-84861925D01*
X135677966Y-84880516D01*
X135672098Y-84880891D01*
X135570198Y-84885854D01*
X135449184Y-84889362D01*
X135313458Y-84891477D01*
X135167420Y-84892263D01*
X135015473Y-84891785D01*
X134862018Y-84890107D01*
X134711457Y-84887292D01*
X134568192Y-84883404D01*
X134436623Y-84878507D01*
X134321153Y-84872666D01*
X134226184Y-84865944D01*
X134156116Y-84858406D01*
X134102650Y-84850443D01*
X133967980Y-84825551D01*
X133861848Y-84797647D01*
X133783775Y-84766555D01*
X133733284Y-84732098D01*
X133709896Y-84694101D01*
X133707268Y-84675787D01*
X133709792Y-84666294D01*
X133780865Y-84666294D01*
X133792315Y-84693830D01*
X133833018Y-84719709D01*
X133902983Y-84744032D01*
X134002221Y-84766898D01*
X134013524Y-84769083D01*
X134095890Y-84783912D01*
X134176623Y-84796124D01*
X134259589Y-84805950D01*
X134348657Y-84813622D01*
X134447694Y-84819370D01*
X134560565Y-84823425D01*
X134691138Y-84826018D01*
X134843281Y-84827381D01*
X135020860Y-84827744D01*
X135041956Y-84827724D01*
X135389047Y-84823274D01*
X135709518Y-84810943D01*
X136004941Y-84790566D01*
X136276886Y-84761980D01*
X136526924Y-84725023D01*
X136756626Y-84679530D01*
X136967562Y-84625339D01*
X136989219Y-84618902D01*
X137043199Y-84601394D01*
X137083874Y-84586097D01*
X137103750Y-84575739D01*
X137104287Y-84575115D01*
X137097114Y-84563873D01*
X137065359Y-84548621D01*
X137013007Y-84530443D01*
X136944045Y-84510425D01*
X136862457Y-84489650D01*
X136772229Y-84469205D01*
X136677346Y-84450174D01*
X136581794Y-84433643D01*
X136572595Y-84432203D01*
X136368859Y-84405696D01*
X136149402Y-84386439D01*
X135918276Y-84374245D01*
X135679531Y-84368932D01*
X135437219Y-84370314D01*
X135195391Y-84378208D01*
X134958100Y-84392429D01*
X134729396Y-84412792D01*
X134513331Y-84439113D01*
X134313957Y-84471209D01*
X134135324Y-84508893D01*
X133981484Y-84551983D01*
X133921937Y-84572751D01*
X133845685Y-84605855D01*
X133798658Y-84637002D01*
X133780865Y-84666294D01*
X133709792Y-84666294D01*
X133719694Y-84629048D01*
X133760307Y-84584594D01*
X133829239Y-84542384D01*
X133926624Y-84502375D01*
X134052595Y-84464525D01*
X134207282Y-84428793D01*
X134390821Y-84395135D01*
X134603342Y-84363510D01*
X134844980Y-84333876D01*
X134876108Y-84330937D01*
X134953752Y-84326048D01*
X135052543Y-84322018D01*
X135168278Y-84318847D01*
X135296753Y-84316533D01*
X135433763Y-84315077D01*
X135575104Y-84314476D01*
X135679531Y-84314664D01*
X135716573Y-84314731D01*
X135853965Y-84315840D01*
X135983076Y-84317803D01*
X136099702Y-84320619D01*
X136199639Y-84324286D01*
X136278684Y-84328805D01*
X136332631Y-84334174D01*
X136414053Y-84346046D01*
X136545308Y-84365726D01*
X136654560Y-84383135D01*
X136746408Y-84399214D01*
X136825449Y-84414906D01*
X136896280Y-84431154D01*
X136963499Y-84448902D01*
X137031704Y-84469091D01*
X137105492Y-84492665D01*
X137218802Y-84529772D01*
X137284621Y-84482505D01*
X137336332Y-84437573D01*
X137366433Y-84387441D01*
X137373091Y-84328334D01*
X137358431Y-84253660D01*
X137328224Y-84167475D01*
X137259629Y-84028693D01*
X137167505Y-83889985D01*
X137149845Y-83867362D01*
X137088780Y-83796379D01*
X137013008Y-83715682D01*
X136928680Y-83631316D01*
X136841948Y-83549324D01*
X136758960Y-83475752D01*
X136685869Y-83416644D01*
X136584751Y-83340360D01*
X136422050Y-83340504D01*
X136410830Y-83340503D01*
X136344081Y-83340259D01*
X136251374Y-83339651D01*
X136135444Y-83338710D01*
X135999024Y-83337469D01*
X135844848Y-83335961D01*
X135675650Y-83334218D01*
X135494164Y-83332272D01*
X135303125Y-83330157D01*
X135105267Y-83327905D01*
X134903323Y-83325549D01*
X134700027Y-83323121D01*
X134498114Y-83320653D01*
X134300317Y-83318178D01*
X134109372Y-83315730D01*
X133928010Y-83313339D01*
X133758968Y-83311040D01*
X133604978Y-83308864D01*
X133468775Y-83306844D01*
X133353093Y-83305013D01*
X133260666Y-83303404D01*
X133194228Y-83302048D01*
X132811278Y-83293167D01*
X132607961Y-83132832D01*
X132576835Y-83108066D01*
X132504136Y-83048047D01*
X132448942Y-82999001D01*
X132413405Y-82962900D01*
X132399674Y-82941717D01*
X132394704Y-82910938D01*
X132788076Y-82920821D01*
X132863888Y-82922698D01*
X132989895Y-82925741D01*
X133140103Y-82929300D01*
X133311573Y-82933309D01*
X133501368Y-82937701D01*
X133706551Y-82942411D01*
X133924185Y-82947371D01*
X134151333Y-82952515D01*
X134385057Y-82957777D01*
X134622421Y-82963091D01*
X134860486Y-82968388D01*
X135096316Y-82973604D01*
X135326973Y-82978672D01*
X135549521Y-82983525D01*
X135761021Y-82988097D01*
X135950792Y-82992218D01*
X136129949Y-82996246D01*
X136283836Y-82999936D01*
X136414549Y-83003402D01*
X136524187Y-83006762D01*
X136614848Y-83010129D01*
X136688631Y-83013620D01*
X136747633Y-83017350D01*
X136793953Y-83021434D01*
X136829690Y-83025987D01*
X136856941Y-83031125D01*
X136877805Y-83036963D01*
X136894379Y-83043617D01*
X136908763Y-83051201D01*
X137025393Y-83127641D01*
X137170915Y-83247471D01*
X137315348Y-83392713D01*
X137457056Y-83561238D01*
X137594403Y-83750917D01*
X137725755Y-83959619D01*
X137849477Y-84185215D01*
X137963933Y-84425574D01*
X137982544Y-84468132D01*
X138114909Y-84801862D01*
X138234561Y-85160850D01*
X138341286Y-85543978D01*
X138434871Y-85950126D01*
X138515104Y-86378174D01*
X138581771Y-86827003D01*
X138634661Y-87295494D01*
X138673559Y-87782528D01*
X138698253Y-88286985D01*
X138699818Y-88332877D01*
X138703168Y-88431554D01*
X138706211Y-88521834D01*
X138708772Y-88598491D01*
X138710676Y-88656303D01*
X138711749Y-88690043D01*
X138712491Y-88726860D01*
X138711721Y-88840862D01*
X138707356Y-88976338D01*
X138699799Y-89127834D01*
X138689453Y-89289896D01*
X138676721Y-89457068D01*
X138662006Y-89623896D01*
X138645711Y-89784925D01*
X138628238Y-89934701D01*
X138609990Y-90067770D01*
X138604476Y-90103853D01*
X138528585Y-90522073D01*
X138432047Y-90933771D01*
X138315862Y-91336457D01*
X138181032Y-91727641D01*
X138028555Y-92104832D01*
X137859433Y-92465540D01*
X137674666Y-92807273D01*
X137475252Y-93127542D01*
X137262194Y-93423856D01*
X137199238Y-93502968D01*
X137127118Y-93588126D01*
X137060617Y-93660887D01*
X137001730Y-93719409D01*
X136952455Y-93761852D01*
X136914786Y-93786373D01*
X136890721Y-93791132D01*
X136882256Y-93774287D01*
X136889261Y-93761197D01*
X136912943Y-93730524D01*
X136949403Y-93688037D01*
X136994520Y-93638713D01*
X137160808Y-93448449D01*
X137335191Y-93218176D01*
X137505354Y-92960703D01*
X137671729Y-92675376D01*
X137834746Y-92361538D01*
X137882840Y-92262030D01*
X138056032Y-91869373D01*
X138205472Y-91470137D01*
X138332434Y-91060316D01*
X138438192Y-90635901D01*
X138524019Y-90192884D01*
X138552341Y-90015035D01*
X138584092Y-89780776D01*
X138608154Y-89551037D01*
X138624982Y-89319154D01*
X138635030Y-89078459D01*
X138638755Y-88822287D01*
X138636610Y-88543972D01*
X138635787Y-88498704D01*
X138619552Y-88014945D01*
X138590119Y-87545785D01*
X138547743Y-87092390D01*
X138492678Y-86655923D01*
X138425177Y-86237548D01*
X138345495Y-85838430D01*
X138253887Y-85459732D01*
X138150605Y-85102620D01*
X138035905Y-84768256D01*
X137910041Y-84457805D01*
X137773266Y-84172432D01*
X137625834Y-83913300D01*
X137578387Y-83839605D01*
X137478450Y-83698096D01*
X137370805Y-83561237D01*
X137259402Y-83433445D01*
X137148187Y-83319135D01*
X137041110Y-83222723D01*
X136942118Y-83148625D01*
X136942029Y-83148567D01*
X136888412Y-83114130D01*
X136849326Y-83092893D01*
X136815016Y-83081661D01*
X136775729Y-83077241D01*
X136721711Y-83076437D01*
X136718012Y-83076429D01*
X136658337Y-83075711D01*
X136579923Y-83074002D01*
X136492528Y-83071544D01*
X136405914Y-83068582D01*
X136397609Y-83068285D01*
X136348325Y-83066794D01*
X136272444Y-83064755D01*
X136172111Y-83062220D01*
X136049470Y-83059236D01*
X135906664Y-83055855D01*
X135745838Y-83052124D01*
X135569136Y-83048094D01*
X135378703Y-83043814D01*
X135176681Y-83039333D01*
X134965217Y-83034701D01*
X134746452Y-83029966D01*
X134522533Y-83025180D01*
X134455018Y-83023743D01*
X134233685Y-83018995D01*
X134018830Y-83014331D01*
X133812527Y-83009799D01*
X133616853Y-83005445D01*
X133433882Y-83001319D01*
X133265690Y-82997467D01*
X133114352Y-82993939D01*
X132981945Y-82990780D01*
X132870542Y-82988040D01*
X132782221Y-82985766D01*
X132719055Y-82984006D01*
X132683122Y-82982808D01*
X132521898Y-82976086D01*
X132580525Y-83026430D01*
X132587590Y-83032443D01*
X132631377Y-83068520D01*
X132686152Y-83112368D01*
X132741748Y-83155825D01*
X132844345Y-83234875D01*
X134222071Y-83250908D01*
X134390914Y-83252890D01*
X134604693Y-83255448D01*
X134817448Y-83258043D01*
X135026036Y-83260636D01*
X135227314Y-83263184D01*
X135418138Y-83265648D01*
X135595366Y-83267987D01*
X135755854Y-83270160D01*
X135896460Y-83272127D01*
X136014041Y-83273846D01*
X136105453Y-83275278D01*
X136611108Y-83283616D01*
X136666180Y-83321386D01*
X136699731Y-83345711D01*
X136765009Y-83397308D01*
X136839731Y-83460060D01*
X136917350Y-83528179D01*
X136991318Y-83595873D01*
X137055086Y-83657353D01*
X137102106Y-83706830D01*
X137170818Y-83789012D01*
X137262925Y-83914466D01*
X137337511Y-84036409D01*
X137392882Y-84151618D01*
X137427345Y-84256868D01*
X137439209Y-84348936D01*
X137439150Y-84352788D01*
X137424594Y-84415073D01*
X137387904Y-84477917D01*
X137334164Y-84532441D01*
X137289832Y-84567136D01*
X137373044Y-84614098D01*
X137388064Y-84622780D01*
X137488157Y-84693088D01*
X137566946Y-84771872D01*
X137620432Y-84855231D01*
X137632415Y-84883063D01*
X137655942Y-84943872D01*
X137685346Y-85024682D01*
X137719028Y-85120742D01*
X137755394Y-85227304D01*
X137792846Y-85339617D01*
X137829789Y-85452932D01*
X137864626Y-85562497D01*
X137895761Y-85663564D01*
X137921598Y-85751382D01*
X138007499Y-86068548D01*
X138107621Y-86492503D01*
X138186025Y-86899881D01*
X138242960Y-87292208D01*
X138278675Y-87671013D01*
X138293417Y-88037822D01*
X138294095Y-88114694D01*
X138293790Y-88195280D01*
X138291816Y-88254732D01*
X138287870Y-88297714D01*
X138281647Y-88328895D01*
X138272843Y-88352940D01*
X138259355Y-88377815D01*
X138208299Y-88442766D01*
X138136456Y-88508172D01*
X138049170Y-88568875D01*
X137962651Y-88621433D01*
X138027777Y-88654531D01*
X138051561Y-88667557D01*
X138120958Y-88715309D01*
X138184805Y-88772206D01*
X138235968Y-88831359D01*
X138267314Y-88885875D01*
X138271878Y-88898300D01*
X138279096Y-88923166D01*
X138283155Y-88950821D01*
X138284067Y-88986536D01*
X138281845Y-89035584D01*
X138276502Y-89103237D01*
X138268050Y-89194768D01*
X138250517Y-89364194D01*
X138197529Y-89768355D01*
X138129422Y-90171677D01*
X138047369Y-90568764D01*
X137952547Y-90954220D01*
X137846131Y-91322651D01*
X137729295Y-91668660D01*
X137701548Y-91743444D01*
X137676280Y-91806910D01*
X137654500Y-91853630D01*
X137633101Y-91889462D01*
X137608976Y-91920263D01*
X137579015Y-91951890D01*
X137552774Y-91976158D01*
X137469207Y-92037685D01*
X137364043Y-92097748D01*
X137222921Y-92169584D01*
X137261446Y-92199480D01*
X137296568Y-92229179D01*
X137340356Y-92281034D01*
X137367245Y-92340567D01*
X137374361Y-92370371D01*
X137373956Y-92400604D01*
X137364065Y-92438879D01*
X137343243Y-92494462D01*
X137289700Y-92613917D01*
X137195489Y-92783575D01*
X137075464Y-92964750D01*
X136930002Y-93156835D01*
X136907879Y-93184167D01*
X136837711Y-93267752D01*
X136762544Y-93353370D01*
X136685365Y-93437966D01*
X136609160Y-93518484D01*
X136536916Y-93591868D01*
X136471621Y-93655064D01*
X136416259Y-93705014D01*
X136373819Y-93738665D01*
X136347288Y-93752961D01*
X136338447Y-93753608D01*
X136301948Y-93754946D01*
X136239450Y-93756668D01*
X136152956Y-93758732D01*
X136044470Y-93761101D01*
X135915997Y-93763733D01*
X135769541Y-93766589D01*
X135607106Y-93769630D01*
X135430695Y-93772816D01*
X135242313Y-93776107D01*
X135043964Y-93779464D01*
X134837651Y-93782847D01*
X134820111Y-93783130D01*
X134596067Y-93786782D01*
X134368208Y-93790555D01*
X134139847Y-93794393D01*
X133914297Y-93798236D01*
X133694869Y-93802026D01*
X133484876Y-93805706D01*
X133287631Y-93809218D01*
X133106445Y-93812504D01*
X132944633Y-93815505D01*
X132805505Y-93818164D01*
X132692374Y-93820422D01*
X132580775Y-93822603D01*
X132450806Y-93824833D01*
X132332215Y-93826529D01*
X132227990Y-93827667D01*
X132141118Y-93828221D01*
X132074588Y-93828166D01*
X132031387Y-93827477D01*
X132014503Y-93826129D01*
X132010503Y-93823341D01*
X132002300Y-93806655D01*
X132014567Y-93783355D01*
X132049139Y-93751115D01*
X132107848Y-93707607D01*
X132168348Y-93663513D01*
X132324801Y-93534034D01*
X132481804Y-93383065D01*
X132634438Y-93215535D01*
X132777786Y-93036369D01*
X132820842Y-92977298D01*
X132961985Y-92762590D01*
X133097398Y-92524516D01*
X133224968Y-92267535D01*
X133342584Y-91996108D01*
X133448135Y-91714695D01*
X133539507Y-91427754D01*
X133574181Y-91302791D01*
X133626003Y-91096575D01*
X133675600Y-90876978D01*
X133721344Y-90652159D01*
X133761604Y-90430279D01*
X133794750Y-90219495D01*
X133819152Y-90027969D01*
X133835375Y-89867548D01*
X133869327Y-89407169D01*
X133886733Y-88932997D01*
X133887825Y-88450605D01*
X133872833Y-87965569D01*
X133841990Y-87483463D01*
X133795526Y-87009861D01*
X133733673Y-86550339D01*
X133656661Y-86110470D01*
X133641135Y-86033457D01*
X133555031Y-85656354D01*
X133456995Y-85303047D01*
X133347249Y-84973870D01*
X133226013Y-84669158D01*
X133093509Y-84389245D01*
X132949957Y-84134464D01*
X132795578Y-83905150D01*
X132630593Y-83701638D01*
X132455224Y-83524260D01*
X132269691Y-83373351D01*
X132074215Y-83249246D01*
X131869018Y-83152278D01*
X131654319Y-83082782D01*
X131593225Y-83068214D01*
X131367539Y-83031207D01*
X131149333Y-83022542D01*
X130938628Y-83042212D01*
X130735449Y-83090211D01*
X130539817Y-83166533D01*
X130351755Y-83271171D01*
X130171287Y-83404117D01*
X129998434Y-83565367D01*
X129900860Y-83671531D01*
X129805529Y-83785191D01*
X129721978Y-83895228D01*
X129655915Y-83994491D01*
X129655337Y-83995342D01*
X129653532Y-83997238D01*
X129651776Y-83998908D01*
X129650398Y-84001102D01*
X129649727Y-84004571D01*
X129650094Y-84010065D01*
X129651828Y-84018334D01*
X129655257Y-84030128D01*
X129660712Y-84046198D01*
X129668522Y-84067294D01*
X129679017Y-84094167D01*
X129692526Y-84127566D01*
X129709378Y-84168241D01*
X129729904Y-84216945D01*
X129754431Y-84274425D01*
X129783291Y-84341434D01*
X129816812Y-84418721D01*
X129855325Y-84507036D01*
X129899157Y-84607129D01*
X129948640Y-84719752D01*
X130004102Y-84845654D01*
X130065872Y-84985586D01*
X130134281Y-85140298D01*
X130209658Y-85310540D01*
X130292333Y-85497062D01*
X130382634Y-85700616D01*
X130480891Y-85921950D01*
X130587434Y-86161816D01*
X130702593Y-86420963D01*
X130826696Y-86700143D01*
X130960073Y-87000105D01*
X131103054Y-87321599D01*
X131255968Y-87665377D01*
X131419145Y-88032187D01*
X131592914Y-88422782D01*
X131777605Y-88837910D01*
X131973547Y-89278322D01*
X132181070Y-89744768D01*
X132640531Y-90777508D01*
X132722735Y-90825542D01*
X132763171Y-90851657D01*
X132843710Y-90920652D01*
X132907271Y-90999622D01*
X132947808Y-91081687D01*
X132961117Y-91134534D01*
X132967249Y-91224650D01*
X132954402Y-91310279D01*
X132923353Y-91381880D01*
X132916686Y-91392700D01*
X132888657Y-91448204D01*
X132867585Y-91504123D01*
X132837678Y-91567835D01*
X132777541Y-91640995D01*
X132706699Y-91711911D01*
X132945097Y-92169307D01*
X132865408Y-92323693D01*
X132828588Y-92393098D01*
X132693877Y-92619757D01*
X132544630Y-92833343D01*
X132383166Y-93031542D01*
X132211805Y-93212042D01*
X132032868Y-93372529D01*
X131848676Y-93510690D01*
X131661548Y-93624214D01*
X131473805Y-93710787D01*
X131406228Y-93735353D01*
X131203800Y-93790859D01*
X131003060Y-93819293D01*
X130806107Y-93820735D01*
X130615034Y-93795266D01*
X130431938Y-93742967D01*
X130258914Y-93663918D01*
X130149549Y-93598494D01*
X129965753Y-93463998D01*
X129790926Y-93303437D01*
X129624652Y-93116328D01*
X129466519Y-92902184D01*
X129316111Y-92660520D01*
X129173016Y-92390851D01*
X129075310Y-92181494D01*
X128937692Y-91841927D01*
X128818037Y-91485732D01*
X128715924Y-91111304D01*
X128630932Y-90717039D01*
X128562641Y-90301331D01*
X128510632Y-89862576D01*
X128507859Y-89829438D01*
X128502997Y-89743865D01*
X128498974Y-89635311D01*
X128495791Y-89507977D01*
X128493447Y-89366062D01*
X128491945Y-89213768D01*
X128491284Y-89055294D01*
X128491342Y-89004615D01*
X128544624Y-89004615D01*
X128549323Y-89374848D01*
X128566211Y-89725508D01*
X128595417Y-90053113D01*
X128635603Y-90362295D01*
X128697957Y-90728794D01*
X128774274Y-91081084D01*
X128863971Y-91417884D01*
X128966466Y-91737910D01*
X129081178Y-92039879D01*
X129207525Y-92322507D01*
X129344923Y-92584513D01*
X129492792Y-92824612D01*
X129650549Y-93041522D01*
X129817612Y-93233959D01*
X129993399Y-93400641D01*
X130177328Y-93540284D01*
X130316940Y-93624572D01*
X130458934Y-93688758D01*
X130603988Y-93730550D01*
X130759196Y-93751967D01*
X130931650Y-93755029D01*
X130947944Y-93754475D01*
X131147127Y-93735282D01*
X131335905Y-93692392D01*
X131519875Y-93624168D01*
X131704636Y-93528972D01*
X131871599Y-93418846D01*
X132043013Y-93280702D01*
X132211226Y-93120742D01*
X132372886Y-92942662D01*
X132524647Y-92750157D01*
X132663158Y-92546923D01*
X132785070Y-92336657D01*
X132815917Y-92277258D01*
X132841919Y-92224966D01*
X132859380Y-92187258D01*
X132865597Y-92169735D01*
X132864481Y-92165211D01*
X132853020Y-92137626D01*
X132831349Y-92091658D01*
X132802161Y-92032692D01*
X132768149Y-91966113D01*
X132732008Y-91897303D01*
X132696432Y-91831646D01*
X132646625Y-91741455D01*
X132578268Y-91762027D01*
X132503202Y-91778105D01*
X132409827Y-91783016D01*
X132322329Y-91772592D01*
X132250523Y-91747276D01*
X132246241Y-91744976D01*
X132217663Y-91728635D01*
X132199262Y-91712381D01*
X132189676Y-91690374D01*
X132187541Y-91656771D01*
X132191497Y-91605732D01*
X132200180Y-91531414D01*
X132202523Y-91503753D01*
X132193643Y-91407024D01*
X132157976Y-91320811D01*
X132096656Y-91247170D01*
X132010819Y-91188157D01*
X131965480Y-91161704D01*
X131926582Y-91127952D01*
X131900305Y-91086408D01*
X131894586Y-91074444D01*
X131875257Y-91034165D01*
X131845934Y-90973165D01*
X131808386Y-90895117D01*
X131764379Y-90803694D01*
X131715680Y-90702567D01*
X131664056Y-90595410D01*
X131642769Y-90551223D01*
X131588609Y-90438722D01*
X131536015Y-90329370D01*
X131487221Y-90227819D01*
X131444460Y-90138718D01*
X131409966Y-90066719D01*
X131385974Y-90016471D01*
X131366305Y-89975197D01*
X131327734Y-89894445D01*
X131280065Y-89794796D01*
X131225456Y-89680756D01*
X131166067Y-89556828D01*
X131104058Y-89427518D01*
X131041589Y-89297329D01*
X130980818Y-89170766D01*
X130923906Y-89052333D01*
X130873012Y-88946535D01*
X130856212Y-88911615D01*
X130813580Y-88822861D01*
X130771340Y-88734744D01*
X130733604Y-88655852D01*
X130704489Y-88594775D01*
X130701578Y-88588654D01*
X130676989Y-88537055D01*
X130642390Y-88464585D01*
X130600067Y-88376025D01*
X130552308Y-88276159D01*
X130501397Y-88169767D01*
X130449620Y-88061632D01*
X130430242Y-88021153D01*
X130383870Y-87924116D01*
X130342470Y-87837241D01*
X130307585Y-87763782D01*
X130280757Y-87706991D01*
X130263529Y-87670122D01*
X130257444Y-87656426D01*
X130251544Y-87643278D01*
X130234422Y-87607173D01*
X130207750Y-87551603D01*
X130173199Y-87480041D01*
X130132443Y-87395962D01*
X130087155Y-87302841D01*
X130073706Y-87275220D01*
X130033242Y-87192011D01*
X129993068Y-87109206D01*
X129952011Y-87024362D01*
X129908899Y-86935038D01*
X129862560Y-86838790D01*
X129811820Y-86733176D01*
X129755506Y-86615755D01*
X129692447Y-86484082D01*
X129621469Y-86335717D01*
X129541400Y-86168216D01*
X129451068Y-85979138D01*
X129349298Y-85766039D01*
X129343330Y-85753543D01*
X129289760Y-85641738D01*
X129240002Y-85538490D01*
X129195515Y-85446787D01*
X129157760Y-85369614D01*
X129128198Y-85309959D01*
X129108289Y-85270810D01*
X129099493Y-85255153D01*
X129096034Y-85253772D01*
X129089687Y-85260295D01*
X129080716Y-85279594D01*
X129068035Y-85314752D01*
X129050557Y-85368849D01*
X129027195Y-85444967D01*
X128996864Y-85546189D01*
X128989870Y-85570181D01*
X128972309Y-85633671D01*
X128953921Y-85703674D01*
X128936431Y-85773236D01*
X128921567Y-85835404D01*
X128911054Y-85883223D01*
X128906618Y-85909741D01*
X128909077Y-85922317D01*
X128923183Y-85959558D01*
X128947731Y-86013970D01*
X128980378Y-86080450D01*
X129018780Y-86153897D01*
X129132894Y-86365875D01*
X129115801Y-86454358D01*
X129053496Y-86807629D01*
X128995980Y-87213118D01*
X128952387Y-87621149D01*
X128922526Y-88029744D01*
X128906207Y-88436923D01*
X128903239Y-88840707D01*
X128913432Y-89239118D01*
X128936594Y-89630175D01*
X128972536Y-90011900D01*
X129021067Y-90382313D01*
X129081995Y-90739436D01*
X129155131Y-91081288D01*
X129240284Y-91405891D01*
X129337264Y-91711266D01*
X129445879Y-91995433D01*
X129565939Y-92256414D01*
X129697254Y-92492229D01*
X129701495Y-92499099D01*
X129793997Y-92638438D01*
X129895287Y-92773374D01*
X130000537Y-92898168D01*
X130104922Y-93007080D01*
X130203614Y-93094371D01*
X130240205Y-93121909D01*
X130332629Y-93183164D01*
X130434641Y-93241960D01*
X130535843Y-93292515D01*
X130625832Y-93329049D01*
X130656877Y-93339369D01*
X130713830Y-93355599D01*
X130766209Y-93364881D01*
X130825288Y-93368848D01*
X130902337Y-93369133D01*
X130987297Y-93365257D01*
X131176084Y-93336043D01*
X131361746Y-93279609D01*
X131541805Y-93197394D01*
X131713782Y-93090842D01*
X131875197Y-92961395D01*
X132023573Y-92810494D01*
X132156431Y-92639581D01*
X132211298Y-92559917D01*
X131872386Y-91894017D01*
X131796715Y-91869349D01*
X131706049Y-91827938D01*
X131629924Y-91764051D01*
X131572028Y-91677713D01*
X131533088Y-91572732D01*
X131521302Y-91462594D01*
X131538707Y-91352168D01*
X131563069Y-91268367D01*
X131322468Y-90796314D01*
X131315583Y-90782799D01*
X131271426Y-90695915D01*
X131215719Y-90586030D01*
X131149817Y-90455827D01*
X131075077Y-90307994D01*
X130992855Y-90145218D01*
X130904506Y-89970183D01*
X130811386Y-89785577D01*
X130714852Y-89594085D01*
X130616260Y-89398395D01*
X130516964Y-89201191D01*
X130418322Y-89005161D01*
X130399231Y-88967210D01*
X130300487Y-88770966D01*
X130201445Y-88574201D01*
X130103450Y-88379588D01*
X130007849Y-88189796D01*
X129915988Y-88007496D01*
X129829215Y-87835361D01*
X129748874Y-87676061D01*
X129676314Y-87532267D01*
X129612880Y-87406650D01*
X129559918Y-87301881D01*
X129518776Y-87220632D01*
X129489851Y-87163507D01*
X129432029Y-87048584D01*
X129386257Y-86956207D01*
X129351466Y-86883978D01*
X129326584Y-86829501D01*
X129310543Y-86790377D01*
X129302272Y-86764210D01*
X129300701Y-86748602D01*
X129304760Y-86741156D01*
X129318668Y-86735319D01*
X129343386Y-86744901D01*
X129343503Y-86745037D01*
X129352937Y-86761549D01*
X129374518Y-86802304D01*
X129407288Y-86865421D01*
X129450290Y-86949021D01*
X129502565Y-87051225D01*
X129563157Y-87170154D01*
X129631107Y-87303927D01*
X129705459Y-87450666D01*
X129785254Y-87608491D01*
X129869536Y-87775523D01*
X129957345Y-87949882D01*
X130030367Y-88094981D01*
X130120382Y-88273757D01*
X130208104Y-88447881D01*
X130292323Y-88614960D01*
X130371833Y-88772602D01*
X130445426Y-88918412D01*
X130511893Y-89049998D01*
X130570026Y-89164967D01*
X130618618Y-89260925D01*
X130656461Y-89335478D01*
X130682345Y-89386235D01*
X130708863Y-89438200D01*
X130749310Y-89517854D01*
X130799833Y-89617629D01*
X130858819Y-89734330D01*
X130924655Y-89864761D01*
X130995728Y-90005728D01*
X131070426Y-90154035D01*
X131147136Y-90306486D01*
X131224244Y-90459886D01*
X131638462Y-91284373D01*
X131614831Y-91334172D01*
X131612509Y-91339269D01*
X131593755Y-91412246D01*
X131592248Y-91497293D01*
X131606495Y-91584817D01*
X131635004Y-91665228D01*
X131676282Y-91728933D01*
X131682936Y-91735736D01*
X131731339Y-91770567D01*
X131794473Y-91800589D01*
X131860204Y-91819806D01*
X131915323Y-91830146D01*
X132098847Y-92196967D01*
X132282370Y-92563789D01*
X132197173Y-92689841D01*
X132159776Y-92742861D01*
X132026069Y-92903273D01*
X131873779Y-93047734D01*
X131707179Y-93172914D01*
X131530538Y-93275480D01*
X131348127Y-93352102D01*
X131210056Y-93393760D01*
X131044365Y-93426766D01*
X130889176Y-93436189D01*
X130740412Y-93421892D01*
X130593994Y-93383737D01*
X130445844Y-93321585D01*
X130422528Y-93309817D01*
X130245372Y-93202234D01*
X130077318Y-93067373D01*
X129918617Y-92905836D01*
X129769522Y-92718223D01*
X129630284Y-92505134D01*
X129501154Y-92267172D01*
X129382384Y-92004937D01*
X129274226Y-91719030D01*
X129176932Y-91410052D01*
X129090752Y-91078604D01*
X129015940Y-90725287D01*
X128952747Y-90350701D01*
X128901423Y-89955449D01*
X128862222Y-89540130D01*
X128856593Y-89447691D01*
X128851960Y-89330860D01*
X128848348Y-89194807D01*
X128845759Y-89044386D01*
X128844193Y-88884446D01*
X128843650Y-88719841D01*
X128844133Y-88555421D01*
X128845641Y-88396038D01*
X128848176Y-88246544D01*
X128851738Y-88111791D01*
X128856327Y-87996629D01*
X128861946Y-87905912D01*
X128882205Y-87671831D01*
X128907877Y-87417116D01*
X128936287Y-87172886D01*
X128966844Y-86943847D01*
X128998956Y-86734706D01*
X129032034Y-86550170D01*
X129064985Y-86381618D01*
X128976015Y-86209710D01*
X128968651Y-86195533D01*
X128935852Y-86133737D01*
X128908111Y-86083574D01*
X128888159Y-86049880D01*
X128878729Y-86037494D01*
X128878728Y-86037494D01*
X128873079Y-86051154D01*
X128863198Y-86089689D01*
X128849866Y-86149089D01*
X128833859Y-86225349D01*
X128815956Y-86314460D01*
X128796935Y-86412416D01*
X128777575Y-86515208D01*
X128758653Y-86618830D01*
X128740947Y-86719275D01*
X128725236Y-86812535D01*
X128712297Y-86894602D01*
X128699449Y-86981801D01*
X128645137Y-87397638D01*
X128602370Y-87811321D01*
X128571276Y-88219368D01*
X128551984Y-88618294D01*
X128544624Y-89004615D01*
X128491342Y-89004615D01*
X128491467Y-88894840D01*
X128492492Y-88736607D01*
X128494362Y-88584795D01*
X128497077Y-88443604D01*
X128500638Y-88317235D01*
X128505046Y-88209887D01*
X128510301Y-88125762D01*
X128513061Y-88091508D01*
X128550881Y-87674770D01*
X128594564Y-87284057D01*
X128644454Y-86916799D01*
X128700899Y-86570429D01*
X128764244Y-86242380D01*
X128770085Y-86214336D01*
X128786183Y-86135691D01*
X128800191Y-86065354D01*
X128810770Y-86010112D01*
X128816584Y-85976754D01*
X128817488Y-85964194D01*
X128815580Y-85946182D01*
X128809273Y-85922657D01*
X128797381Y-85891080D01*
X128778715Y-85848917D01*
X128752089Y-85793628D01*
X128716315Y-85722678D01*
X128670207Y-85633530D01*
X128612576Y-85523645D01*
X128542236Y-85390488D01*
X128477556Y-85268049D01*
X128404928Y-85130066D01*
X128331868Y-84990804D01*
X128261216Y-84855695D01*
X128195811Y-84730170D01*
X128138494Y-84619660D01*
X128092105Y-84529598D01*
X128073386Y-84493043D01*
X128025822Y-84399666D01*
X127989788Y-84327447D01*
X127963825Y-84272732D01*
X127946475Y-84231868D01*
X127936276Y-84201203D01*
X127931771Y-84177083D01*
X127931499Y-84155856D01*
X127932119Y-84150408D01*
X128000329Y-84150408D01*
X128007874Y-84195297D01*
X128032724Y-84264213D01*
X128075186Y-84355601D01*
X128083451Y-84372099D01*
X128119774Y-84443707D01*
X128164440Y-84530678D01*
X128215991Y-84630256D01*
X128272966Y-84739683D01*
X128333908Y-84856201D01*
X128397356Y-84977054D01*
X128461852Y-85099483D01*
X128525937Y-85220732D01*
X128588151Y-85338042D01*
X128647035Y-85448658D01*
X128701130Y-85549821D01*
X128748977Y-85638774D01*
X128789117Y-85712759D01*
X128820091Y-85769020D01*
X128840439Y-85804798D01*
X128848703Y-85817337D01*
X128849675Y-85816926D01*
X128858656Y-85799651D01*
X128871484Y-85762034D01*
X128885723Y-85711076D01*
X128891107Y-85690556D01*
X128908202Y-85628446D01*
X128930551Y-85549903D01*
X128955866Y-85462916D01*
X128981859Y-85375474D01*
X129050840Y-85146132D01*
X129045310Y-85134662D01*
X129128880Y-85134662D01*
X129128905Y-85135581D01*
X129132192Y-85150398D01*
X129141688Y-85176562D01*
X129158370Y-85216201D01*
X129183212Y-85271446D01*
X129217190Y-85344427D01*
X129261279Y-85437273D01*
X129316454Y-85552114D01*
X129383692Y-85691080D01*
X129415317Y-85756364D01*
X129455294Y-85839136D01*
X129489420Y-85910079D01*
X129515952Y-85965559D01*
X129533148Y-86001943D01*
X129539267Y-86015599D01*
X129543528Y-86025253D01*
X129558987Y-86058115D01*
X129584120Y-86110816D01*
X129617220Y-86179792D01*
X129656579Y-86261477D01*
X129700490Y-86352305D01*
X129737276Y-86428372D01*
X129777521Y-86511837D01*
X129811794Y-86583189D01*
X129838389Y-86638863D01*
X129855598Y-86675296D01*
X129861714Y-86688923D01*
X129863688Y-86693606D01*
X129876197Y-86720463D01*
X129898699Y-86767849D01*
X129929405Y-86832020D01*
X129966528Y-86909233D01*
X130008280Y-86995748D01*
X130032176Y-87045242D01*
X130071565Y-87127139D01*
X130105316Y-87197714D01*
X130131640Y-87253204D01*
X130148747Y-87289847D01*
X130154847Y-87303880D01*
X130159168Y-87313916D01*
X130174727Y-87347186D01*
X130199985Y-87400241D01*
X130233230Y-87469505D01*
X130272753Y-87551403D01*
X130316840Y-87642358D01*
X130344886Y-87700140D01*
X130393670Y-87800820D01*
X130440533Y-87897739D01*
X130482749Y-87985249D01*
X130517590Y-88057699D01*
X130542330Y-88109442D01*
X130588771Y-88206999D01*
X130692982Y-88424989D01*
X130795657Y-88638565D01*
X130891459Y-88836610D01*
X130900375Y-88854982D01*
X130945832Y-88948909D01*
X130994182Y-89049148D01*
X131040179Y-89144811D01*
X131078578Y-89225011D01*
X131115814Y-89303004D01*
X131166327Y-89408693D01*
X131221211Y-89523406D01*
X131282551Y-89651491D01*
X131352427Y-89797297D01*
X131432922Y-89965173D01*
X131447035Y-89994608D01*
X131494914Y-90094546D01*
X131545904Y-90201075D01*
X131594740Y-90303192D01*
X131636155Y-90389888D01*
X131655402Y-90430218D01*
X131725487Y-90577104D01*
X131784383Y-90700337D01*
X131833302Y-90802131D01*
X131873459Y-90884699D01*
X131906068Y-90950257D01*
X131932343Y-91001019D01*
X131953499Y-91039198D01*
X131970749Y-91067009D01*
X131985308Y-91086667D01*
X131998389Y-91100385D01*
X132011208Y-91110377D01*
X132024977Y-91118859D01*
X132040912Y-91128044D01*
X132064305Y-91142371D01*
X132153374Y-91211082D01*
X132216035Y-91288406D01*
X132253663Y-91377327D01*
X132267634Y-91480826D01*
X132259322Y-91601889D01*
X132255827Y-91627886D01*
X132254264Y-91662231D01*
X132261431Y-91681356D01*
X132279268Y-91694234D01*
X132318035Y-91708421D01*
X132384385Y-91718799D01*
X132458146Y-91719465D01*
X132527654Y-91709693D01*
X132556205Y-91702240D01*
X132591852Y-91690711D01*
X132608065Y-91682194D01*
X132609242Y-91661089D01*
X132589759Y-91629109D01*
X132551797Y-91594649D01*
X132499929Y-91562757D01*
X132446584Y-91531703D01*
X132361400Y-91459631D01*
X132297899Y-91373142D01*
X132257985Y-91276119D01*
X132243560Y-91172444D01*
X132256524Y-91065998D01*
X132279181Y-90977558D01*
X132189972Y-90797477D01*
X132189093Y-90795702D01*
X132150839Y-90718024D01*
X132112407Y-90639240D01*
X132078223Y-90568461D01*
X132052709Y-90514798D01*
X132049528Y-90508016D01*
X132024248Y-90454551D01*
X131990434Y-90383678D01*
X131947369Y-90293905D01*
X131894336Y-90183743D01*
X131830616Y-90051700D01*
X131755494Y-89896286D01*
X131668250Y-89716010D01*
X131657444Y-89693681D01*
X131620977Y-89618250D01*
X131574669Y-89522377D01*
X131520609Y-89410393D01*
X131460885Y-89286624D01*
X131397588Y-89155402D01*
X131332805Y-89021053D01*
X131268627Y-88887908D01*
X131244524Y-88837897D01*
X131179882Y-88703789D01*
X131115437Y-88570118D01*
X131053277Y-88441211D01*
X130995489Y-88321398D01*
X130944161Y-88215007D01*
X130901381Y-88126367D01*
X130869237Y-88059807D01*
X130842154Y-88003698D01*
X130796958Y-87909855D01*
X130752687Y-87817706D01*
X130713294Y-87735479D01*
X130682729Y-87671405D01*
X130675517Y-87656240D01*
X130650405Y-87603604D01*
X130622103Y-87544551D01*
X130589407Y-87476590D01*
X130551112Y-87397226D01*
X130506013Y-87303969D01*
X130452904Y-87194325D01*
X130390582Y-87065801D01*
X130317839Y-86915906D01*
X130233473Y-86742147D01*
X130192182Y-86656998D01*
X130151578Y-86572999D01*
X130117063Y-86501312D01*
X130090323Y-86445447D01*
X130073042Y-86408916D01*
X130066907Y-86395228D01*
X130065653Y-86392212D01*
X130054251Y-86367867D01*
X130032234Y-86321830D01*
X130001153Y-86257317D01*
X129962559Y-86177543D01*
X129918005Y-86085725D01*
X129869042Y-85985080D01*
X129846753Y-85939297D01*
X129799568Y-85842219D01*
X129757484Y-85755420D01*
X129722052Y-85682112D01*
X129694822Y-85625509D01*
X129677347Y-85588824D01*
X129671177Y-85575269D01*
X129665265Y-85562176D01*
X129648149Y-85526122D01*
X129621497Y-85470591D01*
X129586979Y-85399052D01*
X129546266Y-85314975D01*
X129501029Y-85221831D01*
X129460136Y-85137563D01*
X129415318Y-85044767D01*
X129375111Y-84961063D01*
X129341579Y-84890762D01*
X129316786Y-84838176D01*
X129302796Y-84807617D01*
X129292859Y-84786018D01*
X129277431Y-84757698D01*
X129268789Y-84749173D01*
X129264625Y-84756718D01*
X129251642Y-84787470D01*
X129232908Y-84835640D01*
X129210730Y-84894876D01*
X129187413Y-84958824D01*
X129165264Y-85021129D01*
X129146588Y-85075440D01*
X129133692Y-85115402D01*
X129128880Y-85134662D01*
X129045310Y-85134662D01*
X128956483Y-84950431D01*
X128950209Y-84937414D01*
X128910395Y-84854655D01*
X128870271Y-84771020D01*
X128834192Y-84695596D01*
X128806514Y-84637475D01*
X128806357Y-84637143D01*
X128777826Y-84577132D01*
X128741326Y-84500568D01*
X128701538Y-84417259D01*
X128663142Y-84337014D01*
X128661249Y-84333061D01*
X128619652Y-84246217D01*
X128571515Y-84145712D01*
X128522653Y-84043685D01*
X128478880Y-83952276D01*
X128460705Y-83915001D01*
X128427294Y-83850038D01*
X128398218Y-83797977D01*
X128376100Y-83763400D01*
X128363564Y-83750890D01*
X128334725Y-83757536D01*
X128288000Y-83777302D01*
X128234173Y-83805645D01*
X128181933Y-83837950D01*
X128139969Y-83869604D01*
X128116934Y-83892854D01*
X128073444Y-83952259D01*
X128036172Y-84021704D01*
X128010130Y-84091113D01*
X128000329Y-84150408D01*
X127932119Y-84150408D01*
X127934001Y-84133868D01*
X127959966Y-84035433D01*
X128008637Y-83935175D01*
X128074155Y-83847112D01*
X128082969Y-83837954D01*
X128144738Y-83786777D01*
X128219991Y-83739862D01*
X128297925Y-83703250D01*
X128363564Y-83684191D01*
X128367735Y-83682980D01*
X128419314Y-83674610D01*
X128472672Y-83789626D01*
X128474241Y-83793003D01*
X128498416Y-83844465D01*
X128532116Y-83915482D01*
X128572347Y-83999779D01*
X128616115Y-84091083D01*
X128660427Y-84183119D01*
X128666779Y-84196284D01*
X128709929Y-84285855D01*
X128751130Y-84371608D01*
X128787677Y-84447901D01*
X128816868Y-84509091D01*
X128835999Y-84549535D01*
X128843413Y-84565308D01*
X128868829Y-84618973D01*
X128902056Y-84688760D01*
X128939622Y-84767388D01*
X128978058Y-84847579D01*
X129078943Y-85057683D01*
X129096034Y-85013581D01*
X129155356Y-84860504D01*
X129230233Y-84667291D01*
X129303165Y-84667291D01*
X129501828Y-85075267D01*
X129524826Y-85122523D01*
X129572052Y-85219726D01*
X129614163Y-85306622D01*
X129649609Y-85380006D01*
X129676845Y-85436668D01*
X129694321Y-85473402D01*
X129700490Y-85486999D01*
X129706422Y-85500187D01*
X129723547Y-85536332D01*
X129750201Y-85591949D01*
X129784714Y-85663566D01*
X129825416Y-85747713D01*
X129870640Y-85840918D01*
X129905791Y-85913309D01*
X129956141Y-86017163D01*
X130004529Y-86117146D01*
X130048239Y-86207635D01*
X130084553Y-86283009D01*
X130110753Y-86337648D01*
X130121460Y-86360032D01*
X130150907Y-86421377D01*
X130189832Y-86502283D01*
X130236061Y-86598236D01*
X130287418Y-86704722D01*
X130341729Y-86817230D01*
X130396818Y-86931243D01*
X130423114Y-86985656D01*
X130479037Y-87101473D01*
X130533662Y-87214728D01*
X130584694Y-87320654D01*
X130629839Y-87414488D01*
X130666802Y-87491466D01*
X130693288Y-87546823D01*
X130711995Y-87585957D01*
X130752114Y-87669504D01*
X130798249Y-87765222D01*
X130846064Y-87864121D01*
X130891223Y-87957210D01*
X130929357Y-88035727D01*
X130976352Y-88132722D01*
X131024637Y-88232668D01*
X131076476Y-88340266D01*
X131134134Y-88460219D01*
X131199876Y-88597229D01*
X131275966Y-88755998D01*
X131297027Y-88799888D01*
X131336341Y-88881591D01*
X131381638Y-88975536D01*
X131428849Y-89073282D01*
X131473900Y-89166385D01*
X131502565Y-89225597D01*
X131550766Y-89325293D01*
X131599128Y-89425463D01*
X131643334Y-89517157D01*
X131679062Y-89591428D01*
X131700609Y-89636252D01*
X131742222Y-89722671D01*
X131789546Y-89820816D01*
X131838262Y-89921734D01*
X131884054Y-90016471D01*
X131913585Y-90077515D01*
X131997211Y-90250369D01*
X132069214Y-90399340D01*
X132130427Y-90526337D01*
X132181680Y-90633271D01*
X132223805Y-90722051D01*
X132257634Y-90794588D01*
X132283997Y-90852792D01*
X132303727Y-90898573D01*
X132317654Y-90933841D01*
X132326611Y-90960507D01*
X132331429Y-90980481D01*
X132332939Y-90995672D01*
X132331972Y-91007992D01*
X132329361Y-91019350D01*
X132325936Y-91031656D01*
X132310697Y-91123701D01*
X132315555Y-91227533D01*
X132344308Y-91320914D01*
X132355264Y-91342800D01*
X132401746Y-91411407D01*
X132462846Y-91465149D01*
X132545902Y-91510944D01*
X132581580Y-91528806D01*
X132623756Y-91558922D01*
X132646613Y-91592384D01*
X132647415Y-91594278D01*
X132665400Y-91623832D01*
X132683381Y-91636033D01*
X132700120Y-91629278D01*
X132729442Y-91603754D01*
X132760617Y-91566970D01*
X132786808Y-91527236D01*
X132801177Y-91492861D01*
X132811001Y-91456394D01*
X132832130Y-91407364D01*
X132867156Y-91347978D01*
X132874657Y-91334378D01*
X132893025Y-91284509D01*
X132903690Y-91230725D01*
X132901793Y-91155018D01*
X132874295Y-91067038D01*
X132820471Y-90986634D01*
X132741843Y-90915957D01*
X132639932Y-90857163D01*
X132627849Y-90850023D01*
X132613376Y-90836221D01*
X132597011Y-90813663D01*
X132577141Y-90779319D01*
X132552154Y-90730161D01*
X132520436Y-90663158D01*
X132480374Y-90575281D01*
X132430356Y-90463500D01*
X132427403Y-90456867D01*
X132403850Y-90403951D01*
X132372999Y-90334626D01*
X132334630Y-90248400D01*
X132288523Y-90144777D01*
X132234458Y-90023263D01*
X132172216Y-89883366D01*
X132101578Y-89724589D01*
X132022322Y-89546441D01*
X131934230Y-89348425D01*
X131837082Y-89130049D01*
X131730657Y-88890819D01*
X131614736Y-88630240D01*
X131489100Y-88347818D01*
X131353528Y-88043059D01*
X131207801Y-87715469D01*
X131051699Y-87364555D01*
X130885002Y-86989821D01*
X130707490Y-86590775D01*
X130518944Y-86166921D01*
X130319144Y-85717767D01*
X130107870Y-85242817D01*
X129884902Y-84741578D01*
X129830629Y-84620172D01*
X129776959Y-84501352D01*
X129727740Y-84393641D01*
X129684199Y-84299661D01*
X129647561Y-84222032D01*
X129619049Y-84163373D01*
X129599889Y-84126307D01*
X129591306Y-84113453D01*
X129583033Y-84120967D01*
X129562842Y-84150673D01*
X129534374Y-84198632D01*
X129500137Y-84260203D01*
X129462638Y-84330745D01*
X129424382Y-84405617D01*
X129387877Y-84480177D01*
X129355629Y-84549787D01*
X129303165Y-84667291D01*
X129230233Y-84667291D01*
X129231770Y-84663324D01*
X129112632Y-84415893D01*
X129086523Y-84361673D01*
X129037385Y-84259651D01*
X128987114Y-84155299D01*
X128940325Y-84058196D01*
X128901634Y-83977925D01*
X128873812Y-83920238D01*
X128805143Y-83777944D01*
X128747823Y-83658923D01*
X128700953Y-83560823D01*
X128663631Y-83481290D01*
X128634958Y-83417973D01*
X128614033Y-83368516D01*
X128599956Y-83330568D01*
X128591826Y-83301775D01*
X128590417Y-83291721D01*
X128642864Y-83291721D01*
X128945318Y-83920628D01*
X129006192Y-84046956D01*
X129063566Y-84165540D01*
X129116011Y-84273458D01*
X129162240Y-84368083D01*
X129200964Y-84446786D01*
X129230893Y-84506936D01*
X129250740Y-84545906D01*
X129259217Y-84561066D01*
X129259399Y-84561223D01*
X129268789Y-84553614D01*
X129270151Y-84552510D01*
X129290269Y-84522033D01*
X129316942Y-84474471D01*
X129347354Y-84414500D01*
X129372565Y-84363446D01*
X129413836Y-84282646D01*
X129454635Y-84205516D01*
X129488986Y-84143496D01*
X129501679Y-84121052D01*
X129528382Y-84070995D01*
X129546868Y-84032188D01*
X129553724Y-84011586D01*
X129553677Y-84010872D01*
X129546970Y-83988922D01*
X129530551Y-83946603D01*
X129506760Y-83889709D01*
X129477939Y-83824030D01*
X129461819Y-83788023D01*
X129428121Y-83712543D01*
X129386992Y-83620240D01*
X129341161Y-83517247D01*
X129293360Y-83409696D01*
X129246316Y-83303719D01*
X129240008Y-83289507D01*
X129192398Y-83183159D01*
X129154494Y-83100672D01*
X129124806Y-83039222D01*
X129101846Y-82995984D01*
X129084125Y-82968134D01*
X129070154Y-82952846D01*
X129058444Y-82947297D01*
X129036180Y-82948659D01*
X128988554Y-82963686D01*
X128930262Y-82990849D01*
X128868501Y-83026267D01*
X128810467Y-83066063D01*
X128763356Y-83106357D01*
X128732780Y-83139926D01*
X128694922Y-83189565D01*
X128669503Y-83232646D01*
X128642864Y-83291721D01*
X128590417Y-83291721D01*
X128588744Y-83279783D01*
X128589809Y-83262241D01*
X128594120Y-83246794D01*
X128600777Y-83231089D01*
X128608880Y-83212774D01*
X128630972Y-83169008D01*
X128692817Y-83086554D01*
X128775062Y-83010892D01*
X128871844Y-82947002D01*
X128977299Y-82899865D01*
X129007975Y-82888790D01*
X129036712Y-82878725D01*
X129058444Y-82873866D01*
X129060995Y-82873296D01*
X129082503Y-82874697D01*
X129102913Y-82885126D01*
X129123905Y-82906777D01*
X129147158Y-82941847D01*
X129174350Y-82992531D01*
X129207159Y-83061025D01*
X129247265Y-83149524D01*
X129296346Y-83260225D01*
X129356081Y-83395323D01*
X129369030Y-83424518D01*
X129419872Y-83538846D01*
X129466877Y-83644079D01*
X129508712Y-83737264D01*
X129544042Y-83815446D01*
X129571536Y-83875673D01*
X129589858Y-83914990D01*
X129591306Y-83917852D01*
X129597676Y-83930444D01*
X129599260Y-83930755D01*
G37*
%TD*%
M02*
