%TF.GenerationSoftware,KiCad,Pcbnew,6.0.2+dfsg-1*%
%TF.CreationDate,2023-07-31T08:36:05-05:00*%
%TF.ProjectId,DrumPCB,4472756d-5043-4422-9e6b-696361645f70,rev?*%
%TF.SameCoordinates,Original*%
%TF.FileFunction,Legend,Top*%
%TF.FilePolarity,Positive*%
%FSLAX46Y46*%
G04 Gerber Fmt 4.6, Leading zero omitted, Abs format (unit mm)*
G04 Created by KiCad (PCBNEW 6.0.2+dfsg-1) date 2023-07-31 08:36:05*
%MOMM*%
%LPD*%
G01*
G04 APERTURE LIST*
%ADD10C,0.150000*%
%ADD11C,0.120000*%
%ADD12C,0.127000*%
%ADD13C,0.200000*%
G04 APERTURE END LIST*
D10*
X130072142Y-86302380D02*
X130072142Y-85302380D01*
X130453095Y-85302380D01*
X130548333Y-85350000D01*
X130595952Y-85397619D01*
X130643571Y-85492857D01*
X130643571Y-85635714D01*
X130595952Y-85730952D01*
X130548333Y-85778571D01*
X130453095Y-85826190D01*
X130072142Y-85826190D01*
X131357857Y-85302380D02*
X131357857Y-86016666D01*
X131310238Y-86159523D01*
X131215000Y-86254761D01*
X131072142Y-86302380D01*
X130976904Y-86302380D01*
X131738809Y-85302380D02*
X132357857Y-85302380D01*
X132024523Y-85683333D01*
X132167380Y-85683333D01*
X132262619Y-85730952D01*
X132310238Y-85778571D01*
X132357857Y-85873809D01*
X132357857Y-86111904D01*
X132310238Y-86207142D01*
X132262619Y-86254761D01*
X132167380Y-86302380D01*
X131881666Y-86302380D01*
X131786428Y-86254761D01*
X131738809Y-86207142D01*
X132738809Y-85397619D02*
X132786428Y-85350000D01*
X132881666Y-85302380D01*
X133119761Y-85302380D01*
X133215000Y-85350000D01*
X133262619Y-85397619D01*
X133310238Y-85492857D01*
X133310238Y-85588095D01*
X133262619Y-85730952D01*
X132691190Y-86302380D01*
X133310238Y-86302380D01*
X134167380Y-85635714D02*
X134167380Y-86302380D01*
X133929285Y-85254761D02*
X133691190Y-85969047D01*
X134310238Y-85969047D01*
X134691190Y-86302380D02*
X134691190Y-85302380D01*
X135024523Y-86016666D01*
X135357857Y-85302380D01*
X135357857Y-86302380D01*
X130286428Y-86912380D02*
X130857857Y-86912380D01*
X130572142Y-87912380D02*
X130572142Y-86912380D01*
X131191190Y-87531428D02*
X131953095Y-87531428D01*
X132953095Y-86960000D02*
X132857857Y-86912380D01*
X132715000Y-86912380D01*
X132572142Y-86960000D01*
X132476904Y-87055238D01*
X132429285Y-87150476D01*
X132381666Y-87340952D01*
X132381666Y-87483809D01*
X132429285Y-87674285D01*
X132476904Y-87769523D01*
X132572142Y-87864761D01*
X132715000Y-87912380D01*
X132810238Y-87912380D01*
X132953095Y-87864761D01*
X133000714Y-87817142D01*
X133000714Y-87483809D01*
X132810238Y-87483809D01*
X133429285Y-87912380D02*
X133429285Y-86912380D01*
X134000714Y-87912380D01*
X134000714Y-86912380D01*
X134476904Y-87912380D02*
X134476904Y-86912380D01*
X134715000Y-86912380D01*
X134857857Y-86960000D01*
X134953095Y-87055238D01*
X135000714Y-87150476D01*
X135048333Y-87340952D01*
X135048333Y-87483809D01*
X135000714Y-87674285D01*
X134953095Y-87769523D01*
X134857857Y-87864761D01*
X134715000Y-87912380D01*
X134476904Y-87912380D01*
X131095952Y-89522380D02*
X130762619Y-89046190D01*
X130524523Y-89522380D02*
X130524523Y-88522380D01*
X130905476Y-88522380D01*
X131000714Y-88570000D01*
X131048333Y-88617619D01*
X131095952Y-88712857D01*
X131095952Y-88855714D01*
X131048333Y-88950952D01*
X131000714Y-88998571D01*
X130905476Y-89046190D01*
X130524523Y-89046190D01*
X131524523Y-89141428D02*
X132286428Y-89141428D01*
X133334047Y-89522380D02*
X133000714Y-89046190D01*
X132762619Y-89522380D02*
X132762619Y-88522380D01*
X133143571Y-88522380D01*
X133238809Y-88570000D01*
X133286428Y-88617619D01*
X133334047Y-88712857D01*
X133334047Y-88855714D01*
X133286428Y-88950952D01*
X133238809Y-88998571D01*
X133143571Y-89046190D01*
X132762619Y-89046190D01*
X133762619Y-89522380D02*
X133762619Y-88522380D01*
X134238809Y-89522380D02*
X134238809Y-88522380D01*
X134572142Y-89236666D01*
X134905476Y-88522380D01*
X134905476Y-89522380D01*
X130429285Y-91084761D02*
X130572142Y-91132380D01*
X130810238Y-91132380D01*
X130905476Y-91084761D01*
X130953095Y-91037142D01*
X131000714Y-90941904D01*
X131000714Y-90846666D01*
X130953095Y-90751428D01*
X130905476Y-90703809D01*
X130810238Y-90656190D01*
X130619761Y-90608571D01*
X130524523Y-90560952D01*
X130476904Y-90513333D01*
X130429285Y-90418095D01*
X130429285Y-90322857D01*
X130476904Y-90227619D01*
X130524523Y-90180000D01*
X130619761Y-90132380D01*
X130857857Y-90132380D01*
X131000714Y-90180000D01*
X131429285Y-90751428D02*
X132191190Y-90751428D01*
X133238809Y-91037142D02*
X133191190Y-91084761D01*
X133048333Y-91132380D01*
X132953095Y-91132380D01*
X132810238Y-91084761D01*
X132715000Y-90989523D01*
X132667380Y-90894285D01*
X132619761Y-90703809D01*
X132619761Y-90560952D01*
X132667380Y-90370476D01*
X132715000Y-90275238D01*
X132810238Y-90180000D01*
X132953095Y-90132380D01*
X133048333Y-90132380D01*
X133191190Y-90180000D01*
X133238809Y-90227619D01*
X133524523Y-90132380D02*
X134095952Y-90132380D01*
X133810238Y-91132380D02*
X133810238Y-90132380D01*
X135000714Y-91132380D02*
X134667380Y-90656190D01*
X134429285Y-91132380D02*
X134429285Y-90132380D01*
X134810238Y-90132380D01*
X134905476Y-90180000D01*
X134953095Y-90227619D01*
X135000714Y-90322857D01*
X135000714Y-90465714D01*
X134953095Y-90560952D01*
X134905476Y-90608571D01*
X134810238Y-90656190D01*
X134429285Y-90656190D01*
%TO.C,CTR*%
X131895142Y-104076428D02*
X131942761Y-104124047D01*
X131990380Y-104266904D01*
X131990380Y-104362142D01*
X131942761Y-104505000D01*
X131847523Y-104600238D01*
X131752285Y-104647857D01*
X131561809Y-104695476D01*
X131418952Y-104695476D01*
X131228476Y-104647857D01*
X131133238Y-104600238D01*
X131038000Y-104505000D01*
X130990380Y-104362142D01*
X130990380Y-104266904D01*
X131038000Y-104124047D01*
X131085619Y-104076428D01*
X130990380Y-103790714D02*
X130990380Y-103219285D01*
X131990380Y-103505000D02*
X130990380Y-103505000D01*
X131990380Y-102314523D02*
X131514190Y-102647857D01*
X131990380Y-102885952D02*
X130990380Y-102885952D01*
X130990380Y-102505000D01*
X131038000Y-102409761D01*
X131085619Y-102362142D01*
X131180857Y-102314523D01*
X131323714Y-102314523D01*
X131418952Y-102362142D01*
X131466571Y-102409761D01*
X131514190Y-102505000D01*
X131514190Y-102885952D01*
%TO.C,RIM*%
X136249380Y-104005000D02*
X135773190Y-104338333D01*
X136249380Y-104576428D02*
X135249380Y-104576428D01*
X135249380Y-104195476D01*
X135297000Y-104100238D01*
X135344619Y-104052619D01*
X135439857Y-104005000D01*
X135582714Y-104005000D01*
X135677952Y-104052619D01*
X135725571Y-104100238D01*
X135773190Y-104195476D01*
X135773190Y-104576428D01*
X136249380Y-103576428D02*
X135249380Y-103576428D01*
X136249380Y-103100238D02*
X135249380Y-103100238D01*
X135963666Y-102766904D01*
X135249380Y-102433571D01*
X136249380Y-102433571D01*
%TO.C,GND*%
X131038000Y-108076904D02*
X130990380Y-108172142D01*
X130990380Y-108315000D01*
X131038000Y-108457857D01*
X131133238Y-108553095D01*
X131228476Y-108600714D01*
X131418952Y-108648333D01*
X131561809Y-108648333D01*
X131752285Y-108600714D01*
X131847523Y-108553095D01*
X131942761Y-108457857D01*
X131990380Y-108315000D01*
X131990380Y-108219761D01*
X131942761Y-108076904D01*
X131895142Y-108029285D01*
X131561809Y-108029285D01*
X131561809Y-108219761D01*
X131990380Y-107600714D02*
X130990380Y-107600714D01*
X131990380Y-107029285D01*
X130990380Y-107029285D01*
X131990380Y-106553095D02*
X130990380Y-106553095D01*
X130990380Y-106315000D01*
X131038000Y-106172142D01*
X131133238Y-106076904D01*
X131228476Y-106029285D01*
X131418952Y-105981666D01*
X131561809Y-105981666D01*
X131752285Y-106029285D01*
X131847523Y-106076904D01*
X131942761Y-106172142D01*
X131990380Y-106315000D01*
X131990380Y-106553095D01*
X135297000Y-108076904D02*
X135249380Y-108172142D01*
X135249380Y-108315000D01*
X135297000Y-108457857D01*
X135392238Y-108553095D01*
X135487476Y-108600714D01*
X135677952Y-108648333D01*
X135820809Y-108648333D01*
X136011285Y-108600714D01*
X136106523Y-108553095D01*
X136201761Y-108457857D01*
X136249380Y-108315000D01*
X136249380Y-108219761D01*
X136201761Y-108076904D01*
X136154142Y-108029285D01*
X135820809Y-108029285D01*
X135820809Y-108219761D01*
X136249380Y-107600714D02*
X135249380Y-107600714D01*
X136249380Y-107029285D01*
X135249380Y-107029285D01*
X136249380Y-106553095D02*
X135249380Y-106553095D01*
X135249380Y-106315000D01*
X135297000Y-106172142D01*
X135392238Y-106076904D01*
X135487476Y-106029285D01*
X135677952Y-105981666D01*
X135820809Y-105981666D01*
X136011285Y-106029285D01*
X136106523Y-106076904D01*
X136201761Y-106172142D01*
X136249380Y-106315000D01*
X136249380Y-106553095D01*
D11*
%TO.C,R2*%
X138530000Y-99197936D02*
X138530000Y-99652064D01*
X137060000Y-99197936D02*
X137060000Y-99652064D01*
D12*
%TO.C,J2*%
X139437500Y-82280000D02*
X139437500Y-90252000D01*
X130437500Y-78780000D02*
X130437500Y-82280000D01*
X136437500Y-82280000D02*
X139437500Y-82280000D01*
X139437500Y-96480000D02*
X139437500Y-93508000D01*
X136437500Y-78780000D02*
X130437500Y-78780000D01*
X139437500Y-96480000D02*
X127937500Y-96480000D01*
X127937500Y-82280000D02*
X130437500Y-82280000D01*
X127937500Y-86552000D02*
X127937500Y-82280000D01*
X136437500Y-82280000D02*
X136437500Y-78780000D01*
X130437500Y-82280000D02*
X136437500Y-82280000D01*
X127937500Y-96480000D02*
X127937500Y-96254000D01*
X127937500Y-89808000D02*
X127937500Y-94306000D01*
D13*
X127287500Y-83480000D02*
G75*
G03*
X127287500Y-83480000I-100000J0D01*
G01*
D11*
%TO.C,CTR*%
X130740000Y-103505000D02*
G75*
G03*
X130740000Y-103505000I-1200000J0D01*
G01*
%TO.C,RIM*%
X138995000Y-103505000D02*
G75*
G03*
X138995000Y-103505000I-1200000J0D01*
G01*
%TO.C,GND*%
X130740000Y-108515000D02*
X128340000Y-108515000D01*
X128340000Y-108515000D02*
X128340000Y-106115000D01*
X130740000Y-106115000D02*
X130740000Y-108515000D01*
X128340000Y-106115000D02*
X130740000Y-106115000D01*
%TO.C,R1*%
X128805000Y-99197936D02*
X128805000Y-99652064D01*
X130275000Y-99197936D02*
X130275000Y-99652064D01*
%TO.C,GND*%
X136595000Y-106115000D02*
X138995000Y-106115000D01*
X138995000Y-106115000D02*
X138995000Y-108515000D01*
X138995000Y-108515000D02*
X136595000Y-108515000D01*
X136595000Y-108515000D02*
X136595000Y-106115000D01*
%TD*%
M02*
